/* XPM */
static char *result[] = {
/* columns rows colors chars-per-pixel */
"64 64 225 2 ",
"   c black",
".  c #010101",
"X  c #020202",
"o  c gray1",
"O  c #040404",
"+  c gray2",
"@  c #060606",
"#  c #070707",
"$  c gray3",
"%  c #090909",
"&  c gray4",
"*  c #0B0B0B",
"=  c #0C0C0C",
"-  c gray5",
";  c #0E0E0E",
":  c gray6",
">  c #101010",
",  c #111111",
"<  c gray7",
"1  c #131313",
"2  c gray8",
"3  c #151515",
"4  c gray9",
"5  c #181818",
"6  c #191919",
"7  c gray10",
"8  c #1B1B1B",
"9  c gray11",
"0  c #1D1D1D",
"q  c #1E1E1E",
"w  c gray12",
"e  c #202020",
"r  c gray13",
"t  c #222222",
"y  c #232323",
"u  c gray14",
"i  c #252525",
"p  c gray15",
"a  c #272727",
"s  c #282828",
"d  c gray16",
"f  c #2A2A2A",
"g  c gray17",
"h  c #2C2C2C",
"j  c #2D2D2D",
"k  c #2F2F2F",
"l  c gray19",
"z  c #313131",
"x  c #323232",
"c  c gray20",
"v  c #343434",
"b  c #373737",
"n  c gray22",
"m  c #393939",
"M  c #3A3A3A",
"N  c gray23",
"B  c #3C3C3C",
"V  c gray24",
"C  c #3F3F3F",
"Z  c gray25",
"A  c #414141",
"S  c gray26",
"D  c #434343",
"F  c #444444",
"G  c #464646",
"H  c #484848",
"J  c gray29",
"K  c #4B4B4B",
"L  c gray30",
"P  c gray31",
"I  c #515151",
"U  c gray33",
"Y  c #555555",
"T  c #565656",
"R  c gray34",
"E  c #585858",
"W  c #5B5B5B",
"Q  c gray37",
"!  c #5F5F5F",
"~  c #606060",
"^  c #626262",
"/  c #646464",
"(  c #656565",
")  c #686868",
"_  c DimGray",
"`  c #6A6A6A",
"'  c gray42",
"]  c #6C6C6C",
"[  c #6D6D6D",
"{  c gray43",
"}  c #6F6F6F",
"|  c #727272",
" . c gray45",
".. c #747474",
"X. c gray46",
"o. c #767676",
"O. c #797979",
"+. c gray48",
"@. c #7B7B7B",
"#. c gray49",
"$. c #7E7E7E",
"%. c gray50",
"&. c #808080",
"*. c #818181",
"=. c gray51",
"-. c #848484",
";. c gray52",
":. c #868686",
">. c gray53",
",. c #888888",
"<. c #8B8B8B",
"1. c gray55",
"2. c #8D8D8D",
"3. c #8E8E8E",
"4. c gray56",
"5. c #909090",
"6. c gray57",
"7. c #929292",
"8. c #939393",
"9. c gray58",
"0. c #959595",
"q. c #979797",
"w. c #989898",
"e. c #9A9A9A",
"r. c #9B9B9B",
"t. c gray61",
"y. c #9D9D9D",
"u. c gray62",
"i. c #9F9F9F",
"p. c #A0A0A0",
"a. c gray63",
"s. c #A2A2A2",
"d. c gray64",
"f. c #A4A4A4",
"g. c #A5A5A5",
"h. c gray65",
"j. c #A7A7A7",
"k. c gray66",
"l. c #A9A9A9",
"z. c #AAAAAA",
"x. c gray67",
"c. c #ACACAC",
"v. c gray68",
"b. c #AEAEAE",
"n. c #AFAFAF",
"m. c gray69",
"M. c #B1B1B1",
"N. c #B2B2B2",
"B. c gray70",
"V. c #B4B4B4",
"C. c gray71",
"Z. c #B6B6B6",
"A. c #B7B7B7",
"S. c gray72",
"D. c #B9B9B9",
"F. c gray73",
"G. c #BBBBBB",
"H. c #BCBCBC",
"J. c gray74",
"K. c gray",
"L. c #C0C0C0",
"P. c #C1C1C1",
"I. c gray76",
"U. c #C3C3C3",
"Y. c gray77",
"T. c #C5C5C5",
"R. c #C6C6C6",
"E. c gray78",
"W. c #C8C8C8",
"Q. c gray79",
"!. c #CACACA",
"~. c #CBCBCB",
"^. c gray80",
"/. c #CDCDCD",
"(. c #CECECE",
"). c gray81",
"_. c #D0D0D0",
"`. c gray82",
"'. c #D2D2D2",
"]. c LightGray",
"[. c gray83",
"{. c #D5D5D5",
"}. c gray84",
"|. c #D7D7D7",
" X c #D8D8D8",
".X c gray85",
"XX c #DADADA",
"oX c gray86",
"OX c gainsboro",
"+X c #DDDDDD",
"@X c gray87",
"#X c #DFDFDF",
"$X c gray88",
"%X c #E1E1E1",
"&X c #E2E2E2",
"*X c gray89",
"=X c #E4E4E4",
"-X c gray90",
";X c #E6E6E6",
":X c #E7E7E7",
">X c gray91",
",X c #E9E9E9",
"<X c #EAEAEA",
"1X c gray92",
"2X c #ECECEC",
"3X c gray93",
"4X c #EEEEEE",
"5X c #EFEFEF",
"6X c gray94",
"7X c #F1F1F1",
"8X c gray95",
"9X c #F3F3F3",
"0X c #F4F4F4",
"qX c gray96",
"wX c #F6F6F6",
"eX c gray97",
"rX c #F8F8F8",
"tX c #F9F9F9",
"yX c gray98",
"uX c #FBFBFB",
"iX c gray99",
"pX c #FDFDFD",
"aX c #FEFEFE",
"sX c white",
"dX c None",
/* pixels */
"dXdXdXdXdXdXdXdXdXdXdXdXdXdXdXdXdXdXdXdXdXdXdXdXdXdX                      dXdXdXdXdXdXdXdXdXdXdXdXdXdXdXdXdXdXdXdXdXdXdXdXdXdXdX",
"dXdXdXdXdXdXdXdXdXdXdXdXdXdXdXdXdXdXdXdXdX  H   +       .                       # dXdXdXdXdXdXdXdXdXdXdXdXdXdXdXdXdXdXdXdXdXdXdX",
"dXdXdXdXdXdXdXdXdXdXdXdXdXdXdXdXdXdX  ' J.1X+.  k i w &     .       .     < y a 4   <...dXdXdXdXdXdXdXdXdXdXdXdXdXdXdXdXdXdXdXdX",
"dXdXdXdXdXdXdXdXdXdXdXdXdXdXdXdX  :.:XsXsXY.          . a 9 .       @ e i           1./.B.@.dXdXdXdXdXdXdXdXdXdXdXdXdXdXdXdXdXdX",
"dXdXdXdXdXdXdXdXdXdXdXdXdXdXdXX.,XsX*Xv.f.n.G.Z.j.<.Q       3 w % y       t O.v.(.=X$XI.M.m.z.` dXdXdXdXdXdXdXdXdXdXdXdXdXdXdXdX",
"dXdXdXdXdXdXdXdXdXdXdXdXdX  Q.sX2Xa.c.%XtXsXsXsXsXpXqX&XH.O.          <.E.<XuXsXsXaXsXsXwX Xv.v.r.  dXdXdXdXdXdXdXdXdXdXdXdXdXdX",
"dXdXdXdXdXdXdXdXdXdXdXdX[ 9XsXA.t.=XsXaXyXeXeXeXeXrXyXaXsXiXoX@.  f.:XaXsXiXtXeXeXeXeXeXyXsXyX^.d.K.) dXdXdXdXdXdXdXdXdXdXdXdXdX",
"dXdXdXdXdXdXdXdXdXdXdXy.sXrX5.Y.sXaXwXrXtXtXtXtXtXtXrXrXeXrXsX4Xi.sXaXeXeXrXtXtXtXtXtXtXtXeXrXsX:Xs.^.7.dXdXdXdXdXdXdXdXdXdXdXdX",
"dXdXdXdXdXdXdXdXdX  A.sX,X,.%XsXrXeXtXtXtXtXtXtXtXtXtXtXtXtXtX5Xc.tXeXtXtXtXtXtXtXtXtXtXtXtXtXwXsXqXi.{.S.  dXdXdXdXdXdXdXdXdXdX",
"dXdXdXdXdXdXdXdX  J.sX>X<.4XsXwXtXtXtXtXtXtXtXtXtXtXtXtXtXtXiX5Xk.yXyXrXtXtXtXtXtXtXtXtXtXtXtXtXwXiXtXq.-X^.  dXdXdXdXdXdXdXdXdX",
"dXdXdXdXdXdXdXdXc.sX0X4.1XsXwXtXtXtXtXtXtXtXtXtXtXtXtXtXtXtXuX7Xl.tXyXrXtXtXtXtXtXtXtXtXtXtXtXtXtXeXpXqX1.tX}.  dXdXdXdXdXdXdXdX",
"dXdXdXdXdXdXdX2.sXsXM.).sXqXtXtXtXtXtXtXtXtXtXtXtXtXtXtXtXtXuX8Xk.tXyXrXtXtXtXtXtXtXtXtXtXtXtXtXtXtXwXsX*X6.0XI.  dXdXdXdXdXdXdX",
"dXdXdXdXdXdX/ 4XT.[ -.pXrXrXtXtXtXtXtXtXtXtXtXtXtXtXtXtXtXtXuX8Xk.rXyXrXtXtXtXtXtXtXtXtXtXtXtXtXtXtXtXqXsXH.  %.F dXdXdXdXdXdXdX",
"dXdXdXdXdXdX9.'     x.sXeXtXtXtXtXtXtXtXtXtXtXtXtXtXtXtXtXtXuX9Xk.eXyXrXtXtXtXtXtXtXtXtXtXtXtXtXtXtXtXrXiX2X3     @ dXdXdXdXdXdX",
"dXdXdXdXdX6     b   K.sXeXtXtXtXtXtXtXtXtXtXtXtXtXtXtXtXtXtXyX0Xk.eXuXrXtXtXtXtXtXtXtXtXtXtXtXtXtXtXtXtXtXeX'   r     dXdXdXdXdX",
"dXdXdXdXO   - 4 8   W.sXwXtXtXtXtXtXtXtXtXtXtXtXtXtXtXtXtXtXyX9Xh.0XyXrXtXtXtXtXtXtXtXtXtXtXtXtXtXtXtXtXrXaX1.  i     dXdXdXdXdX",
"dXdXdXdX  . O   q   ).sXeXtXtXtXtXtXtXtXtXtXtXtXtXtXtXtXtXeXyXpXb.iXiXwXtXtXtXtXtXtXtXtXtXtXtXtXtXtXtXtXeXsXp.  a       dXdXdXdX",
"dXdXdX      .   0   _.sXeXtXtXtXtXtXtXtXtXtXtXtXtXtXtXrXeXsXuX~.! R.uXsXeXrXtXtXtXtXtXtXtXtXtXtXtXtXtXtXeXsXz.  a       dXdXdXdX",
"dXdXdX      .   q   ^.sXeXtXtXtXtXtXtXtXtXtXtXtXtXtXeXuXsX|. .      } |.sXuXeXtXtXtXtXtXtXtXtXtXtXtXtXtXeXsXv.  a         dXdXdX",
"dXdX        .   r   P.sXeXtXtXtXtXtXtXtXtXtXtXtXrXeXsX7Xe.    t 3 u     t.7XsXeXrXtXtXtXtXtXtXtXtXtXtXtXeXsXk.  a         dXdXdX",
"dXdX        .   y   n.sXqXeXrXtXtXtXtXtXtXtXtXeXtXsX[.H   6 r       r 7   J `.sXyXeXtXtXtXtXtXtXtXtXeXeXqXsXr.  a           dXdX",
"dXdX          . 7   { 8XsXsXsXuXrXeXrXtXtXtXwXiXiXv.    d $   .   .   $ s     d.rXaXwXtXtXrXeXeXtXiXsXsXsXrX`   9           dXdX",
"dX          X   r   x s.x.I.@X0XsXsXpXrXwXwXsX6X*.  6 7   .           .   6 q   [ ,XsXwXwXtXsXsXiX4X XL.n.g.d   w   .       dXdX",
"dX        .   w   K ;XuX;X/.N.g.M.(.1XaXsXsX#XP   g %   X               X   O h   h .XsXsXuX*XI.l.h.S._.*XwX&XD   w   .       dX",
"dX          4   8 -XsXeXaXsXsXwX$XP.j.g./.E.    a                               a     ~.Q.a.v./.,XuXsXsXaXtXsX%X    >         dX",
"dX      X X q   ^.sXqXtXrXwXeXuXsXsXuX1XP.    u   X                           X   y   j !.4XsXsXaXtXeXwXeXtXqXsXE.  e X       dX",
"      .   p   y.sXeXtXtXtXtXtXrXrXrXrXaXsX[   4 X                                 t   9.sXyXrXeXrXrXtXtXtXtXtXeXsX0.  p   .   dX",
"1 4     4   G 7XuXrXtXtXtXtXtXtXtXtXtXeXpX6.  e                                   a   C.sXwXtXtXtXtXtXtXtXtXtXeXpX3Xv   >       ",
"    0   u   I.sXwXtXtXtXtXtXtXtXtXtXtXeXsXD.  u   .                             + 6   }.sXeXtXtXtXtXtXtXtXtXtXtXwXsXF.  a   5 < ",
"o.$.  c   ^ eXyXrXtXtXtXtXtXtXtXtXtXtXeXsXXX  6   .                             6   B 4XiXrXtXtXtXtXtXtXtXtXtXtXrXyXqXT   j     ",
"5.8XA     J.sXwXtXtXtXtXtXtXtXtXtXtXtXrXuX8XL   <                               y   =.iXtXrXtXtXtXtXtXtXtXtXtXtXtXeXsXF.    _ [ ",
"&.sX>XR   3XiXrXtXtXtXtXtXtXtXtXtXtXtXtXeXsX9.  p                             . t   S.sXeXtXtXtXtXtXtXtXtXtXtXtXtXeXpX2X  I 7X4.",
"-.iXsX3X6.eXtXtXtXtXtXtXtXtXtXtXtXtXtXtXeXsX!.  t .                         X @ +   %XsXeXtXtXtXtXtXtXtXtXtXtXtXtXrXuX9X,.2XsX&.",
"O.pXuXrXx.qXyXtXtXtXtXtXtXtXtXtXtXtXtXtXrXiX4XZ   6                           6    .yXtXtXtXtXtXtXtXtXtXtXtXtXtXtXeXpX<Xn.sXiX+.",
"/ yXpXrXh.7XuXtXtXtXtXtXtXtXtXtXtXtXtXtXtXeXsXy.  u                       .   a   G.sXeXtXtXtXtXtXtXtXtXtXtXtXtXtXeXsX*Xn.sXrX! ",
"N 9XaXpXx.,XpXrXtXtXtXtXtXtXtXtXtXtXtXtXtXeXsX+X  4                         :   f 2XiXrXtXtXtXtXtXtXtXtXtXtXtXtXtXeXsX{.H.sX5Xi ",
"  -XsXsXA.XXsXeXtXtXtXtXtXtXtXtXtXtXtXtXtXtXeXaX3.  b 9 2 #             % , n   i.sXeXtXtXtXtXtXtXtXtXtXtXtXtXtXtXeXsXI./.sXOXdX",
"dXW.sXsX~.T.sXwXtXtXtXtXtXtXtXtXtXtXtXtXtXtXrXiX4Xm       : q y u u t 8 %     B 1XiXrXtXtXtXtXtXtXtXtXtXtXtXtXtXtXrXaXc.*XsXG.dX",
"dXe.sXpX*Xb.sXeXtXtXtXtXtXtXtXtXtXtXtXtXtXtXrXpX<Xt.v.( s                 k ) ,.rXyXrXtXtXtXtXtXtXtXtXtXtXtXtXtXtXuX7Xf.tXsX3.dX",
"dX~ uXpXwXd.0XuXrXtXtXtXtXtXtXtXtXtXtXtXtXtXrXsXy.&XsXqX1X@X'.~.E.W./.{.$X,XsX`.j.sXeXtXtXtXtXtXtXtXtXtXtXtXtXtXeXsX[.S.sXwXY dX",
"dX  %XsXaXC.XXsXeXtXtXtXtXtXtXtXtXtXtXtXtXwXsX~.V.sXqXyXiXaXsXsXsXsXsXsXaXiXrXsXb.(.sXwXtXtXtXtXtXtXtXtXtXtXtXtXeXsXx.#XsXoXdXdX",
"dXdXh.sXaX.XV.sXeXtXtXtXtXtXtXtXtXtXtXtXrXiX7X0.wXyXrXrXrXrXeXeXeXeXeXeXrXrXrXyXeX9.5XiXrXtXtXtXtXtXtXtXtXtXtXeXpX>Xf.pXsXd.dXdX",
"dXdXE rXpXrXu.7XuXtXtXtXtXtXtXtXtXtXtXtXeXsXz.[.sXeXtXtXtXtXtXtXtXtXtXtXtXtXtXeXsX.Xf.sXeXtXtXtXtXtXtXtXtXtXtXwXsXm.{.sXeXR dXdX",
"dXdXdX'.sXsXW.G.sX0XtXtXtXtXtXtXtXtXtXeXsX}.k.sXeXtXtXtXtXtXtXtXtXtXtXtXtXtXtXtXeXsXv._.sXeXtXtXtXtXtXtXtXrXqXsX#Xs.iXsX[.dXdXdX",
"dXdXdX&.aXtXyXu.,XsXrXwXrXtXtXtXtXtXrXuXqX8.8XiXrXtXtXtXtXtXtXtXtXtXtXtXtXtXtXtXrXuX0X9.0XuXrXtXtXtXtXrXwXtXsXeXw.<XpXpX>.dXdXdX",
"dXdXdX  %XsXsX'.P  XuXsXiXeXeXeXrXrXwXsXv._.sXeXtXtXtXtXtXtXtXtXtXtXtXtXtXtXtXtXtXwXsX_.M.sXqXrXeXeXrXiXsXyX XY F.sXaX1X  dXdXdX",
"dXdXdXdX:.iXsXZ.    O.R.5XaXsXaXiXrXsX{.j.sXeXtXtXtXtXtXtXtXtXtXtXtXtXtXtXtXtXtXtXtXrXsXs.$XsXiXsXsXpX2XU.o.    s.aXsXp.dXdXdXdX",
"dXdXdXdX  XXsXr.  k     M 4.P.#X5XrX6X0.8XiXrXtXtXtXtXtXtXtXtXtXtXtXtXtXtXtXtXtXtXtXeXaX-Xg.7X=X].C.;.k     s   $.sX2X  dXdXdXdX",
"dXdXdXdXdX] sXp.  s 6 y         S { l _.sXwXtXtXtXtXtXtXtXtXtXtXtXtXtXtXtXtXtXtXtXtXtXeXsX3.  q         y 9 e   +.sX<.dXdXdXdXdX",
"dXdXdXdXdXdX).S.  s     - u i o       S.sXwXtXtXtXtXtXtXtXtXtXtXtXtXtXtXtXtXtXtXtXtXeXaX-X:   o 7 a t %     q   9.{.  dXdXdXdXdX",
"dXdXdXdXdXdXQ d.  7   .       : 7 a   Z 6XuXrXtXtXtXtXtXtXtXtXtXtXtXtXtXtXtXtXtXtXtXeXsXp.  z ; @       .   -   ] R dXdXdXdXdXdX",
"dXdXdXdXdXdXdXe <   .               i   l.sXeXtXtXtXtXtXtXtXtXtXtXtXtXtXtXtXtXtXtXeXpX;X    +                 =   dXdXdXdXdXdXdX",
"dXdXdXdXdXdXdXdX  .                 ; @   @XsXeXtXtXtXtXtXtXtXtXtXtXtXtXtXtXtXtXtXeXsXw.  y   .                 dXdXdXdXdXdXdXdX",
"dXdXdXdXdXdXdXdX                      q   ( eXyXrXtXtXtXtXtXtXtXtXtXtXtXtXtXtXtXwXsX.X  3 $ X                 dXdXdXdXdXdXdXdXdX",
"dXdXdXdXdXdXdXdXdX                  X   a   r.sXrXrXtXtXtXtXtXtXtXtXtXtXtXtXtXeXuXwX~   q                     dXdXdXdXdXdXdXdXdX",
"dXdXdXdXdXdXdXdXdXdX                  X . u   G.sXwXrXtXtXtXtXtXtXtXtXtXtXrXwXtXsX8.  p   .                 dXdXdXdXdXdXdXdXdXdX",
"dXdXdXdXdXdXdXdXdXdXdX                    & <   !.sXuXrXeXwXwXwXwXwXwXeXrXtXsXaXu.  i   .               dXdXdXdXdXdXdXdXdXdXdXdX",
"dXdXdXdXdXdXdXdXdXdXdXdXdX                  5 r   A.wXpXsXsXsXsXsXsXsXsXsXyX#X|   g                   dXdXdXdXdXdXdXdXdXdXdXdXdX",
"dXdXdXdXdXdXdXdXdXdXdXdXdXdX        .   : d 3     5.z.z.V.H.I.T.T.U.K.S.n.f.n.;.    f w             dXdXdXdXdXdXdXdXdXdXdXdXdXdX",
"dXdXdXdXdXdXdXdXdXdXdXdXdXdXdXdX      &       ;.$XsXeX,X@X}.`.)./.).].oX-X7XsXsXU.C     &       dXdXdXdXdXdXdXdXdXdXdXdXdXdXdXdX",
"dXdXdXdXdXdXdXdXdXdXdXdXdXdXdXdXdX  *   Z a.@XaXpXqXrXiXaXsXsXsXsXsXsXsXiXyXwXeXsXqXW.$.  * dXdXdXdXdXdXdXdXdXdXdXdXdXdXdXdXdXdX",
"dXdXdXdXdXdXdXdXdXdXdXdXdXdXdXdXdXdXdX  W `.uXsXsXsXsXaXuXyXrXeXeXrXrXyXiXsXsXsXaXyXXX%.  dXdXdXdXdXdXdXdXdXdXdXdXdXdXdXdXdXdXdX",
"dXdXdXdXdXdXdXdXdXdXdXdXdXdXdXdXdXdXdXdXdXdX5 :.A..X3XeXuXaXsXsXaXsXsXiXrX4XOXH.4.V dXdXdXdXdXdXdXdXdXdXdXdXdXdXdXdXdXdXdXdXdXdX",
"dXdXdXdXdXdXdXdXdXdXdXdXdXdXdXdXdXdXdXdXdXdXdXdXdXdX  P ) o.*.;.;.:.#.{ U % dXdXdXdXdXdXdXdXdXdXdXdXdXdXdXdXdXdXdXdXdXdXdXdXdXdX"
};
