/* XPM */
static char *result[] = {
/* columns rows colors chars-per-pixel */
"64 64 179 2 ",
"   c #010100",
".  c #050A02",
"X  c #080D05",
"o  c #0C0C0C",
"O  c #0A1305",
"+  c #0E1906",
"@  c #101C07",
"#  c #10110F",
"$  c #121D0A",
"%  c #121212",
"&  c #151B11",
"*  c #1C1C1C",
"=  c #16240B",
"-  c #18260D",
";  c #19280F",
":  c #153700",
">  c #1F3C0B",
",  c #1D2A13",
"<  c #1D2518",
"1  c #213215",
"2  c #263419",
"3  c #263818",
"4  c #293D1B",
"5  c #232323",
"6  c #272827",
"7  c #2A2A2A",
"8  c #2B3A22",
"9  c #2E352A",
"0  c gray20",
"q  c #3A3B3A",
"w  c #1D4104",
"e  c #274513",
"r  c #2A4C13",
"t  c #2C431D",
"y  c #2E4D1C",
"u  c #2E5215",
"i  c #2F501B",
"p  c #305417",
"a  c #33531D",
"s  c #365A1D",
"d  c #395D1E",
"f  c #314422",
"g  c #354C22",
"h  c #354F2C",
"j  c #384E29",
"k  c #345423",
"l  c #3A5625",
"z  c #3B5D24",
"x  c #37532A",
"c  c #3B552C",
"v  c #3D5C2A",
"b  c #3F5634",
"n  c #3E5A32",
"m  c #3E6124",
"M  c #3F602A",
"N  c #415D2C",
"B  c #425D33",
"V  c #445E3A",
"C  c #426527",
"Z  c #446926",
"A  c #42642C",
"S  c #49662F",
"D  c #46692C",
"F  c #496C2E",
"G  c #4D722F",
"H  c #456432",
"J  c #496634",
"K  c #476931",
"L  c #4A6C34",
"P  c #466339",
"I  c #49653A",
"U  c #4D6C3A",
"Y  c #506D37",
"T  c #516E3C",
"R  c #4E7134",
"E  c #4F713A",
"W  c #517436",
"Q  c #557A37",
"!  c #52743B",
"~  c #58753F",
"^  c #56793C",
"/  c #597C3E",
"(  c #444444",
")  c gray30",
"_  c #4F554B",
"`  c #51554E",
"'  c #535353",
"]  c #5C5C5C",
"[  c #4B6542",
"{  c #4F6F40",
"}  c #526C43",
"|  c #557442",
" . c #597643",
".. c #577842",
"X. c #5A7C43",
"o. c #577448",
"O. c #58754A",
"+. c #5D7C4A",
"@. c #5F605F",
"#. c #5F7C50",
"$. c #607D46",
"%. c #617E4C",
"&. c #606C5B",
"*. c #607257",
"=. c #637E53",
"-. c #637459",
";. c #646464",
":. c #6B6B6A",
">. c #677461",
",. c #6F7A69",
"<. c #717271",
"1. c #7B7B7B",
"2. c #5B803D",
"3. c #5E8144",
"4. c #5F814A",
"5. c #618546",
"6. c #648946",
"7. c #62844B",
"8. c #66894C",
"9. c #698D4D",
"0. c #658552",
"q. c #688451",
"w. c #678951",
"e. c #6A8C52",
"r. c #6C8559",
"t. c #6C8C59",
"y. c #6D9154",
"u. c #6F905B",
"i. c #719556",
"p. c #72955A",
"a. c #76995C",
"s. c #799D5D",
"d. c #6C8061",
"f. c #708561",
"g. c #74836D",
"h. c #7B9E63",
"j. c #778072",
"k. c #788770",
"l. c #7C8677",
"z. c #7DA164",
"x. c #83A569",
"c. c #848484",
"v. c #868F82",
"b. c #8C8C8C",
"n. c #869082",
"m. c #8B9684",
"M. c #8F918E",
"N. c #90938F",
"B. c #919C8B",
"V. c #939492",
"C. c #969A94",
"Z. c #989D96",
"A. c #9C9C9C",
"S. c #9AA097",
"D. c #A1A69E",
"F. c #A2A99E",
"G. c #A4A5A4",
"H. c #A7A9A7",
"J. c #A8ADA5",
"K. c #ACACAC",
"L. c #AAB2A6",
"P. c #AFB1AE",
"I. c #B3B4B3",
"U. c #B6BBB3",
"Y. c #BBBBBB",
"T. c #BFC3BE",
"R. c #C3C4C3",
"E. c #CCCCCB",
"W. c #CFD0CF",
"Q. c #D3D3D3",
"!. c #DBDBDB",
"~. c #DFE0DF",
"^. c #E0E1DF",
"/. c #E3E3E3",
"(. c #E8E8E7",
"). c #ECECEC",
"_. c #F4F4F4",
"`. c #F7F8F7",
"'. c #FBFBFB",
/* pixels */
"M A z r M E z w.4.M M U M { ..k 6.2.3.3.M 8.3.3.2.3.3.3.2.6.6.6.m Q 3.W s m 3.m D 3.3.3.m D e.G m ..E ..R s M 3.3.w.5.2.3.4.M 2.",
"A z z K 0.3.k M U M { M | O...k M 2.3.M M 9.6.2.E 6.y.M m G 2.m 2.d p G 3.5.i.G m 3.G M ^ Q R 2.s E L ..3.M 4.e.0.8.8.8.0.M M M ",
"^ z > a R M M E 4.n M 3.h.M k { E M R M 2.M G 2.m 2.9.2.m 2.6.m s u p 2.3.2.3.M W W G M 3.3.m G 2.3.2.3.3.W 3.^ 2.E M M 3.M 3.i.",
"A v y K { M { { 3.| L E U R M M 3.E 3.2.M 2.M y.M 2.6.3.m 2.6.s m G 2.6.W M 2.3.e.G / R M 3.2.m M M G M M 3.e.2.p M 3.2.3.3.2.M ",
"g M v { o.U | M ! U A ! u L E M z 3.3.m M 3.^ 3.M m 2.2.m 2.3.m 8.6.^ ^ W ^ 9.8.3.D 3.W R y.8.R 2.M M M G 3.6.W 3.3.3.2.W 3.3.2.",
"I I y k M U M M ..A A 9.M 3.3.3.r M { M G 3.M F 2.m M M M 2.9.3.^ 3.R W 3.^ 3.3.m 3.3.G 3.y.W R 3.2.3.2.2.6.2.W M m 2.s.i.8.5.5.",
"P P n M 4.4.n M L X.w.E R e.i.W L 3.4.3.4.W m ..6.3.3.W 2.6.9.3.M 3.3.6.8.^ Q Q Z 8./ R 3./ F C R G 6.6.6.3.2.6.y.2.2.6.2.W 5.i.",
"x v n M O.o.k 4.w.X.3.D 9.G 2.2.M 0.8.L W E m ^ G 3.3.2.3.y.i.8.R M m ^ 3.R M 3.3.W R ..G Z / m G 2.8.6.6.2.p G 2.2.3.3.G 2.9.6.",
"I x { v P t.| ....E 9.S F G W F ! R E | E E L z k v g j 1 ; . O : 1 t n A z 7.3.X.6.R r W ! Q W 6.i.Q Z G Z Q 3.d 6.G 2.G y.2.m ",
"0.v n n E | n ..~ ! X.d F / Y Z 4.U z z M { j.I.<.& . . . .     . . . O O + B :.} ~ R G 8.^ W y.3.y.3.Q R m G G 2.2.m 2.y.2.2.G ",
"4.h x M U I k A ..X.L z W q.F d +.E H [ l.Q.~.!.1.q 7 .                 5 ) :.I.U.,.| ! 3.Q E y.G 2.^ 3.W G 3.G 2.3.2.G 9.m G m ",
"M n U M | w.E H K ..A K $.e.C C [ [ x.Y./.Q.Y.Y.E.R.K.A.b.( .   . * :.Z.K.!._.).E.Y.M.>.N W W 8.W G M W G Q 8.^ G 8.3.M M M G G ",
"{ { E M E t.+.A v E v ! X.X.A ! I Z./.R.Y.!.`.'.'.'.'.'.`.Q.I.0 1.E.(.'.'.'.'.'.'._.Q.G.N.} ^ 5.^ W F ^ ^ ^ 4.M ^ W m M 2.m m M ",
"4.E M M A L K H L ..K | ! N v -.I.(.I.R._.'.'.'.'.'.'.'.'.'.`.Y.!.'.'.'.'.'.'.'.'.'.'.).U.K.,...m G R 3.3.3.W p M W ^ M 2.m 3.Q ",
"w...M R E K L ..U 4.X.| ! l >.R.).R.!.'.'.'.'.`.`.'.'.'.'.'.'.R./.'.'.'.'.'.'.'.'.'.'.'.).T.Q.B.s M M ^ 3.E M m M 6.4.M ^ 3.5.^ ",
"R M M M ! U ! ..v | 7.O.+.*.R._.Y.(.'.'.'.`.'.`.'.'.`.'.'.'.'.Y./.'.'.'.'.`.`.'.'.'.'.'.'.(.Y.(.S...M R ^ M E ^ 3.3.s y.3.3.M ^ ",
"+.v n M { M L e.A e.^ F I P.(.Y.W.'.'.'.'.'.`.'.'.`.'.`.'.'.'.Y./.'.'.'.`.'.`.'.`.`.'.'.'.'./.I.W.&.P 4.R W ..k 3.3.M Q W M 2.2.",
"4.{ k k U { 8.E S 7.W Y 1.Y.M.:._.'.'.'.'.`.'.`.`.`.`.'.'.'.'.Y./.'.'.`.'.`.'.`.'.'.`.'.'.'.`.Y.[ 9 { 0.D D G s s 3.3.3.3.M R M ",
"4.o.i { | M 4...Y ..N z ` q # A.`.'.'.`.'.`.`.`.`.'.`.'.'.'.'.R./.'.'.'.`.'.`.'.`.'.'.`.'.'.'.Q.* . e v Z ! E m m 3./ M M M 3.8.",
"U n r +.{ M L E 9.7.d 3 .   # I.`.'.'.'.`.'.`.'.'.`.'.'.'.'.'.R./.'.'.'.'.`.'.`.'.`.`.'.'.'.'.!.( . o w R y.3.D m 3.W F 3.3.Q R ",
"v k r k M 4.L k q...e O     # Y.'.'.'.`.'.`.'.`.'.'.'.'.'.'.`.I.W.'.'.'.'.'.'.`.`.'.`.'.'.'.'.(.;.    = E 4.W W 3.3.3.2.6.3.M m ",
"n v k k n 3.M E W J = .     # Y.'.'.'.'.`.'.`.'.'.'.'.'.'./.M.' @.H._.'.'.'.'.'.'.`.'.`.'.'.'.(.<.    X t ! W 8.e.3.2.M M 2.3.6.",
"{ { M U 0.M M 0.L N + .     # H.'.'.'.'.'.'.'.'.'.'.'._.Y.' %     6 :.W.`.'.'.'.'.'.'.'.'.'.'./.;.      , | 4.3.2.M 3.3.M 8.8.3.",
"M w.n v u.U K m N t           <._.'.'.'.'.'.'.'.'.'.!.A.6             ( K.).'.'.'.'.'.'.'.'.'.!.q       O U 8.m 3.M 8.3.2.i.y.M ",
"{ 0.{ { n k M M ..1 .         @.G.K.E.(._.'.'.'.'.W.@.*                 6 <./.'.'.'.`.).!.Y.K.A.(       . t ..i.2.M R E 3.y.8.u ",
"0.O.M { M i L 4.U $ .       :./.`./.Y.K.G.T.!.).R.(                       . :.Q.(.E.I.G.I.E.(.'.R.)     . ; M w.W 8.Q Q y.8.M R ",
"4.4.{ { { ..w.3.c X       ' !.'.'.'.'.'.(.!.E.A.q                             @.Y.Q.!.`.'.'.'.'.'.I.7     + +.y.3.y.3.3.i.3.G y.",
"o.{ E { 4.u.0.k f X     5 H.`.'.'.'.'.'.'.'.'.K.o                             ' !.'.'.'.'.'.'.'.'.).1..   X n 3.3.M M 3.^ M ^ y.",
"| M M 4.0.4.M m 8 X     1.).'.'.'.'.'.'.'.'.'.E.(                             b.`.'.'.'.'.`.'.'.'.'.!.' . . 8 8.3.M M R M m ^ 3.",
"| n M n { { M { :.]   * R.'.'.'.`.'.`.'.'.'.'.).;.                            H.'.'.'.'.`.'.`.'.'.'.`.V.# # 8 t.E 2.E R 6.^ M W ",
"U 4.{ y M 3.M 4.H.R.( 1.).'.'.'.'.`.'.`.`.'.'.'.1..                         7 Y.'.'.'.`.'.`.`.'.'.'.'.Q.( :.g.E Q F R 3.8.3.W R ",
"{ M k k 4.n r | C.'.R.D.'.'.'.'.`.'.`.'.'.'.'.'.I.7                         ;.(.'.'.'.'.`.'.`.'.'.'.'.`.n.!.F.8.Q w m 8.R W 6.m ",
"J v N U } X.X.L V.'._.K.'.'.'.`.'.`.`.'.`.'.'.'.(.(                       . c.`.'.'.'.`.'.`.`.'.`.'.'._.K.'.V.5.W 3.z.3.M m 3.3.",
"o.H v J ! ! L v M.'._.G.'.'.'.'.`.`.'.`.'.'.'.'._.V..                     0 E.'.'.'.`.'.`.'.`.'.'.'.'./.P.'.N.^ E / 3.3.2.y.8.Q ",
"$.B l H o.! K A V.'._.G._.'.'.`.'.`.`.'.`.'.'.'.'.W.0                     :._.'.'.'.`.'.'.`.'.`.'.'.'.E.R.`.M.p / 3.m K W w.F s ",
"%.T H U O.! U ^ m.).`.I.~.'.'.`.`.'.'.`.'.`.'.'.'.`.A.0 .               o R.'.'.'.`.'.`.`.'.`.'.'.'.'.I.~.(.l.F 8.y.R R W ^ M G ",
"+.$.} ! | L K X.0.E.'.E.W.'.'.'.'.`.'.`.`.'.'.'.'._.Y.Y.G.A.V.c.c.b.A.G.A.Y.'.'.'.'.`.'.`.'.`.`.'.'._.H.).E.| E 3.3.M R 4.R 3.i.",
"I o.T J U J K +.A R.'.!.Y.`.'.'.`.'.`.'.'.`.'.'.`.I.Q.'.'.'._._.)._.`.'.`.P.W.'.'.'.'.`.'.`.'.'.'.'.Q.Y._.R.S F 2.M m R y.D 3.3.",
"A } H v } ^ E X.A v.)._.H.).'.'.`.`.`.`.`.'.'.'.!.I.'.'.'.'.'.'.'.'.'.'.'._.H.).'.'.'.`.`.'.'.'.'.'.Y.!.).B.X.6.3.3.G 4.e.^ 4.R ",
"T +.H l | 7.L U E } ^.'.R.Q.'.'.'.'.'.'.'.'.'._.V.(.'.'.'.'.'.'.'.'.'.'.'.'.Q.H.`.'.'.'.`.'.'.'.'./.H._./.=.S E 3.6.L 9.3.4.i.2.",
"r.%.N %.J ! l L 4.4.S.`.).G._.'.'.'.'.'.'.'.'.R.Q.'.'.'.`.'.'.`.'.`.'.`.'.'.`.Y.!.'.'.'.'.'.'.'.`.P./.`.F.3.R y.8.y.3.2.5.8.e.5.",
"J B k Y H U K X.E R d.(.'.R.A.~.`.'.'.'.'.'.Q.K.`.'.'.`.'.`.`.'.`.'.`.'.'.'.'.(.D._.'.'.'.'.`./.Z.H.`.).g.3.^ y.3.8.E 3.8.3.M m ",
"X.+.o.| U I U W 3.3...J.'.K.7 q A.R./.`.'._.P.(.'.'.'.'.`.`.'.`.'.`.'.`.`.'.'.'.E.E.'.`.Q.R.A.q 5 b._.P...{ 3...E 3.E 3.8.M 2.M ",
"O.%.q.T o.X.w.4.4...3.d.Q.I.6     5 ;.c.b.V.W.'.'.'.`.`.'.`.`.'.`.'.`.'.'.'.'.'.`.1.c.c.] &     # b.~.k.8.3.i.3.3.6.3.3.3.3.6.s.",
"Y T o.v ! ..w.| ..^ 9...T.R.0             q R.'.'.'.'.`.'.`.'.`.'.`.`.`.`.'.'.'.(.'             5 A.T.4.y.4.i.3.3.8.3.8.8.3.i.z.",
"o.O.X.v T ..X.A 3.4.y.3.4.1.*               1.).'.'.'.'.`.'.`.'.`.'.'.`.'.'.'.'.G.5             # _ O.3.y.3.^ W M W M 3.i.8.3.3.",
"U } o.L +.0.7.U ..4./ F Z y + .             7 R.'.'.'.'.'.`.'.`.'.`.`.'.'.'.'.!.]               ; E 4.M i.i.R 3.m R M 8.y.3.3.m ",
"N I T J | +.^ z R y.W 3.D ! t @               ( Q.'.'.'.'.`.`.'.`.'.'.'.'.'.`.G.#             @ v M E s i.z.R 8.^ i.y.y.y.3.3.M ",
"L 4.L ..R ! 4.3./ ^ 4.4.M U n n O             o <./.'.'.'.'.'.'.'.'.'.'.'.'.I.7           . + v 8.^ 4.4.p.~ W / ~ 6.Q ~ X.A F / ",
"L ..L ! ^ ..8.3.3.e.w.L M 4.+.{ N @ .           * M.(.'.'.'.'.'.'.'.'.'.`.Y.(           . , a W 3.M 4.3.X.W 5.5.F ~ s.N 5.: F Y ",
"..4.......^ R d / E E z E { U 4.N f 2             5 1.R.Q.Q.!.!.!.!.Q.E.G.0 .         O f T R W 3.m 4.6.Q ^ 5.E W 7.5.L ^ F / X.",
"k I K +.^ e...F L K R M 3.U n 0.Y ~ ~ N & X . 6 ( V.Q.!.R.Y.I.I.P.I.R.Q.!.Y.;.q % . - l 7.X.R ..R R y.9.~ / ^ F 9.y.s 8.Q x.9.e.",
"i M z +.M p.~ 7.E 4.w.K 0.4.O.4.~ $.S g g 1 < A.(.`.'.'.'.'.`.`.`.'.'.'.'.'.).R.` t ! / u.R K ..L e.a.7.X.X.S ~ 7.5.L 9.$.7.7.7.",
"+.O.M +.x 4.M ^ 3.^ | L 0.t.o.O.9.q.Y S T U } F.R.Q._.'.'.'.'.'.'.'.'.'._.Q.R.L.r.5.e./ 4.M M o.X.y.X.L 7.p.L X.$.~ X.t.e.Y $.X.",
"+.n U | E ..M E +.M M | 4.4.M 0.~ Y N  . .I  . .V -.v.Z.Z.V.N.b.N.N.V.V.m.f.F e.2.^ $.Y L M M +.4.X.M M ^ a.^ ..7.X.L y.X.7.7.~ ",
"o.x | o.u.| v M 3.3.4.0.{ 0.4.0.$.T A  .~ N o.O.U %. .h.i.^ ! 5.8.^ 3.W a.9.Q 9.F F W S L U n +.D L E ! N ~ ! 7.w.7.~ ^ S W 7.! ",
"c } =.I %.Y S N U W S T L ~  .7.~ Y %.=. . .=.Y K 0.t.R F 3.^ ^ ^ ^ ~ 6.5.F G 9./ 5.L 8.U g L #.M +.w.! X...L 4.p.X...X.L L ..| ",
"B V V U Y B Y 9.q.7.~ ~ S I v v T  .%.$.I T T N { { U M M M R e.9.$./ ^ F Z Q i.6./ $.Y l ! P #.4.7.4.+.w.X.L y.t. .| +.X.| X.W ",
"t c j T B B N %.$. .S Y B  .T  .J $.$.J N I I g +.o.| 4.e.3.3.i.~ ! X...C A / $.$.^ %.X.U 0.U +.X.7.X.A | 0...+.w.| ..7.7.+. .L ",
"t B B B j S B S ! T N S S  .Y T Y  .J g N T I N { +.{ 0.u.w.3...^ ! q.7.S G / W / $.F e.7.E | +.+.4.| M | e.4.+.7.! ! X.+.X.U L ",
"V P V f l B $.J ~ ~ Y q.$.q.~ T $.Y N N I U P H +.o.v U 0.3...W 4...+.E a C X.Y 6.7.A X.U K +.w.4.H H E +.! L 0.E U L U E E U | ",
"[ h n x V N  .T $.$.~ $. .q.q.r.=.Y N B | | P v 0.U i { w.L ^ 3.#.o...I N W 9.8.9.7.9.W M 7...u...L E | ..| E +.E E U U | X.X.0.",
"_ h b P V I T B ~ ~ Y Y N N S $.%.J B U I o.| n P P k 4.t.K R ^ O.0.4.0.q.p.x.a.9.9.i./ R e.X.e.X.0.u...E u.u.4.{ ..| E 0.0.4.0.",
"P [ P V 4 Y ~ S N ~ ~ q.Y T J  . .B S N v o.t.{ P 0.| 0.w.E 4.| o.O.o.| %.q.8.q.a.p.L 3.R L 7.y.| | +.L H 0.t.0.E X.U E w.w....."
};
