/* XPM */
static char *result[] = {
/* columns rows colors chars-per-pixel */
"64 64 250 2 ",
"   c #010000",
".  c #0A0407",
"X  c #180504",
"o  c #13140D",
"O  c #230000",
"+  c #2C0100",
"@  c #260B0A",
"#  c #3B0100",
"$  c #350601",
"%  c #2C150B",
"&  c #3C1C0B",
"*  c #371607",
"=  c #291B12",
"-  c #311D10",
";  c #3B2209",
":  c #2D2116",
">  c #352314",
",  c #392617",
"<  c #3E352A",
"1  c #003D20",
"2  c #440200",
"3  c #570100",
"4  c #451A04",
"5  c #481A07",
"6  c #551C02",
"7  c #401F11",
"8  c #640100",
"9  c #711F00",
"0  c #45220C",
"q  c #492709",
"w  c #5C2303",
"e  c #52230A",
"r  c #582A06",
"t  c #5A3404",
"y  c #462A15",
"u  c #592E15",
"i  c #49341C",
"p  c #593616",
"a  c #4D320D",
"s  c #662906",
"d  c #68350A",
"f  c #773807",
"g  c #643B14",
"h  c #663816",
"j  c #723C13",
"k  c #793D13",
"l  c #772800",
"z  c #4C3923",
"x  c #573C23",
"c  c #43372C",
"v  c #663D24",
"b  c #015838",
"n  c #0E4A2A",
"m  c #2E5030",
"M  c #11603E",
"N  c #36633F",
"B  c #794508",
"V  c #6D4314",
"C  c #6C431B",
"Z  c #6B461A",
"A  c #73451A",
"S  c #794718",
"D  c #73500B",
"F  c #594527",
"G  c #505035",
"H  c #684927",
"J  c #764D24",
"K  c #785529",
"L  c #654B31",
"P  c #685435",
"I  c #795A36",
"U  c #70522B",
"Y  c #57663D",
"T  c #76613B",
"R  c #6E6A3A",
"E  c #5E4000",
"W  c #016A4A",
"Q  c #00714E",
"!  c #007354",
"~  c #007B5C",
"^  c #027857",
"/  c #146D4C",
"(  c #326C49",
")  c #685946",
"_  c #507650",
"`  c #757048",
"'  c #444D46",
"]  c #853C05",
"[  c #884707",
"{  c #934B01",
"}  c #965607",
"|  c #874A17",
" . c #89551A",
".. c #935213",
"X. c #95571C",
"o. c #8D540A",
"O. c #AB5B09",
"+. c #93620D",
"@. c #A76A03",
"#. c #B76402",
"$. c #A6641B",
"%. c #B77015",
"&. c #8C5B24",
"*. c #8B5D2B",
"=. c #855726",
"-. c #955C24",
";. c #875C33",
":. c #854D21",
">. c #8D612A",
",. c #9C6225",
"<. c #94632C",
"1. c #9B642B",
"2. c #9C6A2D",
"3. c #956728",
"4. c #8B6637",
"5. c #9B6B33",
"6. c #926C3C",
"7. c #9A6E39",
"8. c #946733",
"9. c #89723B",
"0. c #9D743D",
"q. c #9C7437",
"w. c #99742E",
"e. c #A96B27",
"r. c #A87228",
"t. c #B57529",
"y. c #A56D33",
"u. c #A37335",
"i. c #AB7534",
"p. c #AB7B3C",
"a. c #A6793A",
"s. c #B67C36",
"d. c #B36F24",
"f. c #A15D26",
"g. c #C47918",
"h. c #C37D2A",
"j. c #866B47",
"k. c #956E44",
"l. c #9B7747",
"z. c #867356",
"x. c #987B57",
"c. c #896F4C",
"v. c #A47B43",
"b. c #AC7D42",
"n. c #A57C4C",
"m. c #A47D53",
"M. c #B47E45",
"N. c #9A7D62",
"B. c #008B6B",
"V. c #028566",
"C. c #009376",
"Z. c #0A8A6A",
"A. c #3A9577",
"S. c #2E9070",
"D. c #698259",
"F. c #479B7B",
"G. c #688D6A",
"H. c #B78338",
"J. c #B58631",
"K. c #D48804",
"L. c #CA8A37",
"P. c #D49231",
"I. c #E19E31",
"U. c #E9A73B",
"Y. c #F2AC3B",
"T. c #9B8859",
"R. c #988A54",
"E. c #AB844C",
"W. c #A98346",
"Q. c #B38545",
"!. c #B78848",
"~. c #BC914E",
"^. c #A98758",
"/. c #B28857",
"(. c #B3905C",
"). c #BB945B",
"_. c #BC9557",
"`. c #A8905A",
"'. c #968765",
"]. c #999567",
"[. c #8B946F",
"{. c #A58B68",
"}. c #AC9367",
"|. c #B99866",
" X c #AA9A76",
".X c #B79C74",
"XX c #B28C65",
"oX c #BAA376",
"OX c #BBA36D",
"+X c #99A67B",
"@X c #C58C46",
"#X c #CA954A",
"$X c #D69C48",
"%X c #C69959",
"&X c #C9A15C",
"*X c #DAA24D",
"=X c #E8A947",
"-X c #EBB35D",
";X c #EDAD49",
":X c #C29E67",
">X c #C8A367",
",X c #D3A969",
"<X c #CCAC7B",
"1X c #C7A777",
"2X c #D2AC74",
"3X c #D2AA74",
"4X c #D7B279",
"5X c #D5B171",
"6X c #E6B367",
"7X c #ECB462",
"8X c #399D82",
"9X c #0DA388",
"0X c #53AB92",
"qX c #91A991",
"wX c #B7A886",
"eX c #B7B08F",
"rX c #9CAA97",
"tX c #C5AB85",
"yX c #CAB388",
"uX c #D6B989",
"iX c #C8B898",
"pX c #D9BD94",
"aX c #C2AF91",
"sX c #E1B985",
"dX c #CBBDA4",
"fX c #DAC39A",
"gX c #DCC08B",
"hX c #E6C896",
"jX c #F4D399",
"kX c #F0CA8B",
"lX c #CBC4A5",
"zX c #D9C9A7",
"xX c #D3CBB8",
"cX c #E3CCA7",
"vX c #EBD5AB",
"bX c #F4D8AA",
"nX c #E9D7B4",
"mX c #F3DDB3",
"MX c #F6E2B6",
"NX c #DDDBC7",
"BX c #E4DBC4",
"VX c #E3DED0",
"CX c #F5E7C7",
"ZX c #F6EDD6",
"AX c #FBF3D9",
"SX c #EBE5D0",
"DX c #F8F7E8",
"FX c #FFFFFC",
"GX c #EFEEE2",
"HX c None",
/* pixels */
"HXHXHXHXHXHXHXHXHXHXHXHXHXHXHXHXHXHXHXHXHXHXHXHXHX.Xu./.^.T.{.T.v.m.5.k.E.|.HXHXHXHXHXHXHXHXHXHXHXHXHXHXHXHXHXHXHXHXHXHXHXHXHXHX",
"HXHXHXHXHXHXHXHXHXHXHXHXHXHXHXHXHXHXHXHX4.U I 4.P '.H H z : > : , x ; - y , I (..Xx.l.HXHXHXHXHXHXHXHXHXHXHXHXHXHXHXHXHXHXHXHXHX",
"HXHXHXHXHXHXHXHXHXHXHXHXHXHXHXHXHXHX4.T F : = . X   > , i x F F z , , = = K o.3.^.XXn.p.).k.HXHXHXHXHXHXHXHXHXHXHXHXHXHXHXHXHXHX",
"HXHXHXHXHXHXHXHXHXHXHXHXHXHXHXHXB 6.F > > , i i z F F F z F F F x i z < L l.x.j.6.8.m.B 7.M.-.k HXHXHXHXHXHXHXHXHXHXHXHXHXHXHXHX",
"HXHXHXHXHXHXHXHXHXHXHXHXHXHXu.v.aXk.; F i i < < q a F P ` R U T L H z q * P eXfX>X8.W.;.s S y.y.:.HXHXHXHXHXHXHXHXHXHXHXHXHXHXHX",
"HXHXHXHXHXHXHXHXHXHXHXHXHXK B  X.X+ x ; a 4 r D j.z.U D 9.9.R.T.R R c.'. XoX`.).>X<X^.5.S k k 8.-.X.h HXHXHXHXHXHXHXHXHXHXHXHXHX",
"HXHXHXHXHXHXHXHXHXHXHXHX*.x   ) ;   % '.oX XzXGXDXDXVXxXeXiXzXlX}.+. XBXnXuX<X|.yX(.|.v.S h j | :.-.] u HXHXHXHXHXHXHXHXHXHXHXHX",
"HXHXHXHXHXHXHXHXHXHXHXp 0 , K   : p T T.c.].iXiXwX XxXSXFXFXFXFXGXxXoXlXZXiX X}.`._.>X!.<.| :.s k k ] j u HXHXHXHXHXHXHXHXHXHXHX",
"HXHXHXHXHXHXHXHXHXHXc eX+ ' XXm.J y : X X # t r E 9.}.w.wXNXSXBXxXlXxXnXBXoX|.).(.E.0.&.&.| :.d j ] k k s HXHXHXHXHXHXHXHXHXHXHX",
"HXHXHXHXHXHXHXHXHXHXG  X.   i M.| A y : . = L Z oXc.E T I q.w.D +.9. XgX1X>X6.0.E.&.*.2.-.-.:.j k :.k f s 0 HXHXHXHXHXHXHXHXHXHX",
"HXHXHXHXHXHXHXHXHXHXP |.$ h A f r 8.U   F 4.k.0.tXwX; L R U }.4.yXfXtXuX X!.q.6.l.>.*.&.-.X.] ] ] -.y.*.6 7 HXHXHXHXHXHXHXHXHXHX",
"HXHXHXHXHXHXHXHXHXHXe L :.j 6 j | { 8.X !.b.5.4.6.yX1Xk.oXO }.tXoXOX^.|.V |.b.<.K A | { g.P.3Xx.9 9 s k e q HXHXHXHXHXHXHXHXHXHX",
"HXHXHXHXHXHXHXHXHXHXo   d s :.b.tXsX$XL.3X%Xi.u.(.fX5Xl.OX}..X}.6.k.W.v.v.^.J <.S | t.P.6XjX:Xd k.&.3 5 $ C HXHXHXHXHXHXHXHXHXHX",
"HXHXHXHXHXHXHXHXHXHX% p u 2 wXcX6X<X:X=X@Xs.y.!.>X<X1XH.).gXXXl.{.^.6.S J H e [ f n.M.@XXXXXh.3XiXl h 7 & X HXHXHXHXHXHXHXHXHXHX",
"HXHXHXHXHXHXHXHXHXHXu f + 7 2 pXbX@X| L.$Xh.-.y.W.(.(.k.{.}.l.|.c.G y x.z.*.k.N.<.e...d.#./.Q.&XL X U % e - HXHXHXHXHXHXHXHXHXHX",
"HXHXHXHXHXHXHXHXHXHXHXz.z.X   < aX%XI { L.L.e...&.8.7.w.g >.>.A + * & L 4 k.x.) h -.@XL...h v &   o . $ 0 y HXHXHXHXHXHXHXHXHXHX",
"HXHXHXHXHXHXHXHXHXHXHX' ` O < x   ` u.K t.L.h.f.| ..| -.J H S >.N.N.j.K j x.K l m.M.L.d.=.d y   . @ 5 5 7 HXHXHXHXHXHXHXHXHXHXHX",
"HXHXHXHXHXHXHXHXHXHXHXHX+ 0 - c o   ;.p.1.h.h.%.f.:.*.S K =.d K ;.J k.H C ;.l.8.f.%.O.p.v.S o . - 6 w % HXHXHXHXHXHXHXHXHXHXHXHX",
"HXHXHXHXHXHXHXHXHXHXHXHXHXy u X -   p Q.4.d.h.%.$.O...f.-.e.2X%Xe.&.:.*.-.-.s.O.$.O.1.l.S h 5 s s w HXHXHXHXHXHXHXHXHXHXHXHXHXHX",
"HXHXHXHXHXHXHXHXHXHXHXHXHXo p s 4 * X x.M.1.L.g.g.#.O.#.#.K.;XY.=XK.#.#.#.h.U.#Xd.$.7.j V y + 6 e HXHXHXHXHXHXHXHXHXHXHXHXHXHXHX",
"HXHXHXHXHXHXHXHXHXHXHXHXHX- i y 7 5 7 O :.B ^.=XU.I.$X,X-X7XbXhX-X=XsXpX6X=X$X#XL.1.d A p   o o > - , y HXHXHXHXHXHXHXHXHXHXHXHX",
"HXHXHXHXHXHXHXHXHXHXHXHXHXk &.J S f w @ > Z U -X;X;XjXZX6X@XCXcX%XjXjXAXjX=XU.U.v.7 u 0 . d 4 4 * * * 7 HXHXHXHXHXHXHXHXHXHXHXHX",
"HXHXHXHXHXHXHXHXHXHXHXHXHXu d k ] X.] w   5.(.%X7X;XhXbX-X#XyXkX4XjXbXZXCXkX7X<XI H @ $ l.g . A & $ 7 5 HXHXHXHXHXHXHXHXHXHXHXHX",
"HXHXHXHXHXHXHXHXHXHXHXHXHXHXHXk.M.9 | X.*.;.p.<X*XP.I.=Xh.1XGXtXL.L.6XkXkXjXmX X .u 6 ~.a.y @ p 7 5 6 HXHXHXHXHXHXHXHXHXHXHXHXHX",
"HXHXHXHXHXHXHXHXHXHXHXHXHXHXHXHX/.M.| X.i.5.i.3X@X*XK.jX$Xp.N.K $.P.K.,X7XfX{.} I 8 3X3X6 = p y 5 e HXHXHXHXHXHXHXHXHXHXHXHXHXHX",
"HXHXHXHXHXHXHXHXHXHXHXHXHXHXHXHXHX/.] f.d.i.!.:XhXSXjXMXkX{ t V g.I.jX6X3Xn.{.{.8 Q.4XP O - K u HXHXHXHXHXHXHXHXHXHXHXHXHXHXHXHX",
"HXHXHXHXHXHXHXHXHXHXHXHXHXHXHXHXHXHXj | e.!.y.Q.hXCXZXDXCX@.W.%.5XCXAXvX:XtXwX3 p.hX` + - p C HXHXHXHXHXHXHXHXHXHXHXHXHXHXHXHXHX",
"HXHXHXHXHXHXHXHXHXHXHXHXHXHXHXHXHXHXHXHX..y.-.e.%XcXgXcXSXzX<XcXCXCXAXvXyXk.8 M.jXN.# h * & $ HXHXHXHXHXHXHXHXHXHXHXHXHXHXHXHXHX",
"HXHXHXHXHXHXHXHXHXHXHXHXHXHXHXHXHXHXHXHXHX2.5.n.|.:X5X>X5XuXvXnXhX3XuX|.8.3 /.uXj.  & A =.HXHXHXHXHXHXHXHXHXHXHXHXHXHXHXHXHXHXHX",
"HXHXHXHXHXHXHXHXHXHXHXHXHXHXHXHXHXHXHXHXHXHX&.x 7.(.|.Q.(.%X|.!.a.v.2.d 2 f 3Xj.. y p 4.C HXHXHXHXHXHXHXHXHXHXHXHXHXHXHXHXHXHXHX",
"HXHXHXHXHXHXHXHXHXHXHXHXHXHXHXHXHXHXHXHXHXHXS h -.2..XzXiX.X~.1XwX>.4.5 s >Xk.. p y V J 4 HXHXHXHXHXHXHXHXHXHXHXHXHXHXHXHXHXHXHX",
"HXHXHXHXHXHXHXHXHXHXHXHXHXHXHXHXHXHXHXHXHXHXHXk <.u.E..X1XpXyX2XoXE.` 2 6.l.* Z A 8.K w U c.HXHXHXHXHXHXHXHXHXHXHXHXHXHXHXHXHXHX",
"HXHXHXHXHXHXHXHXHXHXHXHXHXHXHXHXHXHXHXHXHXHXHXu 5.i.p.|.oXyXfXxX|.4.x h i   g J S >.A 4 U 4.HXHXHXHXHXHXHXHXHXHXHXHXHXHXHXHXHXHX",
"HXHXHXHXHXHXHXHXHXHXHXHXHXHXHXHXHXHXHXHXHXHXHXs >.u.q.oX|.zX<XoX).K # g g p J K >. .Z H t 0 HXHXHXHXHXHXHXHXHXHXHXHXHXHXHXHXHXHX",
"HXHXHXHXHXHXHXHXHXHXHXHXHXHXHXHXHXHXHXHXHXHX*.s a.} ^.&XOXzXtXJ.q.=.p 4 4.v.V a.W.K g V j a HXHXHXHXHXHXHXHXHXHXHXHXHXHXHXHXHXHX",
"HXHXHXHXHXHXHXHXHXHXHXHXHXHXHXHXHXHXHXHXHX$X .4 5...5..X.XH.3.3.>.Z 7 2 ).`.B Q.9.=.=.d p 0 HXHXHXHXHXHXHXHXHXHXHXHXHXHXHXHXHXHX",
"HXHXHXHXHXHXHXHXHXHXHXHXHXHXHXHXHXHXHXHXHX@X6.s Q.5.>.(.zXaXE.q.8.H O e b.J >.w.>.K >.p 0 4 HXHXHXHXHXHXHXHXHXHXHXHXHXHXHXHXHXHX",
"HXHXHXHXHXHXHXHXHXHXHXHXHXHXHXHXHXHXHXHXHX1.;.w 0.&.W.W.W.(.W.~.~.c.X =.3.r >.>.q.(.V 0 & 5 HXHXHXHXHXHXHXHXHXHXHXHXHXHXHXHXHXHX",
"HXHXHXHXHXHXHXHXHXHXHXHXHXHXHXHXHXHXHXHXHXS  .V B 8._.Q.[ 3.H.&X).V # 5.Q.L S [ ).x.t @ e e HXHXHXHXHXHXHXHXHXHXHXHXHXHXHXHXHXHX",
"HXHXHXHXHXHXHXHXHXHXHXHXHXHXHXHXHXHXHXHXHXS d =.[ E.Q.i.>.9.|.2X|.p 6 2.l.F t ..0.;.K # e HXHXHXHXHXHXHXHXHXHXHXHXHXHXHXHXHXHXHX",
"HXHXHXHXHXHXHXHXHXHXHXHXHXHXHXHXHXHXHXHXHXHXA B l._.a.H...W.&X&X6.  g &.L u  .i.l ; 0 r HXHXHXHXHXHXHXHXHXHXHXHXHXHXHXHXHXHXHXHX",
"HXHXHXHXHXHXHXHXHXHXHXHXHXHXHXHXHXHXHXHXHXHXS J E.H.t.e. .!.Q.W.K .  .&.# h  .!.^.O j u HXHXHXHXHXHXHXHXHXHXHXHXHXHXHXHXHXHXHXHX",
"HXHXHXHXHXHXHXHXHXHXHXHXHXHXHXHXHXHXHXHXHX* S n.a.{ i...4.E.0.T 4 * S p O 7.4.,.4.O 0 HXHXHXHXHXHXHXHXHXHXHXHXHXHXHXHXHXHXHXHXHX",
"HXHXHXHXHXHXHXHXHXHXHXHXHXHXHXHXHXHXHXHXHX2 ;.).X.b.u.0.a.E.l.p 4 j K 6 s E.q 4.K r 0 HXHXHXHXHXHXHXHXHXHXHXHXHXHXHXHXHXHXHXHXHX",
"HXHXHXHXHXHXHXHXHXHXHXHXHXHXHXHXHXHXHXHXHXq b.a.&.Q.&.U 6.W.V w 6 A J S =.v.I l f j ] u HXHXHXHXHXHXHXHXHXHXHXHXHXHXHXHXHXHXHXHX",
"HXHXHXHXHXHXHXHXHXHXHXHXHXHXHXHXHXHXHXHXHXS 1.q.1.o.6 + a.!.e.X.V 3 e.4.4..X .yXx.f e.S HXHXHXHXHXHXHXHXHXHXHXHXHXHXHXHXHXHXHXHX",
"HXHXHXHXHXHXHXHXHXHXHXHXHXHXHXHXHXHXHXHXHXS 2.y...d g i.H.r.+.J 4.a.|.^.<.[ 1XZXK s e.S HXHXHXHXHXHXHXHXHXHXHXHXHXHXHXHXHXHXHXHX",
"HXHXHXHXHXHXHXHXHXHXHXHXHXHXHXHXHXHXHXHXHXe  .e.3.Z u.J.>X<X{.U (.%X).n.s.J.nXxX  v $. .HXHXHXHXHXHXHXHXHXHXHXHXHXHXHXHXHXHXHXHX",
"HXHXHXHXHXHXHXHXHXHXHXHXHXHXHXHXHXHXHXHXHX& S X.5.5.u.e.w.^.}.J.%X|.r.!.5XAXxX6 2 { f. .HXHXHXHXHXHXHXHXHXHXHXHXHXHXHXHXHXHXHXHX",
"HXHXHXHXHXHXHXHXHXHXHXHXHXHXHXHXHXHXHXHXHXj s X...[ X.s.H.H.).fXOXJ.3X&XCXVXr 3 XXyX} ;.HXHXHXHXHXHXHXHXHXHXHXHXHXHXHXHXHXHXHXHX",
"HXHXHXHXHXHXHXHXHXHXHXHXHXHXHXHXHXHXHXHXHX} e.d.t.r.~.>X5XfXAXZXuXhXMXCXBX4.o.@.hXdX@.4.HXHXHXHXHXHXHXHXHXHXHXHXHXHXHXHXHXHXHXHX",
"HXHXHXHXHXHXHXHXHXHXHXHXHXHXHXHXHXHXHXHX/.%Xe.8.~.&X4X4XgXBXGXgXCXCXnXiX/.1X/.&XH.y.b. .$.t.HXHXHXHXHXHXHXHXHXHXHXHXHXHXHXHXHXHX",
"HXHXHXHXHXHXHXHXHXHXHXHXHXHXHXHXHXHXHXc.W.4.i.s.>X&X~.gXAXFXmXvXCXZXpXQ.hXhXs._.Q.r.r.<.3.9.N HXHXHXHXHXHXHXHXHXHXHXHXHXHXHXHXHX",
"HXHXHXHXHXHXHXHXHXHXHXHXHXHXHXHXHXHXm ^ M G D.D.` ].`.eXlXlXNXGXGXNXyXxXeXwXR.` R ` ( ( W W b n HXHXHXHXHXHXHXHXHXHXHXHXHXHXHXHX",
"HXHXHXHXHXHXHXHXHXHXHXHXHXHXHXHXHXHXn b b ! Q B.C.B.C.B.B.C.9X8XF.B.B.V.^ ^ ^ ~ ~ ~ ! ^ / M m , HXHXHXHXHXHXHXHXHXHXHXHXHXHXHXHX",
"HXHXHXHXHXHXHXHXHXHXHXHXHXHXHXHXHX  4.v.9.Y / n D.S.A.S.S.F.S.S.8XA.F.F.A.G.G.D.` ` T m o X $ V e HXHXHXHXHXHXHXHXHXHXHXHXHXHXHX",
"HXHXHXHXHXHXHXHXHXHXHXHXHXHXHXHX .<.H.J.%XJ 5.H.vXfX+.nXnX`.OXfXzXBXDXdX@.W.zXuX>X<X,X`.  - a S j g HXHXHXHXHXHXHXHXHXHXHXHXHXHX",
"HXHXHXHXHXHXHXHXHXHXHXHXHXHXHX3.$.b.>X5XQ.%X%XkXvX1X&XCXCX>XfXnXCXAXnXT.:X|.R.<XgX>X>X,XW.1.X.>.# 5 F HXHXHXHXHXHXHXHXHXHXHXHXHX",
"HXHXHXHXHXHXHXHXHXHXHXHXHXHXN Y K w.`.|.%X@X3XfXr.W.<XfXAXuXzXCXAXZXfXuXCXpXbXyXbXR. .c.%XW.>.P G m b m HXHXHXHXHXHXHXHXHXHXHXHX",
"HXHXHXHXHXHXHXHXHXHXHXHXHXHXm b 1 N ( ` ` _  X[.[.oX XR.fXyXlXfXDXNX}.eXiXdXT.[.wX[.G.` ( ( ! b Q b n / m HXHXHXHXHXHXHXHXHXHXHX",
"HXHXHXHXHXHXHXHXHXHXHXHXHXx n 1 ^ B.! Q b ! W Q V.Q / ^ ^ Z.Z.0X0XS.Z.V.B.V.! ^ ^ V.B.^ Q ^ V.b b b m G =.HXHXHXHXHXHXHXHXHXHXHX",
"HXHXHXHXHXHXHXHXHXHXHXHXHX| | B _ _ ( W V.~ Q ^ Q ! ! ^ ^ ! Z.B.9XZ.Q V.C.V.~ Q B.V.C.Q M ( _ P U S B f HXHXHXHXHXHXHXHXHXHXHXHX",
"HXHXHXHXHXHXHXHXHXHXHXHXHXHX[ [ { } ,.e.a.W.`.E.R.{.].+XqXqXqXqXqXqXqXqXqX+X].T.R.`.W.q.,.X.[ [ [ HXHXHXHXHXHXHXHXHXHXHXHXHXHXHX",
"HXHXHXHXHXHXHXHXHXHXHXHXHXHXHXHXHXHXHXHX$.t.H.H.#X%X,X4XfXfXcXvXnXBXvXhXuX,X%X%X~.t.HXHXHXHXHXHXHXHXHXHXHXHXHXHXHXHXHXHXHXHXHXHX"
};
