/* XPM */
static char *result[] = {
/* columns rows colors chars-per-pixel */
"64 64 256 2 ",
"   c #010000",
".  c #090607",
"X  c #180704",
"o  c #11140B",
"O  c #260403",
"+  c #380301",
"@  c #2B170B",
"#  c #391908",
"$  c #2A1C13",
"%  c #311F11",
"&  c #133C0D",
"*  c #3C2109",
"=  c #2D2116",
"-  c #372616",
";  c #393D1F",
":  c #293827",
">  c #4C0402",
",  c #471A06",
"<  c #551C01",
"1  c #640100",
"2  c #711F00",
"3  c #48250B",
"4  c #582706",
"5  c #58310D",
"6  c #462B15",
"7  c #48361A",
"8  c #583616",
"9  c #662906",
"0  c #772A02",
"q  c #68350A",
"w  c #773807",
"e  c #653916",
"r  c #753C13",
"t  c #4C3923",
"y  c #523A23",
"u  c #663E25",
"i  c #1D4104",
"p  c #2B4A19",
"a  c #34451B",
"s  c #2E5116",
"d  c #33531D",
"f  c #365A1C",
"g  c #0C4C2B",
"h  c #045938",
"j  c #2E4D2A",
"k  c #345423",
"l  c #3B5D24",
"z  c #395528",
"x  c #3D5C2B",
"c  c #3B5A33",
"v  c #12603E",
"b  c #3E6226",
"n  c #3F602A",
"m  c #37643E",
"M  c #4E4415",
"N  c #79450A",
"B  c #72510D",
"V  c #6C4315",
"C  c #6C431B",
"Z  c #73451A",
"A  c #784818",
"S  c #4E4E2E",
"D  c #594627",
"F  c #455B29",
"G  c #585A2A",
"H  c #445C36",
"J  c #684927",
"K  c #754D24",
"L  c #675829",
"P  c #785629",
"I  c #654C31",
"U  c #7A4E30",
"Y  c #685435",
"T  c #795A36",
"R  c #436428",
"E  c #42642B",
"W  c #456A2C",
"Q  c #496C2E",
"!  c #59652D",
"~  c #4A702F",
"^  c #456432",
"/  c #4A6534",
"(  c #486636",
")  c #4B6C34",
"_  c #4C6C3A",
"`  c #566836",
"'  c #526E3C",
"]  c #4E7134",
"[  c #4F713A",
"{  c #517436",
"}  c #53743B",
"|  c #5B743D",
" . c #557A3C",
".. c #597C3E",
"X. c #6F6B35",
"o. c #76663A",
"O. c #036A4A",
"+. c #0F6E4D",
"@. c #017354",
"#. c #027857",
"$. c #027B5C",
"%. c #326C49",
"&. c #685946",
"*. c #557542",
"=. c #597643",
"-. c #577842",
";. c #5A7C43",
":. c #507048",
">. c #567549",
",. c #5C7C4A",
"<. c #776B49",
"1. c #637B48",
"2. c #797545",
"3. c #863C03",
"4. c #864806",
"5. c #905106",
"6. c #965607",
"7. c #874A17",
"8. c #88551A",
"9. c #945618",
"0. c #AB5B09",
"q. c #986015",
"w. c #AF690F",
"e. c #804C22",
"r. c #855726",
"t. c #8C5B24",
"y. c #8B5D2B",
"u. c #955C24",
"i. c #875C33",
"p. c #8C632A",
"a. c #94632C",
"s. c #9A6629",
"d. c #99742E",
"f. c #8A6637",
"g. c #9B6B33",
"h. c #956A38",
"j. c #89723C",
"k. c #987537",
"l. c #9D743D",
"z. c #A96B27",
"x. c #AA6E2E",
"c. c #A87229",
"v. c #B67529",
"b. c #A87838",
"n. c #B67C36",
"m. c #C47918",
"M. c #C37D2A",
"N. c #866A46",
"B. c #956E44",
"V. c #9A7747",
"C. c #877252",
"Z. c #987B57",
"A. c #A47C47",
"S. c #AC7D42",
"D. c #AA7D4D",
"F. c #9A7D62",
"G. c #59803F",
"H. c #038969",
"J. c #0B8A6A",
"K. c #009376",
"L. c #339273",
"P. c #5D8144",
"I. c #5F814A",
"U. c #618446",
"Y. c #618847",
"T. c #62844B",
"R. c #668A4C",
"E. c #698D4D",
"W. c #738949",
"Q. c #658552",
"!. c #6A8C52",
"~. c #6A8956",
"^. c #6D9154",
"/. c #739759",
"(. c #72945A",
"). c #479B7B",
"_. c #729765",
"`. c #7DA162",
"'. c #B58631",
"]. c #B68438",
"[. c #D48804",
"{. c #CA8A37",
"}. c #D49231",
"|. c #E19E31",
" X c #EBA83B",
".X c #9A8757",
"XX c #938A51",
"oX c #A88346",
"OX c #AC854C",
"+X c #B58747",
"@X c #A98758",
"#X c #B28957",
"$X c #B29151",
"%X c #B9945A",
"&X c #968864",
"*X c #92946B",
"=X c #A58B68",
"-X c #B28C65",
";X c #AC9367",
":X c #B99866",
">X c #AA9A76",
",X c #B89D74",
"<X c #8EA672",
"1X c #BBA36D",
"2X c #BAA376",
"3X c #C58C46",
"4X c #CD9748",
"5X c #D69C48",
"6X c #C59959",
"7X c #D3A154",
"8X c #E8A947",
"9X c #ECB054",
"0X c #C39E66",
"qX c #C8A367",
"wX c #D4A969",
"eX c #C7A777",
"rX c #CCAC7B",
"tX c #D2AC74",
"yX c #D5B171",
"uX c #D6B279",
"iX c #E6B367",
"pX c #ECB462",
"aX c #23A085",
"sX c #53AB92",
"dX c #91A991",
"fX c #9CAA97",
"gX c #B7A886",
"hX c #B7B08F",
"jX c #CAB388",
"kX c #CDB48D",
"lX c #D6B989",
"zX c #D9BA8F",
"xX c #C8B898",
"cX c #DBC08C",
"vX c #D9C39A",
"bX c #F0CA8B",
"nX c #E6C896",
"mX c #F4D399",
"MX c #D9C9A7",
"NX c #D1C9B2",
"BX c #E2CCA7",
"VX c #EAD4AB",
"CX c #F4D8AA",
"ZX c #E8D7B4",
"AX c #F3DDB3",
"SX c #F6E2B6",
"DX c #DDDBC7",
"FX c #E4DBC4",
"GX c #E3DED0",
"HX c #F5E7C7",
"JX c #EBE5D0",
"KX c #F6EDD6",
"LX c #FBF3D9",
"PX c #EFEEE2",
"IX c #F8F7E8",
"UX c #FFFFFC",
/* pixels */
"b E l p ^ ] l Q.I.x n _ c *.*.k P. .P. .] P.;.2.2.&XoXXX.X.X=XZ.V.oXf.B.V.XXXXl / ;.U. .b Q E.~ l -.{  .] d W ,. .~.I.[ P.P.) W ",
"E x l Q R.>.k E ^ ) [ n -.;.*.k ~ { P.` X.L T f.Y &XC D t = - $ - D - $ 6 - p.@X:X.Xj.XX|  .{  .f } _ .. .Q P.!.R.R.I.R.R.} n W ",
"} l & d [ n n _ I.n n ,._.n z } | L j.o.D = $ . o . - - 7 y D y t - - $ = P 8.p.=X-XD.b.%XN.b Q } .. ... .{ U...} ] E ~ } { ;.^.",
"H F s Q *.n [ [ -.-.) [ ] ) n L A f.D - - 7 7 7 7 D D D t D I D y 7 t 7 I V.Z.N.f.y.@XN g.S.9.L Q W Q ] ~ P.W...f ~ } ;.P.P.[ W ",
"d x l _ >._ [ l } { R | s } h.A.kXB.* y 7 7 ; 6 5 5 D I 2.T Y o.Y D M 3 + ! hXzXeXa.oXi.9 e.g.x.e.G Q Q Q ;.Y.{ G.G.G.{ ] G.P. .",
"_ ( k k ( _ ( z *.F R E.X.P N >X,XO t * 5 , 4 L 2.C.L B j.j.XX.X2.o.N.&XgX>X@X0XqXrX@Xg.A r r a.u.9.L ..} U...{ ~ W G.`./.R.Y.Y.",
"( ( c c ,.,.n ^ _ 1.T.| y.D o Y *   @ &X2X>XNXKXIXIXGXDXhXxXNXvX;XB >XFXFXuXrX:XjX%X6XA.7.e r 7.8.u.3.I R.R. .Y.W.....Y.G.{ Y./.",
"j x c x >.*.l I.R.;.U.D * - P   $ 7 f.XXC.&XvXhXgX>XNXJXUXUXUXUXPXZXgXvXKXxX>X;X@X%XqX$Xy.7.e.9 r r r r !  .f ~ Y.G.Y.G.~ G.E.R.",
"_ z ( z ( ~.*.;.} _ :.gXO S -XD.J 6 = X X + 4 5 N j.=Xd.2XFXJXFXNXNXNXZXFX,X:X%X%XOXh.y.t.e.7.9 0 w r r 9 R { P.f W.~ G.~ W.G.W ",
"Q.c n ( :.*.x *.-.} &.>X    t D.8.Z 6 - . $ I C ;XB.M <.X.k.k.B 5.j.gXcXeXqXh.b.OXr.p.g.u.9.r.r r r.3.r 9 7 ~ ] G.~ R { /.G.{ W ",
">.j k c _ ( k E ..=.Y ;X# e r r 4 a.U   I y.B.b.jXgX, D o.Y ;Xf.jXvXeXkX>X$Xl.h.V.p.y.8.u.9.3.3.e.u.g.u.< , { ~ G.G.G.~ Y.~ G.~ ",
":.n _ ^ *.Q.[ ^ ) ` < Y e.e < r 7.5.a.O +XS.h.f.f.jXeXB.2XO =XrX2X2XOX:XV :XS.a.r.A 7.5.M.}.wXZ.2 2 9 Z 4 3 -. .{ E.G.~ R R ~ R ",
"( [ [ n } ~.,.E x H X . 0 < e.S.gXlX5X{.rX6Xx.b.$XcXrXV.1X;X,X;Xh.B.A.A.V.@XP u.A 7.M.}.pXmX0Xe B.e.1 , # e X.E  .{ l R ~ R R R ",
"P.[ n n E ) / ^ / _ @ u y > >XBXiXlX6X8X3Xn.x.+XqXjXuXb.%XcX;XV.=X@Xh.A K K 3 4.w A.D.3X-X-XM.tXkX3.e , * X ( s W ] ] l ..W G.~ ",
"!.[ n ( _ W _ -.[ ,.t r + 3 < zXCX3X3.{.5Xm.s.x.oX%X%XB.;X-XV.:XC.S 6 Z.C.y.B.F.a.s.9.v.0.D.3X6XI X Y $ 3 - W l b I.T.]  .} U. .",
") n l ] } _ } -.l *.H C.C..   t kX0X&.5.{.{.z.7.t.a.l.g.e y.y.A + # # I , B.Z.&.e a.M.3X6.u u ,   X   @ - M [  .;.P.l !.U.U.R  .",
",.x c n [ n ) ~.R ~...H <.O t t   <.l.r.v.{.M.z.7.7.7.y.K u K y.Z.F.B.U A Z.e.w D.3X{.z.r.e 3   o O 3 , - { ..f Y.P.W ] ] W { } ",
",.*.k k _ [ Q.[ E T.} { S 6 $ t o   i.b.u.v.M.v.u.9.a.7.K i.q r.T K B.J e i.B.g.s.w.0.S.S.A o . @ < < S W W ~ f f ;.P.P...W ] ] ",
",.*.d *.[ ^ I. .' ..R ) / G 5 X $   8 +Xi.v.m.w.w.0.5.z.s.z.yX5Xz.a.q.u.u.u.n.0.0.9.s.A.A e , 9 9 5 H E E  .] b b P. .W n W ..R.",
"_ c p ,._ n [ [ E.U.b | ;.z 8 4 , % O Z.OXa.}.m.m.0.0.0.0.[.8X X X[.w.0.0.M.5X4Xz.z.h.V r 6 O < < ^ b s { ^...W b P.{ Q P.P.{ ] ",
"x k p l n I.) k R.-.l ..T.; 6 7 , , , O e.N #X8X X X5XwX9XpXCXnXpX8XlXnXiX8X5X4XM.x.e r 8   o o - % t S ' P.{  .P.P.P. .P.P.W b ",
"( z d k ( >.E ] { ] f U.1.A t.A r r 4 @ - Z Y 9X X8XmXKXyX4XHXBX6XmXmXKXmX8X X XS., 8 6 . q , , # # @ 3 F [ { T.^.P. .W W { G.I.",
"( :.c ) Q.E n T._ } Q ^.T.D q r r 9.3.4   a.#X7XpX8XmXCX9X4XjXbXlXmXCXKXHXbXpXtXi.u O + l.e   K # $ , M ] T.Y.P. .~ I.G.~ I.E.P.",
"n Q.^ x ~._ / l R ] R G.{ b f B.S.0 7.9.i.i.S.rX7X}.|.5X{.eXJXjXM.{.iXbXbXmXAX,XK 8 < #XoX6 O 8 , , D ;.Y.(.T.R } W R.P.] /.!.W ",
"*.Q.[ _ c s l x T.} ] l Q s W G.-XS.7.u.b.z.b.tX3X7X[.mX4Xn.Z.U w.}.[.wXpXvX=X5.T 1 tXtX< $ y 3 , / { P.n G.P.^. .~ { {  .^.R.s ",
"Q.>.c *._ d ( R.P.R.(.;.U.! U.W.1.A.3.u.z.n.+X0XnXJXmXCXbX5.5 V m.|.mXiXwXD.=X=X1 +XuXY O % U 9 | R.Y.^.I.{ G.!.{ I.} { /.E.~ ] ",
"I.>.[ [ _ *.!.P.=.!./...~ ] G.G.} _ o.7.x.+Xg.+XnXHXLXIXHXw.oXw.yXHXKXVX:XjXgX1 b.nXT O % 8 e | ..T.^.P.I.^./.^.;.R. . ./.P.n ^.",
"*.*._ *.,.(.Q.d ;.T.U.Q R W G.G.( :.,.a 7.x.u.z.%XBXnXBXJXBXrXZXHXKXKXCXlXB.1 D.mX&X+ u # # F { { P.Y.b ] P.^.P.P.] ] P.{ n  .^.",
"*.c n *.Q.I.^ f !.;. . .Q { U.W._ _ _ _ j g.g.A.:X6XtXqXwXlXVXZXnXwXlX0Xf.> #XlXN.  * A r.z ] ] ..R R R { n G.R.P.n ~ ] n b  .P.",
"*.( ( c _ *.^ [ !.} | E.{ { { | c :._ ^ s X.r.u B.%X:X+X%X%X:X+Xb.A.s.q > 0 tXN.. 6 8 f.Z | Y.R.{ W ] } P.P.I.!.{  .] ] I.G.n { ",
"( I.[ d c [ E P.!.' Q U.R W ~ ] x :.:.j z *.K e u.d.,XMXzX,X$XrXhXp.N., 9 qXV.  8 6 C Z , ! ] ] P.(.R.{ ~ I.P.G.] ~ ~ P.R.P.{ ~ ",
"[ c k d I.[ p } !.' R { s Q U./.>.( ( ( ~.T.G r a.x.OX,X2XMXrXtX2XOX<.+ g.B.# Z Z h.P 4 K 2.Q ] ..Y.{ } b P.P.I.} i b !.] { Y.b ",
"( x F _ *.;.-._ { ~ m ~ b ~ Y. .] ] !.] W { 1.e h.b.].%XeXgXMXZX-Xf.y e y   8 Z Z p.Z 3 J o.R._ P.P.b R.(.!. .P. .P.`.P.n b P.P.",
">.E x ) ' } ) l b b ~  .G.P.Y.Y.^ ;.T.f { R.| q y.b.k.,X;XMXrX2X%XP + 8 e e P r.p.8.V J q S R.1.P...Q Y.R.R.[  .]  .P.P.P.^.R.{ ",
",.H z ^ *.*.) E P.Y. .P.Y.Y.Y.Y.E P.} s ;.XXy.4 b.5.#XqXqXMXjXb.k.r.5 , f.oXV b.oXP e Z V M Y.Y.R.P...P.] ~ b s  .P.b ~ [ E.~ f ",
"1.' H _ =.} _ } /._.P.Y.Y.P.G.{ ;.;.P.] XX4X8., g.6.h.2X1Xb.q.p.a.Z * > %X@XN oXh.r.r.5 5 6 ..{ P.] ;.P.] P.{ W R.!.] ] {  .n ~ ",
",.,.' ' } ) W ;.Y.Y.~ G.^.Y.G.G.-.] R.P.X.3Xh.9 S.g.t.:XMXxXoXb.g.D O 4 b.K p.d.p.r.p.8 3 *  .{ } R { ] ] P...] G.G.n ] I.~ P.(.",
"_ >.' / } m ( I.m G.~ P.^.Y.G.Y.n ] !.] b h.f.4 A.t.oXS.oX%XoX$X%XN.X i.s.5 a.p.d.:XV 3 # 4 { Y.R.] P.~ ] P.] ) { W b [ ^.W P.P.",
"F :.( x [ *.[ I.n ] { R.P.b G.G.n P.(.^ { X.7.V N g.%X+X4.p.'.qX6Xe + g.oXL N 4.%XZ.4 @ 4 8 Y.^.R.[ I.{ /.`.I.Y.I.P.~ I.E. .I.] ",
"' ,.E z *.I.[ ] } } P.R.b s G.G.b } P.b P.P q 8.N OX+Xb.p.d.:XyX:Xq < s.A.D 4 9.l.P P + 4 { ^.W.Y.W  .W ^.^.W ] G.R.] E.P.P./.G.",
"~.1.F ,./ } l _ I.P.R.R.G.P.Y.G.s P.P. .W ! C N V.%Xb.n.9.oX6XqXf.  e t.J 8 7.x.w - 3 9 ! U.Y.^.E.n Y.P.!.P.] !.R.(.P.G.I.R.^.I.",
"( ^ k _ ^ _ W =.[ [ P.!.G.m G.b I.^.[ n W } A P OX].v.z.8.+X+XoXP . 8.t.+ e t.+XD.O e G R.R.Y.G.P.b P.P.!.P.P.R.P.I. .P.R.P.] b ",
">.,.,.*._ ( _ } P.P.P.E.G.G.~ G.*.!. . .I.( A A.b.5.v.8.f.OXl.T , # A 8 O g.f.s.f.O 3 T.`./.E.Y.b f n ] P.{ P.P. .P.{ P.P.] ~ b ",
">.1.Q.' =.;.!.,.P.P.P.P.G.b ~ P.-.I.{ ] } M i.%X9.A.b.l.b.OXV.8 , r P < 9 OX3 f.K 5 , *.E.P.{ ..n n G.P.I.P.(.P.P.I.G.P.P.G.I.`.",
"_ ' =.x ' ;.!.} -.[ !.P.^.~ ~ ] !.I.) Q P.7 oXb.9.OXt.K h.oXZ 4 , Z K A r.A.U 0 w V 4.G [ n R [ G.P.^.!.^.I./.P.P.E.P.P.R.P.^.`.",
">.=.,.x ' >.,.n P.P.^.P.E.b ] G.P. .;...P.Z s.l.s.4.3 + b.+Xz.q.N > z.f.h.,X8.jXZ.w z.P ..) ] P.G.Y.E.P.!.P.G.] n ] n P./.R.I.G.",
"_ :.*._ ,.!.T.) P.P.G.n n b W P.R.{ 1.{ Q A d.x.9.q q b.].c.8.A f.A.:X@Xy.4.eXLXP 9 z.o.} } }  .P.P.P.n /.^.] P.b ] ] P.^.P. .b ",
"F / ' ( ' ,.} x { ^.G.Y.b Y.~ E.T.^ ..U...7 8.z.a.C b.].qXrX=XL -X4X%XA.n.'.ZXNX  u q.p.[  .} ] P.] G.f /.`.] R.{ /.(.^.E.P.G.] ",
"_ I.) -.] } T.P. ...I.I.n ( _ Q.' d | | f 7 A u.g.a.b.s.g.@X;X'.%X0Xc.+XuXLXNX< > 5.u.8.W E.~  .R.{ I.I./...' 1...U.| ..;.R R ..",
") *.) [ } ;.R.;.P.!.~.) n I.-.>.| W 1.{ k L 0 9.9.4.q.n.'.].%XnXqX'.qXqXHXGX4 > -XkX6.p.{ R.Q  .P.b R.Y.;.{ ;.U.Q  ./.R U.& Q { ",
"*.I.-.-.-. .{ f ..} [ l _ *._ I.F R ..[ x 9.z.z.v.c.3XqXtXvXLXKXlXMXSXHXFXf.8.w.nXxXw.f.| Y.] { G.b P.I.{ ..U.] { T.U.)  .W ....",
"k ) ^ ,.} !.-.Q ) W ) n -.) m Q.) ;.1.-.V.6Xx.g.$XqXuXuXcXHXPXzXSXHXAXxX#XeX#X7X].g.S.9.q.d.] ;.] ] ^.E...;.} W R.^.f R.{ <X!.W.",
"k n x ,.^ ^.-.T.} T.~.^ Q.Q.>.I.=.1./ 2.D.h.b.b.wX7X%XcXLXIXAXCXHXLXvXS.BXMXn.6X+Xx.z.s.a.V.m } ) !./.R.;.=.W | T.T._ !.T.P.T.R.",
">.>.n >.l I.E } ;. .} ) !.~.*.>.W.Q.c +.v H ~.2.2.*X@XhXMXNXFXKXPXDXlXNXxXhXC.2.X.1.%.%.O.O.h c ;.^.| ) T.(._ ;.;.} ..^.!.' ;.=.",
"I.( ( *.[ *.n _ ;.n n *.Q.,._ ,.:.F g h h O.O.K.K.K.K.H.H.K.aXaXsXH.K.$.$.$.$.$.$.$.@.#.+.v a - ' =.E E -./.*.;.T.1.' !.;.T.T...",
">.z *.>.~.*.n E T.;.,.T.[ ~.,.I.*.  h.A.N.` +.g :.L.L.L.L.).L.K.L.L.).).%._._.1.1.<.<.j o X # V 3 ! } } F  .} R.!.T.} | W ' T.} ",
"z :.1.:.,._ / E ` { / } / =.=.1.r.s.].].6XK g.].BXMX6.VXZX%X1XvXMXFXPXxXw.oXMXlXeXtXwX#X  % 3 A e q 1.} ;.>./ T.(.-.-.;._ _  .} ",
"c H H ( ' ^ / Q.Q.T.} | / ) j s.q.].qXtX+X6X0XbXCXrX6XHXHX0XvXZXHXLXFX.XqX:X.XrXzX0X0XtXoXs.s.t.> , D ` !.;.) ^.^.*.*.,.-.-.-.} ",
"a c z _ F ^ F 1.1.=.W ) ^ *.c *.Y h.@X0X6X3XtXvX'.oXjXvXKXlXvXJXLXKXvXlXHXvXCXjXCX@X8.h.6XoXp.L H j h j / Q.-.,.~.=.-.T.T.I.-.) ",
": c H c k / ^ / } ' F / ( :.j g & %.m 1.1.=.>X&X*X>X>XXXvXjXMXMXIXDX;XhXxXxX.X*XgX_.(.Q.%.%.@.h O.h g +.H Q.I.,.,.} } ;.,.=.} / ",
"( H H a j H =.' =.-.| T.=.D g & $.H.@.@.h O.O.O.H.O.#.@.#.J.J.sXsXL.J.H.H.H.@.#.H.#.K.#.O.$.H.h h h j S r.` ( Q.[ [ ( _ [ _ [ *.",
":.j H j ( F =.' =.1.} 1.' 7.7.V ,.:.%.O.H.H.O.H.O.@.@.#.#.#.H.H.aXH.@.H.K.H.$.@.J.J.J.@.+.%.:.G L K r A L *._ ,.[ [ ) _ *.;.;.Q.",
"H j H H H H _ ( | ;.) ` f S L 8.7.6.q.w.b.].oXXX.X&X;X<XdXdXdXdXsXfXdXdXfX<X*X.X;XXXoXb.9.u.8.t.T o.~.} [ (.(.I.*.>.[ } T.Q.,.~.",
"H :.:.H p ` :.^ F | ;.T.' ' ' =.=.` L X.r.j.oX].$X6XqXuXcXvXBXVXVXZXBXvXuXqX%X$XXX].X.o.! ! T.^...} ,./ ^ Q.~.T.[ -.[ [ Q.!.-.>."
};
