/* XPM */
static char *result[] = {
/* columns rows colors chars-per-pixel */
"64 64 251 2 ",
"   c #000001",
".  c #060306",
"X  c #180000",
"o  c #161815",
"O  c #270303",
"+  c #370301",
"@  c #2F1710",
"#  c #083309",
"$  c #35250D",
"%  c #372617",
"&  c #332925",
"*  c #440400",
"=  c #540300",
"-  c #471906",
";  c #561A00",
":  c #6C1500",
">  c #472807",
",  c #5A2703",
"<  c #4C3107",
"1  c #5A3603",
"2  c #442716",
"3  c #572818",
"4  c #483719",
"5  c #5B3419",
"6  c #652902",
"7  c #6A3803",
"8  c #783C06",
"9  c #75330D",
"0  c #643919",
"q  c #483826",
"w  c #4F332D",
"e  c #553A27",
"r  c #623826",
"t  c #114306",
"y  c #2B4A1A",
"u  c #325117",
"i  c #34561C",
"p  c #0D522B",
"a  c #035B39",
"s  c #304D2D",
"d  c #345423",
"f  c #3B5C24",
"g  c #395429",
"h  c #3D5D2B",
"j  c #3C5831",
"k  c #0E6238",
"l  c #3E6127",
"z  c #39603E",
"x  c #544316",
"c  c #754404",
"v  c #714D08",
"b  c #6B4519",
"n  c #764718",
"m  c #7F671D",
"M  c #52492B",
"N  c #445B2A",
"B  c #595929",
"V  c #445D36",
"C  c #674629",
"Z  c #764A26",
"A  c #68532B",
"S  c #79572A",
"D  c #684C33",
"F  c #695537",
"G  c #7A5735",
"H  c #426526",
"J  c #42642C",
"K  c #456A2C",
"L  c #496B2E",
"P  c #506A28",
"I  c #456433",
"U  c #486535",
"Y  c #4A6C34",
"T  c #4A653A",
"R  c #4D6C3B",
"E  c #586535",
"W  c #516D3C",
"Q  c #4E7234",
"!  c #4E713A",
"~  c #517336",
"^  c #52743B",
"/  c #5B743E",
"(  c #55793C",
")  c #597C3E",
"_  c #736935",
"`  c #016B4B",
"'  c #0E6D4E",
"]  c #017757",
"[  c #2B6E4C",
"{  c #595A43",
"}  c #695B54",
"|  c #4D6B42",
" . c #536E43",
".. c #5D6E42",
"X. c #557442",
"o. c #597644",
"O. c #587746",
"+. c #5A7C43",
"@. c #5C7B4A",
"#. c #5F7E50",
"$. c #657845",
"%. c #617E4D",
"&. c #71704B",
"*. c #69676E",
"=. c #766B6E",
"-. c #6D756E",
";. c #6E786F",
":. c #6B6B73",
">. c #736D73",
",. c #796D71",
"<. c #6E7572",
"1. c #6D7872",
"2. c #737575",
"3. c #7C7374",
"4. c #737B74",
"5. c #76767A",
"6. c #767B79",
"7. c #787E7B",
"8. c #853400",
"9. c #874803",
"0. c #8D5100",
"q. c #985804",
"w. c #864918",
"e. c #86551B",
"r. c #935516",
"t. c #AE5906",
"y. c #906512",
"u. c #AC670D",
"i. c #854C23",
"p. c #885827",
"a. c #8B5D2C",
"s. c #955A26",
"d. c #865C33",
"f. c #8A652A",
"g. c #986429",
"h. c #8C6536",
"j. c #966936",
"k. c #8F7333",
"l. c #9A743B",
"z. c #A86A28",
"x. c #B36E22",
"c. c #A8742B",
"v. c #B77728",
"b. c #A26C33",
"n. c #A97838",
"m. c #B47C35",
"M. c #C37D23",
"N. c #866945",
"B. c #926D44",
"V. c #9A7648",
"C. c #867350",
"Z. c #987856",
"A. c #A67B47",
"S. c #A87E52",
"D. c #83736F",
"F. c #91796F",
"G. c #847574",
"H. c #897A76",
"J. c #59803F",
"K. c #00815F",
"L. c #02896A",
"P. c #0D8D6C",
"I. c #009476",
"U. c #388E6F",
"Y. c #5D8144",
"T. c #5F8149",
"R. c #618446",
"E. c #62844B",
"W. c #658A4C",
"Q. c #698D4D",
"!. c #648352",
"~. c #688654",
"^. c #6A8C52",
"/. c #6C8C5A",
"(. c #6E9254",
"). c #6E9258",
"_. c #739759",
"`. c #72955A",
"'. c #46997B",
"]. c #719068",
"[. c #768175",
"{. c #788378",
"}. c #7B827C",
"|. c #7DA162",
" X c #B38336",
".X c #D4870A",
"XX c #E8A11D",
"oX c #D3912F",
"OX c #C88837",
"+X c #94874D",
"@X c #998557",
"#X c #A88349",
"$X c #B58748",
"%X c #A88757",
"&X c #B38C52",
"*X c #B99250",
"=X c #B9935A",
"-X c #90896D",
";X c #98877A",
":X c #A78D65",
">X c #B99867",
",X c #AE9370",
"<X c #A89779",
"1X c #9BA87B",
"2X c #BFA06E",
"3X c #BAA47A",
"4X c #CC9346",
"5X c #C69A58",
"6X c #D6A352",
"7X c #E6A94D",
"8X c #C29E68",
"9X c #C7A366",
"0X c #C7A876",
"qX c #D3AD72",
"wX c #D5B379",
"eX c #E5B267",
"rX c #7B7B86",
"tX c #817E87",
"yX c #728784",
"uX c #85838B",
"iX c #89858C",
"pX c #88888B",
"aX c #908D8C",
"sX c #9B9289",
"dX c #A69787",
"fX c #A79D93",
"gX c #90A990",
"hX c #B7AA86",
"jX c #B5AD8F",
"kX c #A9A39A",
"lX c #B0ADAA",
"zX c #CCB58D",
"xX c #D6B888",
"cX c #C9B897",
"vX c #D3BA98",
"bX c #DAC08C",
"nX c #DAC398",
"mX c #EFCA8C",
"MX c #E5C896",
"NX c #F6D499",
"BX c #D9C9A7",
"VX c #D2CAB2",
"CX c #E9D4AC",
"ZX c #F6E1B5",
"AX c #DFDBC9",
"SX c #E5DDC4",
"DX c #E2DFD5",
"FX c #F7E8C6",
"GX c #F0E9D3",
"HX c #FDF4D8",
"JX c #FCFAF0",
/* pixels */
"l <.2.y U R f ^.@.yXV T J ^ @.d {.2.Y.~ Q R.) &.pX-Xk.@X+X@X%XH.H.#Xk.k.B.+X@XyXE J.Y.X.l l }.4.f +.! ( R V uXO.( ^.E.X.Y.}.1.I ",
"J <.2.L ~.+.d l T iX| I X.O.O.d 4.4.Y./ _ F Z &.iX@XA C q & X :.>.< & % 4 2 G iX:XZ.k.+X+.Y.[.;.f ^ Y ( ( | uXE.W.!.T.W.W.7.1.K ",
"^ <.2.i R l l ! @.uXV O.`.J j ^ 4.3.f._ M @ @ & uX. $ % 4 e < 3.*.O % @ @ S G rX%X,XS.A.=X_ 4.;.^ +.( +.^ X.uX^ ^ Q H Y ( 7.1.).",
"J -.2.I X.J | ! O.uX| W W K N B D.7.1 % $ 4 $ M uXD x M q B 1 6.>.$ q 4 D V.F.iXN.g.#Xc B.x.;X-.L K Y Q Q @.uX^ i Y ( +.+.}.;.K ",
"d <.2.| O.R ! f W uXV ^ y ^ k.n.sX=.> e 4 q % w uXe M F &._ b G.=.x M > O F 1XaX2Xg.#Xa.6 8 H.F.9.B L L L %.iXY J.) J.) ~ }.4.J.",
"T 1.2.d T R I f X.iXT Q._ S n ,XfX*.> % < - 1 A iX&.S v k.N.+XaX3.A C.-X3X3X:XtX>XwX@Xj.Z 9 3.H.q.s.A ) ( %.iXY P L J._._.}.[.W.",
"T 1.2.h #.@.z I T iX!./ a.5 o B 3.*.. -XhX,XVXAXiXDXGXVXjXVXBXkXD.y.3XCXSXxX3XuX3X>X=XA.i.; ,.D.8.g.w.F W.E.iXT.(.( J.Q.) [.4.(.",
"d <.2.j O.X.d T.E.iX+.x 2 % G   *.>.m Z.C.:XnXjXuX;XVXGXJXJXJXlXkXCXdXBXGXcX:XuX%X=X9X&Xg.8.G.=.6 9 8.r E o.iXL R.) J.R.Q {.[.W.",
"T <.6.f | /.X.+. .iX{ dXO M ,XA.3.:.X X . + 1 < yXC.:Xk.hXVXGXkXaXVXVXCXSX8X:XuX%X&Xl.p.s.8.H.=.: 8.9 9 , T uXY.f Q.Q J.Q -X4.l ",
"!.<.4.z | X.l X.X.uX{ ,X    q n.G.G.* & . % C D iXD b _ _ V.y.3.4.f.hXbX0X9XB.iXV.f.a.g.z.0.H.>.9 p.i.9 ; w uXI J.Q H ( (.[.[.K ",
"@.:.2.j | I d J X.uXF :X- 0 Z 6 :.F.n . D a.l.V.aX;X5 D _ F :X-XfXMXzXzX<X*XV.tXB.a.a.s.s.8.G.=.8.a.b.s.; w uXY J.J.J.P E.[.;.L ",
"R 1.6.U X.~.! J T uXw D w.9 3 : D.H.0.@ $XA.j.N.rXzX0Xk.3XO =XdXaX>X#X>X0 >XA.iXS n w.0.M.oXdX=.: 9 6 Z ; w iX! ~ Q.) Q H 6.;.K ",
"R 4.6.l | ^.@.I V uX&   0 6 i.n.tXdX7Xm.qX5Xc.V.tXzXwXl.3X,X>XsXD.h.#XA.A.%XF tXZ 9.v.oXeXmXdX*.g.s.= - + e iXl ( ! l l Q 7.-.l ",
"+.4.4.h I Y Y I T uX& 5 5 * dXMX,XaX4X7X4Xm.c.S.tX0XwXn.=XbX%X3.;X#XB.n Z n w uX9 S.S.4XS.8XF.dXzX8 r - @ & iXs K ! Q l ( 6.;.Y ",
"!.4.4.U ^ I Q X.R uXw 8 O > ; vXlXF.r.M.4XM.z.h.tX&X=XB.:X=Xb.sX5.q q Z.C.f.N.uXa.z.r.x.x.S.F.sXb X D @ ; w yXf l T.Y.! X.6.[.( ",
"Y 1.4.Y X.Y ^ o.j iXN =.C.X   5 sXH.i.r.4XM.z.i.uXd.l.j.5 f.0.G.*.X % C - B.Z.uXe s.OXOXr.6 H.*.  o . @ @ M iX! +.Y.l ).T.}.-.( ",
"O.1.2.h  .l Y ~.V iX^ V &.O q > } 7.y.d.v.OXM.b.tXd.8.s.Z C c G.-XZ.B.G n Z.G tXZ.4XOXx.d.; ,.*.  @ > 2 % o.pXi R.T.K ! Q 6.;.( ",
"T.6.2.d | X.E.! U uX .~ M 2 % $ :.:.0.A.g.v.M.b.tXi.j.n S d.; D.>.c B.C 0 d.B.uXs.u.t.A.A.7 5.*.X 3 ; M J | iXd i ) Y.E.Y.6.;.L ",
"@.4.2.X.X.I T.X.W iXV Q Y N 0   :.*.- $Xh.z.M.x.tXs.0.s.r.m.qXdXG.q.g.s.s.r.A.iXs.t.g.A.w.; :.=.= 5 j J J O.uXf l Y.( I K 7.;.W.",
"R 1.2.@.| l ! ! E.iXV ( Y.g e = :.>.  Z.S.j.oXv.tXz.t.t.t..XXX3X:X.Xt.t.t.OX4XuXs.u.B.9 Z + :.=.= U l u ( ~.uXl l J.( K +.}.;.~ ",
"h <.2.g j T.R d E.uXV ) W.& 4 + >.,.+ O e.n $X6XtX4X7XeX7XeXNXfX;X7XeXMXeX7X4XuX$Xz.0 n 5   >.*.X % 4 M ( @.iX! +.Y.Y.X.Y.}.-.l ",
"I 1.2.d U +.K ! W uXj +.R.n s.8 3.,.= @ $ 0 d.6XtX6XNXFXeX4XFXlX;XNXNXHXNX7X4XpXB., 3 2 o ; 5.=.O % @ 2 N X.iXT.).Y.( Y K 6.[.T.",
"T 4.4.U !.l l T.T iXW Q.W.M 0 9 ,.G.8.3   j.=X5XtX7XNXNXeX6XxXfXsXNXNXHXFXNX7XuXG b O O A.; :.3.O % - 4 ~ !.uXo.( Y T.Y.Q }.[.Y.",
"z {.4.j /.R Y h N iXU J.Q H i g.sX,.8.s.a.d.A.2XiXOXXX4XOX0XGXkXZ.oXqXmXmXNXBXiXG < ; *XA.+ >.=.O 3 M +.E.).uXh ( K W.Y.Q }.{.H ",
"! {.6.R z u f h @.uX .l L u P ) G.H.8.s.n.z.m.0XtX5X.XmX4X$XZ.5.F.XX.XeXeXMX;XuXD = qXqX6   >.:.+ B ( T.Y O.uX^.( Y ~ ^ ( yX[.u ",
"!.4.4.X.| u Y E.+.uX^.) R.~ R.Q.6.H.8.z.z.n.$X>XtXSXNXZXmX0.6 *.F..XNXeX9XS.Z.iX= 4XwXD O X 3.:.o.W.R.(.T.@.uXE.~ Y.^ ! ).}.;.Q ",
"#.4.6.R | X.W.Y.o.uX/.) ~ ~ R.R.6.4...i.x.$Xb.S.uXCXHXJXFXu.n.H.dXFXHXCX8XzXfXrXA.mXh.O & - ;X[.( !.^.+.T.^.uXE.J.T.Y.Y.`.}.;.Q.",
"O.4.6.^ !.`.!.d o.uX%.L i P ) J.4.6.T.& r.b.s.g.uXvXMXBXGXBXxXdXjXHXGXCXxXg.6 tXMX-XO 5 2 O :.4.^ R.R.J Q @.iXo.Y.Q Q +.! {.;.(.",
"X.<.2.O.!.@.I i !.iXX.( Y ~ R.Q.4.4.R R s g.j.A.tX>XqX5XqXxXCXkXdXqXzX8Xd.: Z.aXG X $ n a.g }.;.( K J K ^ T uXE.( K L ! K 6.;.Y.",
"R <.4.I | ! I ! !.uXX.Q.^ ~ / ~ 2.4.T T u _ s.M iX%X>X$X>X=X=X;XG.c.g.7 + 8 9XiX@ - 0 d.Z ( {.[.~ Y Q ~ +.@.uXE.! ( Q ! Y.}.-.^ ",
"R 6.6.y T X.l +.!.tXW $.H K Q ~ 1.6.| g g X.b r iXj.,XBXvX9X*XsXH.g.N.- , 5XZ.rXe > b Z 2 B 6.4.Y._.Q.^ Y %.uX^ ~ K Q Y.W.{.;.Q ",
"! 1.2.d @.R y ( !.iXT ~ u L W.(.6.2.R T /.T.B D uXj.&X3X0XcXwX;XG.#X&.* l.B.q iXC j.S , A _ 4.4.( E.^ ~ H @.uXE.( t l ^.Q 6.[.l ",
"T -.6.Y X.+.X.! Q pXz z l l Y.J.6.1.W.Q L ^ $.r tXV.n.>X3X0XnXkXD.g.e 0 5   M iXZ p.A - S _ {.4.Y.Y.H E.`./.uX+.( ) |.+.K 6.;.Y.",
"X.2.2.T X.^ Y l l yXJ.J.J.J.(.W.4.[.T.l ^ W.@.r iXl.c.3X2XVX0X;X;Xv + 0 5 7 D uXf.e.b C 0 N }.4.Y.Y.L W.W.!.uXR ~ ) T.Y.+.}.[.( ",
"@.2.2.I O.| I l X.uXJ.Y.Q.Y.R.Y.1.6.Y.i +.+Xa.3 uXe.&X9X2XBXzXH.-Xv 5 - h.A.C aXV.e.0 c 0 4 }.[.^.Y.( Y.! | uXu ( Y.J Q Q }.1.i ",
"%.4.6.R O.X.R X./.uXY.Y.Q.Y.J.J.6.{.Y.Q +X4Xw.w uXi.k.2X,X X0.G.G.7 2 * 5X%XC iXh.p.S 5 0 % 7.4.Y.^ +.Y.Q @.uXJ W.^.L ! ! {.-.Q ",
"@.{.2.^ O.Y U +.T.uX| ( (.Y.Y.J.[.4.~.Y._ 4Xh.3 iXd.g.>XBXzX X7.G.7 O , A.n d.uXd.p.f.5 2 $ 2.4.~ K ( Y L +.uXY Y.( K ! E.{.4.).",
"Y 2.2.T | Y Y +.R uXR Y.Q.W.Y.Y.4.4.^.Y l h.f.3 iXp.#XA.#X>X X;XsXB.. d.g.1 G uXk.:Xb > 2 $ 7.{.W.! Y.Q ( @.uXJ ~ H l ! (.6.4.Y.",
"J 4.6.h  .X.R +.T uXX.E.Y.l Y.J.4.4.).Y ! _ r.r yXj.*X$X9.f. X;XG.c + b.$XA D iX=XV., @ 3 4 {.{.^.! R.~ `.].iXT.E.Y.Y E.(.{.[.Q ",
"W 6.2.f O.+.Q ! R iX+.W.l i J.Y.1.6.Y.I T.S 7 d.tX%X Xn.s.k.5X;X3.7 - g.V.0 e iXB.f.S + 3 ~ }.{.E.Y ( K )./.uXY J.E.Q (.( }.{.~ ",
"/.6.2.E.T ^ h Y T.uX!.W.( ( Y.J.<.6.+.o.K E 7 p.uX%Xm.m.r.#X5X<X*.X 0 s.C 1 Z iX0 > 2 6 E R.{.{.W.I E.Y.`.#.uXW.W.).Y.Y.T.}.{.E.",
"I 2.2.T I R U +.R uXO.^.~ ( J.l }.}.~ I K / n D uXA.v.z.e.&Xn.;X*.X p.p.+ 9 d.iXZ.+ 0 B W.Q.-X1.T.K Y.) ^.#.uXE.Y.W.^ Y.W.yX;.l ",
"+.6.7.( R R Y ^ @.iX+.(.( J.J.J.6.[.( ( T.I n B.iXZ v.r.j.$Xf.-X:.O n 5 O l.C.tXF + - E.|._.}.[.H f K Q o.O.uX( ~ Y.~ Y.R.7.;.K ",
"@.2.}.W O.O.W.@.@.uXO.Y.J.l ~ Y.6.[.^ ^ ( x f.=XrX#Xb.l.n.%Xk.3.*.6 S ; 6 S.w iXZ , 2 X.Q.J.7.;.H Y ) +.W.@.uX+.Y.T.Y.T.Y.7.[._.",
"R 4.6.f X.X.^.X.O.uX~.Y.(.l Q Q {.6.Y Q Y.4 #XV.tXA.s.Z k.#X7 >.=.7 p.n p.V.G tXn 8 w.B ~ l 4.4.( T.(.Q.).!.uXX.Y.E.Y.E.W.}.{.|.",
"O.6.7.N  .O.+.J +.uX~.+.Q.K ~ J.}.4.+.) Y.b g.l.iXZ , O A.$Xt.H.=.= b.h.j.>XD aX&.c z.S J.L 6.4.( T.Q.Y.(.@.uXY K Y K +.).}.[.) ",
"Y 4.6.T @.W.E.Y X.uXY.L K l Q Y.{.4.T.~ P n z.l.uXe 7 m. Xc.0.>.H.c.>X%Xf.f.A.aXD 9 z.S ( ! {.4.Y.T.T.Y _./.iXX.l Q Q T.(.}.;.H ",
"h 2.6.T X.@.X.l ! yXX.R.l Y.Q W.}.4.o.E.+.4 r.g.uXC c. X>XwX%X>.;X4X=XV.v.4XcXuX@ 0 r.a.! ( {.1.Y.~ ~ i `.`.uXE.~ ).`.).Q.{.4.Q ",
"R [.4.X.! ( Y.Y.( uX@.E.h R R ~.4.2./ / i q 8 a.uXd.n.g.l.%X%X-X<X5Xc.&XwXHXVX5.= 0.g.e.L Q.6.4.Q.X.E.R._.@.tXo.( E.^ +.+.2.-.+.",
"Y 4.6.^ X.X.W.Y.+.uX!.Y J @.@.X.4.2.$.^ i B 9 d.pXw.u.m. X X5XfXH. X0X5XFXDXr rX,XzXq.f.( W.6.;.Y.K E.R.+. .iX@.L / |.J %.2.-.~ ",
"X.{.{.X.+.( Q i X.uX| f ! ^ | T.2.2.) ~ N r.u.b.iXb.*X9XqXnXHXlX;XBXFXFXSXd.a.tXvXcXu.h./ W.6.4.+.J R.R.~ O.tXY ~ E.R.Y ^ {.4.) ",
"d 4.6.+.o.^.o.Y R uX| h Y.z T ~.4.6.E.$.S.5Xb.h.uX=XwXwXbXGXHXfXjXFXCXvX%X0X:XtXc.b.n.w.z.k.4.4.~ ^ (.W./ %.iXJ Q.^.i ^.! ;X[.^.",
"y 1.2.+.T ).+.E.! uX!.I !.!.@.T.6.{.I &.S.h.c.b.uX&X5XbXHXJXZXfXlXHXvX$XmXMXV.iX#Xz.c.j.h.f.}.[.Y ^._.W.+.@.uX^ E.T.Y ^.T.yX4.E.",
"O.{.5.O.j +.l ( O.uXX.R ~.^.O.O.}.}.i ' k V /.;.yX-X%XjXVXVXSXkXlXAXzXVXjXhXC.yX_ $.[ z ` k {.4.+.).o.Y E./.uXo.R./ +./.Q.}.4.+.",
"@.2.4.X. .X.l ! O.uXj +.T.T.| #.[.:.# a a ` ` L.iX] I.I.L.I.I.yX{.P.L.K.] ] ] tX] ] ] ] ' p 2.*.W +.J N o.].uX^ E.+.Y /.+.}.4.( ",
" .1.6.O./.X.l J @.uX@.!. .~.#.@.}.:.y.S.h.E [ p tX'.U.U.P.'.I.yXyXP.'.'.U.].[.iX..&.&.s o   >.,.* B ^ ^ N O.uX%.Q.%.( o.L }.4.^ ",
"g 4.7.R @.E I J W uXT ^ U o.o.$.2.;Xx. X5XS l.A.iXzXk.CXCX=X0XsX;XSXHXVXy.#XnXyX>XqXeX=X  X <.D.6 r _ o.O.@.uXO.`.O.X.@.Q 6.4.^ ",
"j 2.5.T  .I U !.%.uX .o.U Y j q.F.;X6XqX$X*X6XxXaX>X5XFXFX>XMXjXlXHXSX@X5X9XZ.iXzX9X>X9X#Xq.G.=.* 2 M V !.#.uX~./.( X.E.o.}.1.^ ",
"y <.2.W V I N %.%.iXV E L / z P 2.;X#X9X5X4X0XzXrXZ.wXvXHXzXBXkXlXHXnXbXFXnXBXiXCX@Xe.j.5Xc.4.2.x s a j T ~.uXO.^.X.o.!.E.}.4.Y ",
"y <.2.j g U U U W tXV W U [ s t -.[.p $.$.o.<X-XrXhX1X+XnXzXVXaXlXDX:XjXjXVXC.uXhX-X].~.| ] yX-.a k p ' V #.uX@.%.^ ^ O.O.7.;.Y ",
"| :.5.y s I o.W  .uX .E.$.B p # 1.rX` ] a ] ` ' rX` ] ] ] P.L.[.{.L.P.L.I.K.] iX` K.I.] ` ` yX*.p a p M n ..uX@.! ! Y R ^ 6.1.^ ",
"| :.5.s T N o.W O.uX..E.E w.r.7 3.1.a ' ] ] ` ] uX` ] ] ] ] L.[.yXP.` L.I.L.] iXL.P.I.] [ k [.=.v S n n F  .uXO.R | Q R O.7.4.!.",
"j <.5.V V T W U ..uXT E N N Z i.D.F.q.c.A.#X+X+XuX@X<X1XgXgXgXaXyXgXgXgXgX1X-XuX@X%X#Xn.g.0.H.3.Z &.Q./ ! ].uXO.! X.| X.!.-X4.W.",
"| 2.5.V s T W V V uXo.E.E W U o.4.2.B S f.l.#X#XuX&X5X0XxXnXCXgXkXZXBXnXwX9X&XuX+X+Xm _ E Q }.{./ o.+.Y I !.uX@.X.+.! | ~.yX4.X."
};
