/* XPM */
static char *result[] = {
/* columns rows colors chars-per-pixel */
"64 64 244 2 ",
"   c #000001",
".  c #070005",
"X  c #1C0000",
"o  c #130000",
"O  c #191216",
"+  c #230001",
"@  c #2C0000",
"#  c #27090B",
"$  c #330101",
"%  c #3B0101",
"&  c #330D05",
"*  c #3C1505",
"=  c #281914",
"-  c #361A13",
";  c #270E0F",
":  c #063208",
">  c #372417",
",  c #35220B",
"<  c #322926",
"1  c #440000",
"2  c #450B00",
"3  c #540200",
"4  c #481905",
"5  c #561A00",
"6  c #491E11",
"7  c #6C1500",
"8  c #462808",
"9  c #592705",
"0  c #5A3702",
"q  c #452717",
"w  c #582818",
"e  c #5A3518",
"r  c #4A3414",
"t  c #652902",
"y  c #752E00",
"u  c #6A3702",
"i  c #773C04",
"p  c #623B1C",
"a  c #663716",
"s  c #783C16",
"d  c #6B2311",
"f  c #493727",
"g  c #553A27",
"h  c #4F332D",
"j  c #623826",
"k  c #004B0B",
"l  c #005B39",
"z  c #0D522D",
"x  c #315234",
"c  c #0D6238",
"v  c #3D4A11",
"b  c #5B4114",
"n  c #684804",
"m  c #754404",
"M  c #6A4519",
"N  c #774618",
"B  c #7D540F",
"V  c #584525",
"C  c #594733",
"Z  c #494D2D",
"A  c #674729",
"S  c #764A26",
"D  c #7A5629",
"F  c #684C33",
"G  c #6A5338",
"H  c #7A5735",
"J  c #6C512C",
"K  c #556230",
"L  c #74633D",
"P  c #006B4B",
"I  c #007353",
"U  c #017859",
"Y  c #0D6D4E",
"T  c #2B6E4C",
"R  c #4D4A42",
"E  c #6F5441",
"W  c #736F4A",
"Q  c #6C686E",
"!  c #66666D",
"~  c #756A6E",
"^  c #7A6C6E",
"/  c #6C6C73",
"(  c #686971",
")  c #736D73",
"_  c #796D71",
"`  c #7C7374",
"'  c #767679",
"]  c #6B7676",
"[  c #576558",
"{  c #863500",
"}  c #842F05",
"|  c #874702",
" . c #934C00",
".. c #885600",
"X. c #995903",
"o. c #864917",
"O. c #86541B",
"+. c #945515",
"@. c #AE5906",
"#. c #8F6412",
"$. c #A56606",
"%. c #AA6517",
"&. c #B56907",
"*. c #854C23",
"=. c #8B5D2C",
"-. c #885827",
";. c #955A26",
":. c #865C33",
">. c #8A6529",
",. c #986529",
"<. c #97732C",
"1. c #8C6536",
"2. c #966936",
"3. c #9C733B",
"4. c #89713A",
"5. c #A86A28",
"6. c #A8742B",
"7. c #B77728",
"8. c #A26C33",
"9. c #A87838",
"0. c #B47C35",
"q. c #B36E22",
"w. c #C37D25",
"e. c #C57C1E",
"r. c #866945",
"t. c #936D44",
"y. c #897148",
"u. c #9A7548",
"i. c #847655",
"p. c #987856",
"a. c #866B56",
"s. c #A67B47",
"d. c #A87E52",
"f. c #83736F",
"g. c #847574",
"h. c #887A77",
"j. c #8F786F",
"k. c #00815F",
"l. c #01896A",
"z. c #009476",
"x. c #0C8D6C",
"c. c #388E6F",
"v. c #6B825A",
"b. c #46997B",
"n. c #698772",
"m. c #B88338",
"M. c #AE8232",
"N. c #D4870A",
"B. c #E19800",
"V. c #C88837",
"C. c #D3912F",
"Z. c #ECA731",
"A. c #9A8559",
"S. c #9B894C",
"D. c #AB834C",
"F. c #A78247",
"G. c #B58748",
"H. c #A98757",
"J. c #B48B53",
"K. c #BB945B",
"L. c #B7935A",
"P. c #BE924B",
"I. c #998867",
"U. c #8D817A",
"Y. c #98877A",
"T. c #8B906A",
"R. c #A78D65",
"E. c #AB936A",
"W. c #BC9C6B",
"Q. c #B89765",
"!. c #A68C75",
"~. c #A89779",
"^. c #BA9E74",
"/. c #B18960",
"(. c #BAA47A",
"). c #BFA06E",
"_. c #9BA87B",
"`. c #C89447",
"'. c #D49948",
"]. c #C69A58",
"[. c #C68A43",
"{. c #D6A352",
"}. c #E6A94D",
"|. c #C29E65",
" X c #C19E76",
".X c #C7A367",
"XX c #D4AA6B",
"oX c #C7A876",
"OX c #D3AC75",
"+X c #D5B379",
"@X c #D1B176",
"#X c #E6B368",
"$X c #E2AC63",
"%X c #7D7C83",
"&X c #7B7B87",
"*X c #807E85",
"=X c #817F88",
"-X c #009B80",
";X c #6D8884",
":X c #7B8388",
">X c #808087",
",X c #84838A",
"<X c #89858C",
"1X c #8B8A8E",
"2X c #958A84",
"3X c #9B9289",
"4X c #8D8D92",
"5X c #8E908F",
"6X c #A69787",
"7X c #A89D93",
"8X c #90A990",
"9X c #B7AA86",
"0X c #A9A39B",
"qX c #B4AB8F",
"wX c #AAA7A4",
"eX c #B5B3AF",
"rX c #C9B488",
"tX c #D6B887",
"yX c #C9B897",
"uX c #D6BD96",
"iX c #C3AC85",
"pX c #CCBEA3",
"aX c #E0B483",
"sX c #DAC399",
"dX c #DAC08C",
"fX c #E5C896",
"gX c #F6D499",
"hX c #EFCA8C",
"jX c #D9C9A7",
"kX c #D2CAB2",
"lX c #EAD5AB",
"zX c #E7D7B5",
"xX c #EBD1A7",
"cX c #F6E1B5",
"vX c #DFDBC9",
"bX c #E5DDC4",
"nX c #E2DFD5",
"mX c #F7E8C6",
"MX c #F7EED5",
"NX c #FDF4D8",
"BX c #EAE5D1",
"VX c #F9F7E7",
"CX c #FFFEFC",
"ZX c None",
/* pixels */
"ZX>X*XZXZXZXZXZXZX,XZXZXZXZXZXZX>X*XZXZXZXZXZXZX<X!.9.H.H.A.H.h.h.F.2.3.s.Q.E.,XZXZXZXZXZXZX=X*XZXZXZXZXZXZX,XZXZXZXZXZXZX>X&XZX",
"ZX>X*XZXZXZXZXZXZX,XZXZXZXZXZXZX>X&XZXZX1.J S W <Xp.A A f > X ] _ 8 f , r q E ,XE.p.s.ZXZXZX=X%XZXZXZXZXZXZX,XZXZXZXZXZXZX,X&XZX",
"ZX>X*XZXZXZXZXZXZX<XZXZXZXZXZXZX&Xh.#.L V > ; < ,X  , > > V 8 ' ) + > = = D H ,XH.E.s.s.L.#.` =XZXZXZXZXZXZX<XZXZXZXZXZXZX,X%XZX",
"ZX>X*XZXZXZXZXZXZX<XZXZXZXZXZXZXg.h.0 < > > , Z <XC V V V Z n ' ) , V < A u.p.<Xr.,.d.m u.q.h.%XZXZXZXZXZXZX,XZXZXZXZXZXZX>X%XZX",
"ZX>X*XZXZXZXZXZXZX<XZXZXZXZX8.s.3XQ 8 V f f > f ,XV V G W W b U.( n V 8 $ L _.4XW.,.F.:.t { h.j.| ZXZXZXZXZX>XZXZXZXZXZXZX,X%XZX",
"ZX>X*XZXZXZXZXZXZX<XZXZXZXD N E.qX! 8 , 8 4 0 J <XW D n 4.4.u.2X` J y.I.~.(.H.=X|.rXH.2.S y ` g.X.;.a ZXZXZX<XZXZXZXZXZXZX>X%XZX",
"ZX>X*XZXZXZXZXZXZX<XZXZX>.e   J ` ( . I.(.E.kXvX,XnXBXkXqXpXjX0X` B (.vXzXtX(.<X(.L.].s.D t ` f.{ ;.o.d ZXZX,XZXZXZXZXZXZX>X%XZX",
"ZX>X*XZXZXZXZXZXZX<XZXu > > H   ! ` D A.i.I.sXqX,XY.zXBXCXCXCXeX0XbX~.jXMXyXY.<XA.K..XJ.;.i g.~ y s s s 5 ZX<XZXZXZXZXZXZX>X%XZX",
"ZX>X*XZXZXZXZXZXZX<XR 9X@ C E.s.g.( X X . % 0 0 <XW E.<.(.zXBXwX8XkXkXzXbX).R.,XH.G.3.-.2.{ h.^ d } s s 9 ZX<XZXZXZXZXZXZX,X&XZX",
"ZX>X*XZXZXZXZXZXZX,XR E.    f 9.g.g.2 < . > A F <XJ M L D S.#.` ^ #.9XdXoX.Xt.<Xp.>.=.,.;.| h.~ y *.N i t h <XZXZXZXZXZXZX>X%XZX",
"ZX>X*XZXZXZXZXZXZX<XE E.* a S t Q h.m . C >.3.p.5XI.b C L G L.h.7XsXiXtX~.G.u.,Xt.>.=.;.;. .f.^ { ;.8.;.3 h <XZXZXZXZXZXZX>X%XZX",
"ZX>X*XZXZXZXZXZXZX<Xh C o.s w 7 g.h...; G.s.2.1.:XiXoX4.(.X R.6X2XW.H.Q.M |.u.,XD N N  .w.C.!.^ 7 d d S 6 h <XZXZXZXZXZXZX>X%XZX",
"ZX>X*XZXZXZXZXZXZX<X<   a t S 0.U.6X'.V.OX|.6.u.=XrX+Xu.).E.W.3Xf.2.D.s.s.H.G >XS | 7.C.#XgX7XQ %.=.3 6 % C <XZXZXZXZXZXZX>X&XZX",
"ZX>X*XZXZXZXZXZXZX<X< e e 1 6XxX!.2X].}.[.w.5.d.<X(.+X9.L.dXH.` U.D.t.N S N h <Xi d.d.[.d.].h.6XrXi a 6 & < ,XZXZXZXZXZXZX,X%XZX",
"ZX>X*XZXZXZXZXZXZX<Xh i $ 8 5 tXeXf. .[.'.w.5.1.,XH.K.t.E.L.3.Y.' Z r p.i.,.r.,X:.5.+.q.%.d.j.!.M X F - 8 h <XZXZXZXZXZXZX,X%XZX",
"ZX>X*XZXZXZXZXZXZX1XX ^ a.o . r 3Xh.:.+.V.w.5.*.<X1.8.2.a :...g.( X - F * t.p.=Xj ;.[.V.;.t h.!   O   ; * h <XZXZXZXZXZXZX>X%XZX",
"ZX>X*XZXZXZXZXZXZX<XZXR W X < 8 [ h.,.D 7.C.w.2.=X-.o.=.N A m ` >Xp.t.S N p.H *Xd.G.V.q.:.5 ` !   = 8 6 * ZX,XZXZXZXZXZXZX>X%XZX",
"ZX>X*XZXZXZXZXZXZX,XZXZX$ q > , ) ' ..s.,.7.w.5.=X:.;.N D :.t g.` m t.A p :.t.<X;.&.@.s.s.u _ Q o w 5 - ZXZX<XZXZXZXZXZXZX>X%XZX",
"ZX>X*XZXZXZXZXZXZX<XZXZXZXq e   ) ! 4 G.2.5.e.5.<X*. .5.,.q.XX6Xf.X.;.-.;.+.s.<X;.@.,.s.o.9 / ~ 7 w ZXZXZXZX<XZXZXZXZXZXZX,X&XZX",
"ZX>X*XZXZXZXZXZXZX<XZXZXZXO g 3 / )   u.d.2.C.w.=X%.@.@.&.e.Z.Q.R.N.&.&.@.V.`.,X;.%.2.a S % ] ~ 1 ZXZXZXZXZX<XZXZXZXZXZXZX>X%XZX",
"ZX>X*XZXZXZXZXZXZX<XZXZXZX= f % ) ) % # o.s J.'.&X'.'.XX}.#XxX7X!.Z.aXxX#X}.`.,X[.5.a N e   ' ( X < > q ZXZX,XZXZXZXZXZXZX,X&XZX",
"ZX>X*XZXZXZXZXZXZX,XZXZXZXN ;.i _ _ 3 = > M H {.<X'.gXmX#X'.mXeXY.hXgXNXgXZ.{.,Xt.8 w q O 3 ` ~ @ - * q ZXZX<XZXZXZXZXZXZX>X%XZX",
"ZX>X*XZXZXZXZXZXZX,XZXZXZX9 a y _ g.} w   1.K.].=XZ.xXgX#X'.tX7X2XgXgXNXmXgX{.<XH N # @ u.9 / ` + - 4 6 ZXZX,XZXZXZXZXZXZX>X%XZX",
"ZX>X*XZXZXZXZXZXZX<XZXZXZXZXZX>.2X^ { ;.=.:.G.).,XV.Z.'.C. XBX0Xj.C.XXhXhXgXjX,XH 8 9 G.s.% ) ~ @ w 6 ZXZXZX<XZXZXZXZXZXZX>X%XZX",
"ZX>X=XZXZXZXZXZXZX,XZXZXZXZXZXZXh.h. .;.9.5.0. X,X].B.fX'.s.p.` j.B.N.$X$XfX!.*XF 3 OXOXt   _ Q % w ZXZXZXZX,XZXZXZXZXZXZX>X&XZX",
"ZX>X*XZXZXZXZXZXZX,XZXZXZXZXZXZX,Xh.} ;.5.0.G.Q.,XbXgXcXhX .t Q j.B.gX#XXXH.j.<X3 G.+XH # X ` ~ ZXZXZXZXZXZX<XZXZXZXZXZXZX,X%XZX",
"ZX>X*XZXZXZXZXZXZX,XZXZXZXZXZXZX*X*XZX*.5.G.6.d.=XzXNXVXmX$.9.j.7XmXMXlX|.iX6X' D.hXH @ > 4 *X&XZXZXZXZXZXZX<XZXZXZXZXZXZX,X%XZX",
"ZX>X*XZXZXZXZXZXZX<XZXZXZXZXZXZX,X=XZXZX+.8.;.,.=XuXfXjXBXxXrX6XwXMXMXlXtX,.t <XfXI.$ p - + ` ,XZXZXZXZXZXZX,XZXZXZXZXZXZX>X%XZX",
"ZX>X*XZXZXZXZXZXZX,XZXZXZXZXZXZX*X*XZXZXZX8.2.d.=XW.XX|.XXtXlX0X6X@XtX|.1.7 p.4XG X > M :.ZX<X%XZXZXZXZXZXZX,XZXZXZXZXZXZX,X&XZX",
"ZX>X*XZXZXZXZXZXZX,XZXZXZXZXZXZX*X*XZXZXZXZX;.g <XH.W.G.Q.].L.2Xg.6.2.t % i ).<X* * p >.S ZX,X&XZXZXZXZXZXZX,XZXZXZXZXZXZX>X%XZX",
"ZX>X*XZXZXZXZXZXZX<XZXZXZXZXZXZX,X*XZXZXZXZXi j <X2.^.jXyXoXP.3Xg.#.1.6 t |.u.:Xg 9 M N q ZX<X&XZXZXZXZXZXZX<XZXZXZXZXZXZX>X%XZX",
"ZX>X*XZXZXZXZXZXZX,XZXZXZXZXZXZX*X*XZXZXZXZXZXA ,X2.D.^.oXyX@XY.h.D.W % 3.t.f <XA 1.D 9 F >.,X&XZXZXZXZXZXZX,XZXZXZXZXZXZX>X%XZX",
"ZX>X*XZXZXZXZXZXZX,XZXZXZXZXZXZX>X*XZXZXZXZXZXj <X3.0.Q.oXiXsX0Xg.<.g a e   C <XS -.S 4 H B :X*XZXZXZXZXZXZX,XZXZXZXZXZXZX,X&XZX",
"ZX>X*XZXZXZXZXZXZX,XZXZXZXZXZXZX,X%XZXZXZXZXZXj ,X3.8.^.Q.kX@XY.U.B % p e 0 F <X>.O.M M p + <X%XZXZXZXZXZXZX,XZXZXZXZXZXZX>X%XZX",
"ZX>X*XZXZXZXZXZXZX,XZXZXZXZXZXZX=X*XZXZXZXZX=.j ,X-.J.W.W.jXiXU.h...w 4 2.s.A 1Xu.D a N M % ,X%XZXZXZXZXZXZX,XZXZXZXZXZXZX>X%XZX",
"ZX>X*XZXZXZXZXZXZX<XZXZXZXZXZXZX=X*XZXZXZX'.o.h ,X*.<.).W.s...` g.n > 1 K.H.A <X>.-.D 0 j $ ' ,XZXZXZXZXZXZX<XZXZXZXZXZXZX>X%XZX",
"ZX>X*XZXZXZXZXZXZX,XZXZXZXZXZXZX=X*XZXZXZX[.2.w <X1.>.L.jXrXM.U.g.u # 9 9.D D <X:.O.>.a q @ ' >XZXZXZXZXZXZX,XZXZXZXZXZXZX>X&XZX",
"ZX>X*XZXZXZXZXZXZX,XZXZXZXZXZXZX>X*XZXZXZX2.=.w <X-.D.s.D.Q.M.2XY.r.o =.,.0 :.,X4.L.M > q % %X>XZXZXZXZXZXZX<XZXZXZXZXZXZX,X%XZX",
"ZX>X*XZXZXZXZXZXZX<XZXZXZXZXZXZX*X*XZXZXZXs | A :X2.L.m.m ,.M.Y.U.n $ 2.G.A F =XL.p.9 ; w 1 >X%XZXZXZXZXZXZX,XZXZXZXZXZXZX,X%XZX",
"ZX>X*XZXZXZXZXZXZX,XZXZXZXZXZXZX>X*XZXZXZXS u :.>XH.G.9.;.<.].3Xg.u 4 2.s.p g <Xt.>.H % w ZX,X%XZXZXZXZXZXZX,XZXZXZXZXZXZX>X%XZX",
"ZX>X*XZXZXZXZXZXZX<XZXZXZXZXZXZX,X*XZXZXZXZXu :.,XH.0.0.+.F.].~.! + p ;.A 0 S <Xa * q t ZXZX>X%XZXZXZXZXZXZX,XZXZXZXZXZXZX,X&XZX",
"ZX>X*XZXZXZXZXZXZX,XZXZXZXZXZXZX=X%XZXZXZXZXN F >Xs.7.5.O.J.M.U.Q o -.-.$ u :.4Xp.% p 9 ZXZX,X%XZXZXZXZXZXZX<XZXZXZXZXZXZX>X%XZX",
"ZX>X*XZXZXZXZXZXZX,XZXZXZXZXZXZX,X*XZXZXZX; N u.4X*.7.+.2.G.<.U.Q @ N e @ 3.a.,XH & q ZXZXZX,X%XZXZXZXZXZXZX,XZXZXZXZXZXZX>X%XZX",
"ZX>X*XZXZXZXZXZXZX,XZXZXZXZXZXZX*X*XZXZXZX2 -.L.&Xs.8.3.9.H.>.` Q t -.4 t s.g 1XA 9 q ZXZXZX,X%XZXZXZXZXZXZX,XZXZXZXZXZXZX>X%XZX",
"ZX>X*XZXZXZXZXZXZX<XZXZXZXZXZXZX*X*XZXZXZX4 G.u.*Xs.;.J 2.F.u _ ) u -.N -.u.E ,XN u } w ZXZX>X%XZXZXZXZXZXZX,XZXZXZXZXZXZX>X&XZX",
"ZX>X*XZXZXZXZXZXZX,XZXZXZXZXZXZX,X*XZXZXZXN ,.3.,XS 9 + 9.G.$.h.Q 3 8.>.2.^.S <Xr.i 5.N ZXZX,X%XZXZXZXZXZXZX<XZXZXZXZXZXZX,X%XZX",
"ZX>X*XZXZXZXZXZXZX,XZXZXZXZXZXZX*X*XZXZXZXN 5.3.<Xp u 0.m.6..._ h.6.Q.H.=.>.s.4XF u %.o.ZXZX,X%XZXZXZXZXZXZX,XZXZXZXZXZXZX,X%XZX",
"ZX>X*XZXZXZXZXZXZX,XZXZXZXZXZXZX=X*XZXZXZXq +.,.,XC 6.M..XrXH.) Y.`.|.u.7.`.rX1X- e %.*.ZXZX>X%XZXZXZXZXZXZX,XZXZXZXZXZXZX>X%XZX",
"ZX>X*XZXZXZXZXZXZX,XZXZXZXZXZXZX,X*XZXZXZX- i =.=X1.9.5.3.H.L.U.~.].6.G.OXMXvX' 3  .,.O.ZXZX*X%XZXZXZXZXZXZX,XZXZXZXZXZXZX>X%XZX",
"ZX>X*XZXZXZXZXZXZX<XZXZXZXZXZXZX>X*XZXZXZXa y :.<X*.%.0.M.M.K.7XU.M.oX].mXnXg %X!.rXX.=.ZXZX*X%XZXZXZXZXZXZX<XZXZXZXZXZXZX>X%XZX",
"ZX>X*XZXZXZXZXZXZX,XZXZXZXZXZXZX>X>XZXZXZX+.%.8.,X8.J.|.XXfXNXeXY.xXmXmXbX=.=.*XuXyX$.1.ZXZX,X*XZXZXZXZXZXZX,XZXZXZXZXZXZX>X&XZX",
"ZX>X*XZXZXZXZXZXZX,XZXZXZXZXZXZX,X:XZXZXJ.].5.2.,XK.+X+XdXBXVX3XwXcXzXyXJ.oXH.>X9.6.s.o.5.ZX*X*XZXZXZXZXZXZX,XZXZXZXZXZXZX,X&XZX",
"ZX>X*XZXZXZXZXZXZX<XZXZXZXZXZXZX=X=XZXW F.4.0.8.,XP.].dXMXVXcX6XwXNXsXm.gXfX3.>Xs.6.6.,.>.<.n.=XZXZXZXZXZXZX<XZXZXZXZXZXZX>X%XZX",
"ZX>X*XZXZXZXZXZXZX,XZXZXZXZXZXZX,X&Xk T c Z v.] &XT.R.qXkXkXBX0XwXnXrXkXqX(.v.<XL W T T P l ' *XZXZXZXZXZXZX,XZXZXZXZXZXZX,X%XZX",
"ZX>X*XZXZXZXZXZXZX,XZXZXZXZXZXZX,X] : l l P P l.,XU z.l.l.z.z.;X;Xx.z.k.k.I U ,XU l.I I Y c ' Q ZXZXZXZXZXZX,XZXZXZXZXZXZX>X%XZX",
"ZX>X*XZXZXZXZXZXZX,XZXZXZXZXZXZX1X( #.M.1.[ T z ,Xb.c.c.c.b.z.;X;Xx.b.b.c.n.n.,XE W W v O   / ^ 1 ZXZXZXZXZX,XZXZXZXZXZXZX>X%XZX",
"ZX>X*XZXZXZXZXZXZX,XZXZXZXZXZXZX` U.&.m.].D 8.D.5XiX<.zXzXH.oX3X!.bXVXpX$.H.sX:XW.@XXXL.  o / f.t p ZXZXZXZX,XZXZXZXZXZXZX>X&XZX",
"ZX>X*XZXZXZXZXZXZX<XZXZXZXZXZXX.I.Y.{.+XG.K.{.+X4X/.|.mXmX|.fX7XeXNXzXA.K.).p.:XrX.X|..XF.$.h.~ 1 q V ZXZXZX<XZXZXZXZXZXZX,X%XZX",
"ZX>X*XZXZXZXZXZXZX,XZXZXZXZXx K ` Y.F..X].K.@XyX&Xu.OXsXNXtXxX0XeXNXsXdXmXsXsX4XlXH.O.y.].6.h.` b x l x ZXZX<XZXZXZXZXZXZX,X%XZX",
"ZX>X*XZXZXZXZXZXZX<XZXZXZXZXx k ) n.l W W K _.T.&X9X_.A.sXrXjX3XeXvXR.qXeXpXA.,X9XT.n.W T I n.] l c z T x ZX<XZXZXZXZXZXZX>X%XZX",
"ZX>X*XZXZXZXZXZXZX<XZXZXZXV z : ] ] P U P I P I ,XP U I I x.x.n.;Xk.x.l.l.k.k.,XI k.z.U I Y ;X( z l z Z N E <XZXZXZXZXZXZX,X&XZX",
"ZX>X*XZXZXZXZXZXZX<XZXZXZXo.o.n ` ' l Y I U P I =XI I I U I l.n.;Xx.I l.z.k.U ,Xl.l.l.I T c ' _ n D s | ZXZX,XZXZXZXZXZXZX>X%XZX",
"ZX>X*XZXZXZXZXZXZX<XZXZXZXZX*.{ g.g.X.8.9.F.F.A.>XA.~._.8X8X8X:X5X8X8X8X8X_.T.>XA.S.F.8.;...g.g.} ZXZXZXZXZX<XZXZXZXZXZXZX>X%XZX",
"ZX>X*XZXZXZXZXZXZX<XZXZXZXZXZXZX:Xh.ZXZX%.7.0.G.,XJ.XXOXdXsXlX7X0XcXlXfX+XXXK.,XF.7.ZXZXZXZX*X*XZXZXZXZXZXZX,XZXZXZXZXZXZX>X%XZX"
};
