/* XPM */
static char *result[] = {
/* columns rows colors chars-per-pixel */
"64 64 99 2 ",
"   c #153700",
".  c #1E3F08",
"X  c #1D4104",
"o  c #24470D",
"O  c #25480E",
"+  c #274713",
"@  c #2A4C13",
"#  c #2A441D",
"$  c #2E4E1C",
"%  c #2E5216",
"&  c #2F511B",
"*  c #305417",
"=  c #32541C",
"-  c #38551F",
";  c #365A1C",
":  c #395D1E",
">  c #354F2C",
",  c #2F5021",
"<  c #345423",
"1  c #395624",
"2  c #365921",
"3  c #3A5D23",
"4  c #37532A",
"5  c #39552C",
"6  c #3C5C2A",
"7  c #3E5A32",
"8  c #3E6124",
"9  c #3F612B",
"0  c #405D25",
"q  c #415D2B",
"w  c #425D33",
"e  c #445E3A",
"r  c #416527",
"t  c #446926",
"y  c #42642B",
"u  c #48652E",
"i  c #466A2C",
"p  c #496C2E",
"a  c #4C712F",
"s  c #456432",
"d  c #496634",
"f  c #476931",
"g  c #4A6D33",
"h  c #466439",
"j  c #49653A",
"k  c #4C6C3A",
"l  c #506D37",
"z  c #516E3C",
"x  c #4E7134",
"c  c #4F713A",
"v  c #517436",
"b  c #557937",
"n  c #52753B",
"m  c #59763F",
"M  c #55793C",
"N  c #597C3E",
"B  c #4B6543",
"V  c #4D6E41",
"C  c #516D45",
"Z  c #4F7042",
"A  c #557442",
"S  c #597643",
"D  c #577942",
"F  c #5A7D43",
"G  c #567549",
"H  c #58774B",
"J  c #5C7C4A",
"K  c #5F7C50",
"L  c #607D46",
"P  c #617E4C",
"I  c #627F51",
"U  c #5B803E",
"Y  c #60833F",
"T  c #5D8144",
"R  c #5F814A",
"E  c #618546",
"W  c #648946",
"Q  c #62844B",
"!  c #66894C",
"~  c #698D4D",
"^  c #6C914E",
"/  c #658552",
"(  c #688451",
")  c #678951",
"_  c #6A8D52",
"`  c #6C8C59",
"'  c #6D9153",
"]  c #6F9159",
"[  c #719555",
"{  c #739855",
"}  c #72955A",
"|  c #75995B",
" . c #799D5C",
".. c #779A60",
"X. c #7B9E62",
"o. c #7DA163",
"O. c #82A764",
"+. c #83A569",
"@. c #84A86A",
/* pixels */
"8 y 3 + s g 3 / J 6 y j 9 c G < U M T M c T T U M U R U U W W W t a M M ; 8 U 9 a U T U 8 i ^ x 8 D Z M x ; 9 T D ' ! Z U U x 9 ",
"y 6 3 g ) D 2 s f g k s A J A < a x T a i ! ! M M W ! x 8 a M t v ; * x U ! { x 8 M f i M M x M 2 x x M D f T ) ! ) R ! ! Z 9 a ",
"n 3 . = g 9 9 c J y y F } s 2 n V i x x x a i M i M ^ M 2 U W i 8 O ; U U M U i x M a i U U 9 x c U M U Z v T M M a 9 f M M U ] ",
"y 6 $ d A 9 c k F A f k k f 6 f T M Z c V a a ! a x ^ U t U W ; a a v ! M i M M ' a M x i T M 9 x i f a a T ^ U 2 i M U U U v 9 ",
", w 6 c G k c 6 n l u n @ v k y 2 M T 8 9 R U U i 8 x M i v U 8 ! ! v U c M ' ! U a T v x ' ! f c 8 i i a T W v T T T M Z U U M ",
"j j , , h k f 5 A q y ~ y N E N o V U 9 f M i f x 8 r x a U ' U U T x c U U R M 8 T T f T ' M x W M T M b T U v a 8 T  .{ ! W ! ",
"j k 7 9 J R 9 f k F ! v l ^ | v f U R T ! V 8 U ! T U M M W ^ U i M M ! ! M M M i ! M x T U a 8 x v W W W W M W ^ v M W U v W { ",
"< 5 7 6 G Z < Q ) F E u ~ a N N f R ! x x x 8 M x U T Z U { ] ! a i 8 M T f a U T x x U a 9 U 8 a U W W W U ; a W U W T a M ! ! ",
"V 4 j 7 h ` A D m x ~ u p v a p M V x M Z M x 8 2 x f ! c T : x ; c M ^ U 9 ^ W U W a % x M M M W { U 8 a t v T ; ^ a T a ^ U 8 ",
"/ 7 9 9 k A 9 A S n m 3 i N l t R i 2 2 i V V a M M a U T { i 9 8 T c W M 8 x x c U x f ! M x ^ U ^ T M a i a a U a 8 v { U b a ",
"H , 4 9 k j < s D J g : l ~ p : T V f i i f i 2 D T M a x W Z U 8 x 8 i x 8 9 i f M x U U M x ' a U M U v a T a T T U a W a b a ",
"V 9 j s A ) c y g n y g L _ y r V D Z U M f 2 , V R ! x c M a x W ^ 8 8 M 8 t x 8 M i i 8 M c R v a i v a b ! M a ^ M a 9 9 a 8 ",
"k k c 9 c ` J s 6 c 6 n F F y A x V x V R D f f { ) D 8 8 c a x U M ; ; M x a M t x 8 8 8 x M W T v a T M U R 9 M v 8 9 a t 9 t ",
"J c 9 9 y d f f g D d A n q 6 k V x 9 9 / ) M V ] ! c , & a a ! a 9 ; 8 U M a c T x t c U x x U 8 9 i T R M x % i v x 2 T 9 T a ",
") c 9 g x u k D k R F A z 6 f < V c 9 f / R x f 9 x x M a D 8 x ! M x U T M i a ^ x x U W c c M & 9 9 M T c 9 3 8 T R c M M W M ",
"g y 2 g n k n D 6 A Q H J z F , 9 V f 9 M V f R ] T 2 i 9 ! 9 D x 8 i M M U c M M i x i M M ^ U 3 M x a M 9 M M T R 2 ' R R 9 M ",
"J 6 9 6 Z 9 g ` y _ M p y L W N b E T E M 8 8 i ' x 8 ) c c 8 D 9 i M x U 9 U c i U i M M x ! i T 3 a T c M U ; W U i x x 9 U M ",
"K A 4 < k c Q c u Q v v p E N p 3 ' M g ! x 8 E ] D 8 a 9 ! T ! x U T T U i M x x x 8 U W x U Z M M ) ! i 8 i ; ; D T W M i f a ",
"J D & A A y Q A v m r l v b t ; 0 N M v v g v n U x 9 a a T D i U ! T ! T U W ! U M r M W x a ! T T M 9 9 U v 8 8 T M 9 9 a U ! ",
"k 7 + J k 9 k c ( E r n E L p t : p v v 8 i T p U 9 ! ] ) 9 x Z U T i M x T ! ) U W U V W M i T M M 8 ; M ' U 9 9 T M i U T c c ",
"6 < + 5 6 R g 2 ~ D : N W N p p ; T g 8 n b M T Z 8 U ! _ 9 D ' ! ) M W T W T T c T ! W ' M 8 M 8 M x x T T Z v U R U M W T i 8 ",
"s 6 < < s D f k l l : L W a t p c R n x n F Q D a 8 c c U x U U M ! R | ] ! U i U M c T W 8 8 W 3 x x 9 v D M ! ] T D i 9 c U ! ",
"k Z 7 f Q y 6 Q l n p ~ W l a L ) n n D 9 c _ i x D ! R R T T 9 i c U W W a x i ! U 9 U M 8 M W a M a 8 x ! T U U i R U a R ! T ",
"7 ) s 6 ` k d 3 r l u L b 0 t L D D 9 9 x c c g 9 Z ! T x c U x ! ' ' T D i W ! W ' M ! R x ! i 9 T ! T ! | ! 8 M i ! T x ' ' i ",
"Z / c k s & 3 6 Q n v 0 p % t W R 9 9 c 9 R V 9 T ! R x U & ! R ^ ] { x M U M ! U U V ' U M i D V U M T i M U ] M f x c M ] ! % ",
"/ D s A d & f / F ! [ F Y l E ^ R 7 H R R 9 9 Z 9 T T x ! M ! _ M ^ ' i i M i M U M x U V a a U ' ! ! ' ! M Z ! c ! M c { ) a x ",
"R H k V C D ) J D ) | m v v Y E Z V / 9 9 7 R R R M R T T W M T ' ! M 2 i M c U ..' ' ' ^ U W ' M ! ' U T ' | ' M ! U U { U i ' ",
"A A k Z J } Q = L Q E p : u N N 9 Z R , , V R R D R M T c M a T ..U i i c U T | ! T ! T ! x x x M U R 8 x T ] T T x x D c 9 M ' ",
"A 6 9 A / J f 2 ) F N n p b E W V V V V 6 9 7 T V T , x x M ! ' M c c U U U R ! M V U U T a x x M 9 i i Z i M W U i i x i 9 M U ",
"V k j s c c y n _ M n ~ m v b b 7 Z Z 9 , 9 2 V D T o a M U ' ! U U a c T ' ' i U M U U T U W ! x i x x U D W ' V M x x T M i M ",
"j G c $ s A y F ( l g E 0 t p l 9 Z Z , 5 Z V T R ! 9 M T T T ! ] U i U W ' | M M M x M i x a V U ' ! M a W T M x i x T ! T x i ",
"c s < < G c + A _ v y v * p W [ H h V 7 ] R V T Z D ) ) ! T T o.) U T @.' i ! { ' { ) ' U U i x U W M V 9 T U W M o 8 ) x x W 9 ",
"V 9 9 V Z U U V a i i a 8 i T U x g _ x i v R T T ' v v W [ ^ p x ) ' R ! ) R R ! T c c x T ! V U U 9 ! { ' M W M U o.U i 9 U T ",
"Z 9 9 9 V V f 9 i V a Z U U ' ! 9 T R : n ! ~ T ~ W N '  .E N N | c M ) R ' ] R .._ R _ ) T ! T T U 9 ! ! ! V v c M R U U ' ! M ",
"R 7 2 f D Z i 9 Z ! U T ! T W T 9 T D % T ~ n M ! E b ~ ^ v N  .o.W ) ' M x M M } ] ^ ..} U T T ! R U ! c x 8 * M U i f x ! i 2 ",
"R V f V D M x V ] ..T T ! U M M T T T n } T g b F W E E E N U ~ 8 ! ) U T T D { U ' ] T ! Z T M U x D U x U c i ! ' f x M c i x ",
"R R V V D f i R ! ! x U ^ T U U D c _ T T b c b E ~ ' E W W v p U ] U a ' ! x M x ' ^ x T a U v M 9 M x f T D x U U 9 a ! i T ] ",
"V Z Z 9 V f f R i V a U ^ T T U 9 x _ p 9 x ! N ] T M b U N p N ' a t U T U U M ^ ' ! U { i U W ! x U a Z T x i c i 8 V ' i T T ",
"7 G 9 9 Z M V U i x Z ! U i M U 9 T ] p c ! _ T W x g a v v p [ ..! W ! U ; 8 a { { W x { x W ' _ c W M { ..W ! W T i ! ' M ! x ",
"Z R 9 6 Z U V x V M T ! i ; M W 8 D T 8 T N t x v x T T U b p W a  .{ U ^ U i ' ! { W ; W U ' ^ R i M 8 ' ' i x D ! x ' D T { M ",
"` J q L d n 3 k R T ^ ! M U T M @ T T T 9 T n T ' T ~ ! ' U T T ^ W b a W W U @.{ ^ T U U T W ' ! i R T ] T f ' ! ' U U ! ! ] R ",
"f 7 < k s k f S c M T ) M x a a R ` c 8 9 W U T N N ! T ~ T ' { W x W U a W { ' U v b T ! ! W U T 9 T U ^ R D ' T ! Z U ! T x 8 ",
"H J H A k k k v R D T ' c M M U M _ T M T T g T x N ~ b U x E W W x W U i T { ' W M U ^ o.| ^ W 9 ; i x U V U U Z U M T T M a i ",
"H Q ( z S H ) L R M T T U i x U D R c a T v 9 ! M W ] U b p b a W T M x W T v o.U x v T ! U M U i i U U ! U { T U ! U T U Z R | ",
"j z S 6 l F / A M V ' T { 8 a 9 ) T x 9 T a 9 U F E ' b U N W E ^ U f a W T x ] a i c U c 8 9 x c T ' ' ] W ] T T ! U R ! T ' o.",
"S H J 6 n A F y T T ' M ^ 8 U U R U T T T 9 a T E T T x N N [ { { V U x c ' ' M x U ! ^ M a x U M T ' U ^ T M c i V i U { ) R U ",
"l C S d J ) / g M ! M a 9 a U T Q c T c 9 8 ! ..W T N a b v E W ' V M T T ..] V M R ] R D c v M U T T i ] ] c T 2 a x T ] R M i ",
"6 k z k z J n 6 c ' M T 8 T 9 ! ! 9 T T W v T v E m E M N t v M D x 9 c ..] x T R ) ! D Z M M c U c x 2 { o.x ! M { { ' ) U M a ",
"k R g D k M E E M D R Q 9 j k ) l - b m - z P S A ` l E E ~ ! Y z S ( ( ^ l W p N ~ b W a ~ a m ' V T W ..T x T T T x N T y i F ",
"g A d n M D W F T ` ) g 9 R H Z m u L l - l L L m P S F T E U N J ` L [ L ~ { { O.{ Y Y b ~ p v T i W R T 9 T T 9 M o.8 T   p x ",
"A R D D D M v - b c c 3 c Z c H 0 u L l q l L S S D Q M T N x v y Q W ] L W W L ^ b b b E W x M U 8 T R c U T U M R R x M p F F ",
"< k f J n _ m p x f k 8 J k 9 ) u L L L m P P ( S k L g W T x M z L ( a l a W Y b t v b ' N v D c x ' ! c T U 9 ) ' : ! v +.~ _ ",
"& s < R f ] D Q n Q ) u / / H R m L u - 0 d C L S u D g Q E v U Q ` { v N b Y ^ Y b Y L ' x f A f ' ..R R D 9 T Q E k ~ Q Q Q Q ",
"D G s G 3 F y n F n n k ) ) Z H ( ( l u z C L I z f k A ~ E M T D _ E E L ^ v Y O.L ^ b J y 9 A D ] D a R ] 9 T L M m ' ( v L F ",
"H j f A k D y v F y 9 n R K k R m l 0 S L j S S j n c _ _ T b T W E p i a W a { L m L l g 9 s J R D 9 8 T } Z T Q F l ` F Q Q m ",
"G 4 A G ` A 6 q L L J / n ` H R L z w S S q S P d / A X.` m b T ! M E l  .~ b ^ t u b p g j s J i x Z M 8 M T R ) Q n m f l Q n ",
"0 C I j P j u u l n u z g S S P S d P I S S P j h / _ k g F M b m b m W E p a ^ N E l ( g = d K 6 F ) A J F f Q } F D F k g D n ",
"w j e j l u d I ( Q n m d d q 6 l L I L j z C 0 C c k s 9 i c ' ~ L N M i t N [ E N L k 3 n s / R Q Q F ) F d ] ` S A P D S D n ",
"# > > j w u w P L S u l w m z A d L L w w l j 1 F A A R ! F T ] N z F m r t N N L M P F k / k H J Q F s n / D F _ A D Q Q J S k ",
"# e w w 0 e u d m l q d u S z z z S d 1 q j j q A H A Q ] ) T N n A ( Q u p L v N L p _ Q k G H F J A 9 n ` R J J A v F F D k g ",
"e e e # 0 w C l m L z P L ( S z L z 5 0 k C s s J G 6 k R F F c / F R c = 0 F v E ! u F k f J _ Q s s A J A d / c k g k n z k A ",
"B > w q u w S z S L m L S ( I ` P l q e A C s 5 I k $ A ) g M T H G A j q n _ ! ( Q ! v 3 Q F ] F s n A D A c R k n k j A F F / ",
"e > w e e d z u m L l l 0 q l m L d w d j A C w j j < J ` f c b H K / K ( } X.X.~ ~ [ L g _ F ) F / ] A k ] ] R n D A c / ) R / ",
"B B e w # j C u q z L P l l d L L w d w q S ` A s / A / ) c R F G H A A J ( ( ~ | | p F v g Q ] A A J f s / ` Q n H c c / / A F "
};
