/* XPM */
static char *result[] = {
/* columns rows colors chars-per-pixel */
"64 64 89 1 ",
"  c #5C5242",
". c #6D5D4E",
"X c #6E5F50",
"o c #6E6152",
"O c #746455",
"+ c #7C6554",
"@ c #7B6856",
"# c #766759",
"$ c #7B6659",
"% c #766859",
"& c #7C6C5C",
"* c #7F705F",
"= c #7D6F60",
"- c #7E7162",
"; c #826956",
": c #816D5C",
"> c #83715F",
", c #88725F",
"< c #847564",
"1 c #897664",
"2 c #867866",
"3 c #8A7966",
"4 c #847769",
"5 c #897769",
"6 c #86796A",
"7 c #8C7C6B",
"8 c #937C66",
"9 c #987D65",
"0 c #917E6B",
"q c #867F74",
"w c #8C7F70",
"e c #8E806E",
"r c #9B8167",
"t c #92816E",
"y c #9A836E",
"u c #8E8272",
"i c #8E867A",
"p c #938473",
"a c #998673",
"s c #968876",
"d c #9A8A75",
"f c #928778",
"g c #958A7A",
"h c #9B8C7A",
"j c #9F9075",
"k c #9E917E",
"l c #A2856B",
"z c #A98A6B",
"x c #B5926E",
"c c #A28C75",
"v c #AB8E73",
"b c #A18E79",
"n c #A09275",
"m c #A99476",
"M c #A2917D",
"N c #AE9279",
"B c #B49275",
"V c #B1947A",
"C c #BA9B7E",
"Z c #8B8988",
"A c #948D83",
"S c #9A8F81",
"D c #978E88",
"F c #9D9182",
"G c #9F988B",
"H c #9B9993",
"J c #A29482",
"K c #AA9783",
"L c #A59886",
"P c #AA9985",
"I c #A19788",
"U c #A49A8B",
"Y c #AC9E8B",
"T c #B09E87",
"R c #BC9D82",
"E c #A79E90",
"W c #AA9E92",
"Q c #AEA18F",
"! c #BFA287",
"~ c #B1A18C",
"^ c #BAA38B",
"/ c #ADA291",
"( c #B1A392",
") c #B3A99C",
"_ c #BAAA98",
"` c #B2AEA5",
"' c #B9B1A7",
"] c #CDA687",
"[ c #CAA68A",
/* pixels */
"273bpse76i67PYde75770SwpdFg7p;:<0a<7:<<>7724ppfd0d_Fusa2kd2p72t2",
"2<tp2ateefu6tFf<52pp7ghwhddp>11q71<4<<et&770wphSdhfppeuee<27y207",
"<2pg/Iu<2uquq77*:5q7ffpwqdapqtu2722&7aMd70p27gfSd7:kYusdh7<<77e7",
"<27pAF-<4eugfsp612<<sp<7s7tppihu4s0=0afasdP6fSff6tfFkkLtn01<,1u<",
"<7ee<.-7-kugeuusp22sd;:wf31pgd7t0pdw70U077sfFFF76udguffhete2pp7<",
"<Q/<te-2<fuu<7d7su44>+>f70q2FhsdhSww77Sp3gugAgg(puu777pMdttaaesf",
"7ggeupseuegu2p6ewfpqWb<bsqueFfuiwa0adJdppfFhGFuJiM7phtskL2aegese",
"O<&6epsefe6<ufwU75p:0E<chss66ufk70w7puspfgipst7s7t7pfpe7tjpgAisu",
"%6eeeeieSfuup2Q)dhp0pFhddP0s74shwfp0dbJdhhspkdd<1mhp7727Msteehs4",
"psiuseuseeu-e7ppadppJs7sfwbpwdpp>4pdhKbdJapfMpa9127pJhId<<Ufdd7u",
"tgue--2eu2eseeufsp7s7wps0ahw7772;0pbhMdJUps4hdy3>>23JMsUpuigptue",
"eepfgeeL6tapffepdfwusta0pdp5>>=7pdadbhbM70Ypthhp00afJhce7e1tapgp",
"spSggee>*MsugggGs57770070aaw<5770pdchSSa0&T~apF03ttFkIhu2p0pdwug",
"suip6t77esigfggMbwh7==<>50p0yp7<w7dcp0073Otpdya,M82efp7yphpppdpp",
"pheetttt6ekiggffufp>X=4p0dsppps7<5w0700ss2@yshytJ1hf<3thh7geu0p0",
"e6e-trts&2eeigsffSw4w><777pfyp2e00555>570da3772ay>`U>pdshJg7U)g<",
"<277etdF177ufupspu^007702eyaetMh7pa2<2gphp7p72322737dp2tedst77&2",
"2**<<2kppsppyChpw8V5&100eyetdty777b7<uJp7p577<pp<taaut<7e2277<@q",
"&*&><<76aafd7NJ7wa=7Mwt&,331y3827p22<>5att0027762hee2<<76sJ7>Pd<",
"*O**>-uFspwphuuw7p47y7u<3t3127tt7ds22<2<277yp21:%eat77h7<e72&hMp",
"2O<<e*u-sph0fset2722-27p3t31r7at00724771tp07a<11,<-77gs72t<*3t22",
"&&<O%7p<dw0p7sh7tt32<<h7aat3,23e>77p&<3tspa012712<2fuhs3ee2*aM7&",
"71&7JY-Jg/(627713tBl<<7ptetiee2<0w47#>7227472775><7eu0y36fae*<3<",
"p7odYQ%.4w6&2<212y[N-tpuggauukfep$$><:7<<77uutt4*7egusx1ks-6-if7",
"<76<jf622e@*7<&1eyRatsa7tsggkgpe4+-4Fs7p72<usdap7<uhupd7fpk67gf6",
"upe*&y&227~7-&<33uadsj3kjiuiieee12-4du6>22tPtpda7dps4<77ppkfu<<t",
"ps2te3>2<7h>1O276thkjteaksgteetty7:.O=22u77pu7dp7775;1702uetetha",
"eFt7e22><2-7w#-7t7theetfehkspeyt71+&7<<>e,7<&up0=>&4y02tketesee6",
"etpe6e2O*a%uAp<<eeeepfds2efk7pta7<>Xwd7<72t<5p0p447707<qUhhussed",
"stte>32@<<&qg2-<1ea7pkattU727et3dw&X:<2#a7ppwww0pp0<=-4FUk%-edhM",
"es3*6**2&-=-e7tetp32*gktd7Peeptt<f2&9B772psp070pppd7- JY~g@esgeu",
">ey**&t62<-&7Jgt7tee6>7it2Je6de7d7+1CR,qduudgtpdpa57<&/Ww<>%jspt",
"7*[n%&&t<6w7Ou2shhd7skt23tt33eeaf7+&vM9spp0dfpfpttdM2477y&;&2hdp",
"estm<>gg7777<#7hPMJPe2*&>>teeetUgp7<7geM0pdfufe7datp7&&7&<70dJa7",
"tkjee7eggq<p1&ypsps~~<e7ee2eeye<7p<<7=4&=pdJdf7100322*t<27taah77",
"3aaedt2pu7:pf770s17uFgGFk66eee6pst<&5pp7OgJhghp71030>b770177dpa7",
"hsshpa2>0t,tpt2p740f6Aggif*2ee2ps5>7w0uf$fJ07g77y7pt&2egp777pJf7",
"ep*gIet<&<pp3phJpf7gFFUgee6gj3et:><a7p77=4wSf-7777t7><ut00shkps4",
"66<-7ss37<ggPppeppfd6fse6ifSjekt4&ww0f77174pdp2pyt0<&gu6p5pptee2",
"e2<e<4272g72ks7<pfff77deeiHkdefg14#>0w0X7h0>&77pe27><kief0t2pM7s",
"teiee221>7e,2ee<747pteeu6e6eefeew&&2=7q$w(dfs3107><10d72pdp0s70p",
"iaepke,*a77tey8l7&7ttp7iufueeue24p72&>sp7SdJ202772<277+,0daphp7b",
"eeehfepp1dJ223c]y77tssp7ufgu6MF>yfu7227057w5330g7<74=47aafapdthp",
"ee6esh3s7ptttuV!r1gf6aghkgFuee*aauufqp47p007#q7>&&5455ppdd04d77&",
"es3ksfke&>tse6ekasathdseAfeup<2shufgfSd7p40W>>#&&<70t277ajeet&0h",
"espsMts6&e7deetdgjatdkufute7tts7sAggfpppp1O6<<251ppad222edeeu62f",
"u&-eeLgaphsQyeekjt7psdkdpp7ard<<pppgff2su2&&5&21pdppee2<<2-e2ed,",
"<66e662skjaaae3ejussspfkh7pppSu<7qiupgsqId014772ypp0Vt&<*>*ee%es",
"6uiefeijhe7ak6skfhfatpFq77p7shtpppwNdpp3Rm#>0t8tpyp0717<26-ue*uu",
"eeq-heupegYaau*7=7Istsdd7p7077pdpd7v^p7p1&h7t1>7717y12ap3-e*QQee",
"epueef-eketp&<2O&&2tgt7~2edt070pwpdipp2gw<byu&<17,yz1hf4e-ueGFeu",
"ispuee<ej62a4:220p1>22p727y<57asfpfdww7<17<&2200037p7sfde6f&e-6e",
"pfekuuee7pppbd05-yMt:15a7271<2d70awfF70p127<#<70yy822sfFuu*.**ee",
"eufiiu2th7h05&7c<tatpp<28eu127fI(d47277a<&#<aw:03232<p<7ueeeuuei",
"eeu-eee2ds7p5=O>3pMdn0223sw<22ppS727227637p=05<7thg312&aeseeueee",
"eeQueyue775p770577dht7557Up:<177##1hFei7p2<&&1&JYFeta77<pspeeisu",
"7t7<dtqp2<w5>5ha07pdppa50app272<dU7adhde<=22<&7dsshput27e*sgsgkS",
"p7<7Jfp7125w5wSw0ahugfw04aps0<<2bUSddJsfp27><<uttJuhf:&7>OOeeApu",
"etpp7gSp7wJb0400053<7csP70ydt3225q7sf7cs3a>U':7ahkhpe>17>O<2puue",
"ryt:7sh7>7fw0=55>pS57pd_Pfdhy7&ay&-7ppdw2<1fd0f7tthIpddhjeesuueu",
"usD>777755ww7w450SZ5awhPfbhds<<pd3O@:777<3utass3ae2<ehktdpeegeet",
"ekst0pw550Saph7a770<500awap072<&20&&&1077dIee7eepeekdhuttkf6e2up",
"e7eddpp74pw0Jhhh5JJ1wgpahLSwtu7&O&:&>307><tate-et27sdeeLkteeeeet",
"t77tppfw5>wwbPw50ff55pf7J(d0df7*>M><<><2<2222eukteje7Js2at2Mj>ss"
};
