/* XPM */
static char *result[] = {
/* columns rows colors chars-per-pixel */
"64 64 255 2 ",
"   c #030303",
".  c #090908",
"X  c #0C0B0B",
"o  c #190A07",
"O  c #130D0A",
"+  c #0F120D",
"@  c #1D1104",
"#  c #15120D",
"$  c #1C140D",
"%  c #070D13",
"&  c #151512",
"*  c #1C1613",
"=  c #161917",
"-  c #1C1A16",
";  c #1D1B19",
":  c #2F1804",
">  c #23160D",
",  c #35150B",
"<  c #231914",
"1  c #2D1D15",
"2  c #221D19",
"3  c #291E18",
"4  c #331D14",
"5  c #1C2E0E",
"6  c #22211D",
"7  c #2B221D",
"8  c #232919",
"9  c #3C2216",
"0  c #34241B",
"q  c #3B251A",
"w  c #39261B",
"e  c #263619",
"r  c #373018",
"t  c #272624",
"y  c #322A25",
"u  c #3D2C23",
"i  c #342C28",
"p  c #2C3525",
"a  c #393526",
"s  c #2F2D34",
"d  c #393934",
"f  c #571C0B",
"g  c #442517",
"h  c #432B1D",
"j  c #4C2B1C",
"k  c #552B1A",
"l  c #4F301F",
"z  c #5A321E",
"x  c #63351E",
"c  c #6F311C",
"v  c #432D22",
"b  c #4A2F23",
"n  c #483527",
"m  c #533323",
"M  c #5B3523",
"N  c #573829",
"B  c #5C3C2B",
"V  c #483E35",
"C  c #553E31",
"Z  c #762B26",
"A  c #643A25",
"S  c #6B3B23",
"D  c #6A3A24",
"F  c #643D2B",
"G  c #773D27",
"H  c #1D4104",
"J  c #2B4918",
"K  c #314817",
"L  c #2E5118",
"P  c #32531D",
"I  c #365A1C",
"U  c #2F4223",
"Y  c #364728",
"T  c #355423",
"R  c #395527",
"E  c #3B5D23",
"W  c #3A542B",
"Q  c #3D5C2A",
"!  c #3B4731",
"~  c #3E5832",
"^  c #3E6125",
"/  c #3F602A",
"(  c #544A2B",
")  c #425D2A",
"_  c #494437",
"`  c #5B4538",
"'  c #425C33",
"]  c #455B39",
"[  c #585537",
"{  c #64422D",
"}  c #6D432C",
"|  c #75432B",
" . c #7A4428",
".. c #7C442B",
"X. c #6A4937",
"o. c #734531",
"O. c #754B34",
"+. c #7B4C33",
"@. c #7B4D39",
"#. c #655A32",
"$. c #7A5039",
"%. c #7C533D",
"&. c #416527",
"*. c #42642B",
"=. c #47672A",
"-. c #466A2C",
";. c #496C2E",
":. c #53652F",
">. c #4B712F",
",. c #456432",
"<. c #496634",
"1. c #476931",
"2. c #4A6C33",
"3. c #486439",
"4. c #4D6C3A",
"5. c #546935",
"6. c #526E3C",
"7. c #4E7134",
"8. c #4F713A",
"9. c #517436",
"0. c #52743B",
"q. c #57773A",
"w. c #56793C",
"e. c #597C3E",
"r. c #68663A",
"t. c #6F703A",
"y. c #5E5046",
"u. c #6F5B4E",
"i. c #785845",
"p. c #526D44",
"a. c #557542",
"s. c #597643",
"d. c #577842",
"f. c #5B7C43",
"g. c #55714A",
"h. c #577448",
"j. c #5D7C4A",
"k. c #6E7144",
"l. c #637946",
"z. c #617E4C",
"x. c #7E6455",
"c. c #786D67",
"v. c #833B1E",
"b. c #8A352D",
"n. c #833929",
"m. c #874328",
"M. c #83452A",
"N. c #84482C",
"B. c #8C4B2D",
"V. c #954A2B",
"C. c #844C33",
"Z. c #874A36",
"A. c #8B4C32",
"S. c #924E33",
"D. c #984A37",
"F. c #8B5234",
"G. c #83533B",
"H. c #895538",
"J. c #8C543B",
"K. c #935335",
"L. c #9A5535",
"P. c #995937",
"I. c #93553B",
"U. c #9B553C",
"Y. c #945A3D",
"T. c #9C5C3C",
"R. c #A35736",
"E. c #A3533C",
"W. c #A8573D",
"Q. c #A35D3D",
"!. c #AB5D3D",
"~. c #99613F",
"^. c #A5623E",
"/. c #AB633E",
"(. c #875A47",
"). c #8C5C43",
"_. c #935C43",
"`. c #965A46",
"'. c #9C5D42",
"]. c #855E52",
"[. c #A44A43",
"{. c #A35D41",
"}. c #AA5E41",
"|. c #A35749",
" X c #AE5953",
".X c #896248",
"XX c #946244",
"oX c #9B6342",
"OX c #95634B",
"+X c #9C634B",
"@X c #976A4B",
"#X c #896756",
"$X c #976755",
"%X c #9D6B53",
"&X c #927757",
"*X c #A46243",
"=X c #AC6343",
"-X c #A16946",
";X c #AD6945",
":X c #A3644A",
">X c #AB654A",
",X c #A36A4C",
"<X c #AD6B4B",
"1X c #B26444",
"2X c #B46A45",
"3X c #B6664A",
"4X c #B26C4B",
"5X c #AF704B",
"6X c #B3714E",
"7X c #BA744D",
"8X c #A66B52",
"9X c #B36D51",
"0X c #AC7354",
"qX c #A57459",
"wX c #B47352",
"eX c #BC7454",
"rX c #BB7A54",
"tX c #B8765A",
"yX c #B47A5B",
"uX c #BC7B5B",
"iX c #897468",
"pX c #987667",
"aX c #8E7970",
"sX c #A67A65",
"dX c #BC7D63",
"fX c #C17958",
"gX c #C37F63",
"hX c #5B803D",
"jX c #5E8144",
"kX c #5F814A",
"lX c #618546",
"zX c #658847",
"xX c #62844B",
"cX c #66894C",
"vX c #698C4E",
"bX c #658552",
"nX c #688451",
"mX c #678951",
"MX c #6A8C52",
"NX c #6C8C59",
"BX c #6E9154",
"VX c #719556",
"CX c #72955A",
"ZX c #769A5D",
"AX c #7B9E61",
"SX c #7DA164",
"DX c #84935F",
"FX c #BC835F",
"GX c #97857C",
"HX c #A78569",
"JX c #BC8467",
"KX c #AA8B71",
"LX c #C38566",
"PX c #C28C74",
"IX c #C99682",
/* pixels */
"^ *.E J / 8.E mXkX/ / / / p.g.T jXw.jXw.8.jXjXjXw.jXjXhXq.zXzXlX=.7.w.w.I ^ hX&.-.jXjXjX^ -.BX>.^ d.7.w.7.P / kXjXcXkXhXjXjX/ / ",
"*.Q E ;.NXkXT / / / p./ kXkXa.T 1.9.jX>.>.cXkXhXhXjXcX/ P E Q P 9.I L 7.e.cXVX7.^ hX>./ w.w.9.w.I 8.>.d.w.2.kXMXcXcXcXcXcX8./ 8.",
"0.E 5 I / / / / bX/ / kXSX/ T a.9.-.7.7.>.2./ hX-.w.jXQ e Q = e P J J w.hXw.jX-.9.w.>./ hXhX^ 7.8.jXd.jX9.9.jX9.0.9./ / hX7.jXBX",
"/ E L 2.a./ jXp.kXjX/ a.a./ / / kX0.0.9.8.7.>.kX>.7.d.jX8 e 8 ; 8 U U jXw.-.w.w.MX>.e.7.-.jXw./ >.>./ >.>.jXBXhXI / jXjXjXjXhX/ ",
"T ~ T p.d.4.a.Q 0.8.1.9.L / a./ ^ d.jX^ &.jXe.w.;.P W U & # $ X . + 8 W 9.e.vXcXhX;.jX9.>.BXzX7.8.^ >.-.-.jXjX9.hXjXhXhX/ hXjXjX",
"3.4.T T / 4./ Q d./ / MX^ jXjXjXH 7.d./ 2.e.-.2.,.p ; O ; 2 #   = # . . Y ,.jXe.^ jXjX>.jXBXw.7.jXhXhXhXhXjXhXhX/ ^ hXAXZXcXlXlX",
"3.4.~ Q kXkX~ / 7.jXMX9.>.MXZX9.1.d.kXf.kX0.E ,.p ; * ; 2 * X   X . = +   = t ,.-.zXw.7.jXe.>.^ 9.9.jXjXjXzXhXjXVXhXhXcXhXhXlXVX",
"T W ~ / g.d.T bXbXf.jX/ MX>.hXhX2.kXmX2.7.' p y ; - 2 & & &     . . . X # + & 6 ! 2.7.e.>.&.hXE >.hXvXzXzXhXI >.hXhXlXhX^ hXcXcX",
"4.W p.Q 3.NXa.f.d.7.vX-.;.2.>.;.0.2.8.8.! s d 6 & # O . .       X X % . . . & * * t ~ J 7.0.w.w.lXVXhX^ >.^ hXlXI BXhXhX^ VXhX&.",
"bXW Q ~ p.a.Q a.d.8.e.E -.f.9.=.kX2.T s d 8 X   O o * * O   . .   . . * = X   % & X ; Y xXe.9.MXhXcXjXhXhX>./ >.hXhX^ >.VXhXhX^ ",
"g.T T / 3.1.T *.d.f.2.E 9.vX=.I j.4.p < t 2 - - & < * < 1 t # O < * . o * & = t 6 = t t ~ 8.9.BXhXhXhXhX>.^ hX/ hXhXhXhXcX^ hX^ ",
"4./ p./ a.mX0.*.2.d.*.1.f.MX=.*.3.! y 6 = ; = 2 < X % = * 3 $ # & o <       . * = & = = 6 ! 9.zXhX^ / 9.>.hXcXjX>.cXhX/ ^ ^ hX^ ",
"4.p.8./ 4.NXj.,.Q 4.E 0.z.f.*.0._ i = X & - X # ; 0 u 4 < % ; & * v F o.A M 4     & ; ; ; t ' lXhXhX/ jXjXjXjX/ hXjX^ / hX^ ^ ^ ",
"kX4./ Q *.2.1.,.2.d.1.a.0.) Q ] y - = - - $ < v D N.A.D.M.A g m @.U.'.*X:X'.G.F v 7 2 2 t 2 p e.^ ^ / jXlXjX/ I / / hX^ hX^ hXhX",
"mXa./ / 4.1.2.d.8.j.j.d.6.Q <.p * 2 ; ; 1 h D C.S.S.D.V.V.B.K.*X<X>X*X:X:X:X`._.@.N v * < ; t 4.L / >.hXjX/ / I ^ lXkX/ jXhXjXhX",
"/ / ^ 8.0.2.a.d.Q d.xXh.j.0.p.2 * ; 2 4 j | T.-X^.R.T.R.R.R.=X5X4X<X*X*X{.:X:X`.(.G N 1 < ; * ] E jX7./ jX/ 8.jXjXjXE mXjXkX/ 7.",
"kX/ / Q p./ / CX*.mXq.;.&.l.<.< 2 * > l G I.:X-X^.!.Q././.;X4X6X6X<X<X>X>X{.:X'.`.(.i.b 3 ; # e jXE / cXhX9.hXI cXjX^ hX/ ^ jXhX",
"bXh.T T 4.8.kXa.-.zX0.9.7.jXY < $ < 0 } J.oX*X!.Q.!././.4X6X6XwX6X6X4X<X>X=X{.{.`.`.`.X.y 2 2 6 / jXBXcX/ / / I I jXlXcXjX/ hX/ ",
"kXkXP p.g./ kXjX4.e.&.7.9.q.r > O < g G.,XoX^.Q.!.!.=X;X6XwX6XrX6X6X9X2X;X}.{.'.'.+X$X].u 7 8 y / jXw.^ / hXhX^ I lXhX/ ^ ^ jXcX",
"/ ~ J kXp./ a./ vXlX) q.lXq.a < # 1 m +.oXoXQ.*XQ.R.!.}./.4X6X6XwX4X4X=X}.{.T.U.`.`.+X].n 2 i y ~ w.^ I 9.MXhX/ / jX8./ jXjXhX>.",
"Q T J T / kX/ E vXf.I e.xXq.n < $ > l  .T.T.^.*X*X{.'.Q.}.}.;X<X4X4X;X}.E.`.U.`.`.`.OX].C 3 y i W a.>.>.kXkX7.9.w.jXw.jXlXjX^ ^ ",
"/ Q T T / kX/ a.9.4.I z.xX2.n O @ > r S K.^.oX:X,X,X{.{.{.=X>X<X4X<X:X{.Q.`.`._.).OX`.OXX.3 t i ~ / 7.>.0.w.hXcXBXjXjX/ / hXjXcX",
"4.g.~ 4.kX/ / kX2.q.;.vXzX5.a @ # $ 4 x F.P.,X8X0X<X<X<X:X=X<X<X<X4X>X>X>X>X>X:X+X$X].OXi.0 7 y ! a.1.^ 9.kXjXjXw./ lXjX/ cXcXjX",
"/ bX/ Q CXa./ / *.4.&.l.7.) 0 o $ $ 9 x B.Y.,X<X5X;X4XwX6X<X6X6X4X4X6X4XwXwX9X<X8XqXiX#Xx.m = i ! kXkXjXkXZXcX^ jX>.BXjX7.VXBX^ ",
"g.kX4.4./ T Q / kX0.8.^ =.Y h $ $ $ g G oXqX0X0X6X6XuXdXJXuXuXuXtXuXJXFXuXuXyXwX0X0XsXaXaXi.4 t W d.w.jX>.w.jXBXw./ 7.9.w.BXcXL ",
"bXkX/ g.3.L / bXkXcXBXjXq.) v 7 $ 4 x OXHXHX0X0XyX0XyXJXJXPXLXJXLXLXPXJXJXyX0X@X_.XXOXpXGXaXB < p d.cXBXkX7.w.cX9.cXw.8.VXBX>.>.",
"kXkX4.p.4.d.bXkXjXBXZXjX9.( r 7 j | @XKXsX+XoXXX%.} G.).8XyXyXFXrXFXFXyX+XG.A l A o.Z.J.$XGXc.y t kXBXd.lXBXZXBXjXcXw.w.VXjX/ BX",
"g.g.4.8.kXCXcXT jXkXlX/ I a w $ | XXKXsXH.C.C.+.C.@.| G N.~.;XrXwXwX6XI.G S | C.J.I.F.G G #XGX_ = 4.cX^ >.jXBXjXjX>.7.jXw./ w.BX",
"p./ / g.bXkX/ E bXjXw.w.-.a 7 r .XHXHXM.C.P.R.*X).G Z S.K.Y.Q.6XrX;XU...C.A.G F N z G Z.G i.GXu.& W 5.:.w./ w.cXjX/ -.7./ ^ w.jX",
"8.4.3.,.4.8./ 8.mX8.9.&Xr.) 0 n &XHXXXB.S.P.+.b o y ].U.+XI.L.!.5X>Xn. .{.:XiX.   ` ` x C.+.aXc.  y.8XH.jXw.cXBX8.w.7.7.lXw./ 9.",
"1.g.8.L / g./ kXmX7.t.1X~.X.- { sXpXJ.K.B.f u.y.  ` pX`.:XF.N.R.<X>XG ..R.|.sXC 4 ].)., |  .iXc.: _.{..X>.cXcX7.w.-.>.jXcXjX9.>.",
"8.,.T T kX4.J w.mX8.oX=X/.P.6 ` HX%XB.K.B.| ).].@.`.|.|.;XK.c V.<X9XZ.| '.U.|.8XJ.A.B.G.C.C.pXiXv Y.<X,X/ w.jXcXw.H ^ BX7.>.cX/ ",
"<.Q *.4.a.s.f.4.9.5.=X!.eX'.9 u.KX,XL.K.P.*X~.:X0XyX<XQ.L.G v.V.<XwXJ.Z | '.:X*X{.T.oXOXOX_.pXaXn J.9X8XCXBXq.lXq.f.AXjX-.^ jXjX",
"s.' Q <.6.0.2.E *.5.{.!.2X=Xw i.sX,X^.*X~.~.:X<X0X0X:XQ.V.v.n.L.2X8X`.D.n.Y.0X0X>X:X,X+X+X$XpXaXV n.9X%XvXcX9.q.7.e.jXhXd.BXzXw.",
"j.,.R ,.d.a.2.*.e.cX;X1X7X6Xb O.,X%X,X0X5X-X<X0X0X5X2X!.b.V.B.D.3X8X+X`.U.S.>XwX0X9X:X8X8X%XpXaXV n.tX8X9.2.E P w.jX&.2.7.MX1.I ",
"z.6.,.4.s.6.4.0.CXZX+XeXfXLXC k XXqX8X<X<X<XwXwX6X2X!.R.V.V.S.{.3X0X$X$X{.{.}.Q.=X>X>X=X|.+XpXaXv G uX@X9.e.w.-.cXMX7.7.9.9.-.>.",
"j.j.p.6.a.<.1.f.xXcXoXeXeXLX(.o .X%XoXQ.!.}.3X4X1X!.R.R.W.R.K.>X9XtXsX`.{.!.}.}.!.!.!.R.{.'.$XiXu n.fXOX2.f.e.7.hXjX/ >.kX>.jXCX",
"3.h.6.<.4.<.1.j.2.0.oX3X3XeXI.h $.XXT.Q.!.!.=X1X!.!.!.3X2XE.U.>XtXtXqX$X:X4X3X1X1X=X}.!.{._.#Xu.` OX9X&X9.lX7.;.7.>.^ 9.BX-.jXjX",
"*.p.<.Q 6.d.6.l.=.7.k.1X}.>XJ.{ O.).Y.T.!.!.!./.!.1XfXfX*X`.:X>XdXdXqXsX$XeXeX4X1X=X>X{.'.).].` y.sXsXk.CXAXlXzXkXkX2.kXMXw.kX9.",
"6.j.*.R d.jX4.7.7.q.lX&XeXHX0XB X.G.K.U.!.!.1X1X1XfXfXfXD.{.{.9XIXIX0X%X|.<XgXeX4X=X>X{._.(.i.V (.LXsX5.VXBX;.2.hXcX>.MXhXjXZXw.",
"NXz.Q z.<.0.E 4.kXjXMXMXHXFXyX} M $.Y.K.P.^.!./.3XfXfX7X/.D.b.<XtXtX`.G L.;XfXfX4X<X:XT.J.(.X.V @XqXNXjXBXjX/ BXkXVXjXjXkXcXBXjX",
"3.' T 6.' 8.-.f.8.8.jXMXt.qXuXG.l O.H.Y.Y.~././.2XuXfXfX4XD.E.`.[.`.@.[.U.<XfXuX2X2X*XXX).i.{ [ k.2.jXjXBXlXjXBXjXcX9.jXcXjX7.^ ",
"s.j.h.a.4.2.4.0.jXjXjXBXhXhXq.q.{ { | K.T.T.Q./.2XeXrXrX2XL.B.J.+X*XZ.Z.P.;X7XrX2X-XoXH.).$.X.l./ I / >.jX8.jXjX0.jX7.jXlX7./ / ",
"s.z.nX6.s.s.cXj.jXw.jXjXhX^ >.hX[ { } +.K.P.T.^.2X7XrXwXL.G D J.{.{.Z.o.Z.T.;X7X/.^.Y.).i.X.` s./ >.jXjXlXjXVXlXjXcXjXjXjXhXcXSX",
"4.6.s.E p.f.mXa.d.8.mXjXBX-.>.7.k.F } O.C.K.Y.^./.;X,XY.G D | G.U.U.J.| D O.J.<X;X~.Y.G.O.` [ 8.w.jXBXMXBXlXVXlXjXBXjXcXcXjXBXSX",
"s.j.h.' 6.d.f./ jXjXBXjXvX-.7.hXj.( A } H.F.K.^.R.~.~.| ..S.D.E.[.E.|.D._.o.+.XXY.P.H.G.X.` :.f.w.jXMXhXBXjXjX/ / >.^ jXVXcXjXjX",
"3.a.d.3.j.mXbX2.jXkXhX>.^ ^ -.jXxX[ { | O.C.F.P.K.XXJ.{.U.D.D.D.D.D.D.F.Z.b.G.T.XXXXG.$.X.y.6.q.jXjXjX>.VXVX7.jX^ / / cXBXlXhX/ ",
"Q <.6.<.a.j.0.E 9.mXhXzX^ jX;.cXxX[ ( z } +.F.L.H.XXI.Z.k b .XKXHXKX&X#X, c I.+XXXJ.%.O.$.5.0.0.jX0.7.I VXSX7.cXhXZXVXBXMXjXjX/ ",
"4.kX1.s.7.w.kXjXe.d.kXkX/ 4.4.bX5.( B m F +.C.P.^.^.~.v.c Z b.D.(.`.b.b.Z n.Q.@XY.H.O.o.C l.>.q.cX9.kXzXCXe.9.f.e.lX0.e.f.&.-.hX",
"2.d.2.a.w.d.cXd.jXBXmX2./ kXd.g.q.#.{ h M | +.K.^.~.~.R.V.b.[. X[.[.[.D.U.T.;X-XoX(.} N a q.;.9.jX/ cXkXf.7.l.lX;.e.AX^ f.5 ;.9.",
"d.kXd.d.w.0.7.I w.8.8.E 8.a.4.j.) #.{ w b M ..F.Y.~././.Q.L.U.|.[.[.D.{.:X*X;X~.J.%.B u n l.2.q.e.^ jXlX0.q.xX7.9.xXlX5.e.7.e.e.",
"T 3.1.j.e.MXd.7.7.-.2./ jX4.~ bX;.r.} h 0 j | C.F.C.Y.;X/.^.=X^.Z.S.^.*X*X^.~.Y.H.X.N t C s.9.s.9.7.BXcXe.f.q.-.cXBXI cXw.DXvXBX",
"P / / kX/ CXd.kX0.kXNX/ kXbXh.kXl.r...A 9 q l {  .O. .P.;X;X4X2X4X>X2X4X<X^.O.$.$.C y 0 X.5.2.d.2.MXZXxXf.f.1.q.cXlX2.vXjXjXcXcX",
"h.h./ h.T kX/ w.jX0.d.4.bXNXd.h.nXk. .c j 0 g j z +.C.N.T.*XA.Q.<X*XoXY.T.H.} } { u 6 z @.' *.s.f.NXf.2.z.CX2.f.f.q.f.NXmX8.f.s.",
"kX/ p.a.p.0./ 8.jX^ Q d.kXbX4.kXq.#. .G x 4 @ h j }  .+.+.S N.`.*X:XJ.C.O.o.N N n 7 9  .$.*.~ j.lXf.) E q.CX0.f.xXf.4.MXf.zXxXf.",
"g.R g.a.NXd./ / kXf.kXkXp.bXj.j.e.r.M. . .k $ 7 0 r l N m F G.`.,X+XH.@.` B u v 6 O D H.i.2.3.j.-.2.0.q.) f.0.cXnXxXe.0.<.4.xX0.",
"W p.z.6.z.<.<.&.4.0.<.6.<.s.s.z.s.#.M.N.m.x 9 $ > < w h h { @.XX$XOX].O.N n u y   b Z.F.i.R <.j.^ kXbXd.kXd.1.kXZXs.d.s.4.2.d.0.",
"~ 3.] 3.6.<.<.cXxXxX0.q.<.2.Q ) 6.r.N.m.B.N.z : < > 7 v w N X.$.).(.O.X.m n <   9  .B.H.i.6.3.bXkXkXkXj.mXd.2.NXNXd.d.kXf.e.d.0.",
"U W W 3.' ' ' z.l.q.<.7.' s.6.a.<.k.A.m.B.B.G g 1 > $ 3 0 v B m F F m m w 0 . > A A.A.J.(.nX4.h.f.xXf./ 0.bXd.j.MXd.d.xXxXj.d.2.",
"J ~ ' ' T <.,.,.a.6.) <.<.s.5.6.6.r.B.m.B.B. .z g 9 0 > $ < 0 w u 4 v 3 &   4 M G A.I.F.i.q.d.d.j.kXf./ 0.NXkXkXj.d.6.s.j.d.8.<.",
"p.~ ] U R ] s.5.s.s.0.xXl.nXs.6.f.r.S.m.B.K.B.x k j j k j 9 : 1 1 1 > @ > 9 j } C.F.K.J.%.3.j.bXj.,.1.a.kXa.2.bX8.8.3.2.8.8.8.0.",
"p.Y ~ W ,.' s.6.s.l.q.z.s.mXz.NXxX#.B.B.S.S.S.M.x x k z } +.G.$.F z l g j k A B.I.I.U.I.i.] e p ! 1.8.a.a.a.8.j.8.8.8.2.d.h.h.bX",
"] W ~ ~ ] ,.6.<.s.s.2.5.R ,.) p U X.B.m.B.L.K.L.N.x z x x +.,XoXA...z x S D N.P.U.U.E.J.G.i.` 6 t ! NXa.8.NXCXkXp.d.8.a.bXbXxXmX",
"3.p.p.~ K 3.p.,.) q.l.zX5.] % u #XOXm.B.B.U.T.R.L.G | | S S oX~.N.| | N...C.T.*X{.{.U.J.@.].iXu.s s ] 1.,.xXNXbX8.d.4.8.bXbXf.f."
};
