/* XPM */
static char *result[] = {
/* columns rows colors chars-per-pixel */
"64 64 235 2 ",
"   c #000001",
".  c #010C0D",
"X  c #0D0C0C",
"o  c #050608",
"O  c #110F0F",
"+  c #14120F",
"@  c #1B100D",
"#  c #0C1413",
"$  c #091318",
"%  c #141313",
"&  c #1B1513",
"*  c #1D1916",
"=  c #1D1C1B",
"-  c #16191A",
";  c #110F10",
":  c #231B15",
">  c #2A1E15",
",  c #231E1B",
"<  c #2A1F1A",
"1  c #221713",
"2  c #2E130B",
"3  c #24211E",
"4  c #2B211C",
"5  c #33241D",
"6  c #3C261D",
"7  c #3C291E",
"8  c #362518",
"9  c #252422",
"0  c #2B2622",
"q  c #2D2926",
"w  c #2B2A2B",
"e  c #272829",
"r  c #312621",
"t  c #342A24",
"y  c #3B2B22",
"u  c #342E2B",
"i  c #3D2F29",
"p  c #35312D",
"a  c #3A322D",
"s  c #3B3127",
"d  c #272A31",
"f  c #323231",
"g  c #3A3936",
"h  c #363538",
"j  c #2F3031",
"k  c #461F03",
"l  c #432A1D",
"z  c #492A1E",
"x  c #41261B",
"c  c #562D1C",
"v  c #52311F",
"b  c #682C1E",
"n  c #432D23",
"m  c #4A2F22",
"M  c #512F21",
"N  c #5E2C25",
"B  c #433126",
"V  c #4B3224",
"C  c #43332A",
"Z  c #4B342A",
"A  c #4A392E",
"S  c #533425",
"D  c #5C3524",
"F  c #553A2C",
"G  c #5B3B2B",
"H  c #58362A",
"J  c #433B34",
"K  c #483D37",
"L  c #563E33",
"P  c #633924",
"I  c #6B3C26",
"U  c #633D2C",
"Y  c #6A3E2A",
"T  c #603723",
"R  c #7B3C29",
"E  c #783A28",
"W  c #6C332A",
"Q  c #5E402E",
"!  c #4B4139",
"~  c #5C4334",
"^  c #5E4A3B",
"/  c #58433A",
"(  c #66422E",
")  c #6C422D",
"_  c #74432C",
"`  c #7C452D",
"'  c #7A462B",
"]  c #624232",
"[  c #6C4532",
"{  c #6E4934",
"}  c #644B3C",
"|  c #6C4B3B",
" . c #604739",
".. c #744632",
"X. c #7C4532",
"o. c #744A35",
"O. c #7C4B34",
"+. c #744E3A",
"@. c #7B4E3B",
"#. c #7C523C",
"$. c #77513B",
"%. c #5B4A40",
"&. c #524840",
"*. c #5F5249",
"=. c #6B4E42",
"-. c #7D5442",
";. c #765747",
":. c #6A5C53",
">. c #765E54",
",. c #775344",
"<. c #7E6557",
"1. c #786D68",
"2. c #82392B",
"3. c #843B31",
"4. c #91392C",
"5. c #83452C",
"6. c #85492E",
"7. c #8D462D",
"8. c #934A2F",
"9. c #92462C",
"0. c #844C34",
"q. c #8C4D33",
"w. c #834D39",
"e. c #894737",
"r. c #924C34",
"t. c #984E32",
"y. c #934C3D",
"u. c #9B4C3B",
"i. c #97463A",
"p. c #8B5236",
"a. c #84533B",
"s. c #8C543C",
"d. c #8D593C",
"f. c #925236",
"g. c #93553B",
"h. c #9C543C",
"j. c #94593D",
"k. c #9B5B3D",
"l. c #995436",
"z. c #A45C3D",
"x. c #AA5D3E",
"c. c #A5553A",
"v. c #9F603E",
"b. c #A6613E",
"n. c #825544",
"m. c #845A44",
"M. c #8C5B44",
"N. c #825C4B",
"B. c #8C5D4C",
"V. c #955642",
"C. c #9B5443",
"Z. c #945C43",
"A. c #9B5C43",
"S. c #935D49",
"D. c #9A5F49",
"F. c #865F51",
"G. c #9A4E40",
"H. c #A44B46",
"J. c #A45442",
"K. c #A35D43",
"L. c #AB5E43",
"P. c #A25A4A",
"I. c #AD5A55",
"U. c #8E614C",
"Y. c #886047",
"T. c #946244",
"R. c #9B6244",
"E. c #95634C",
"W. c #9C634C",
"Q. c #9E6A4C",
"!. c #9A6949",
"~. c #876656",
"^. c #9B6554",
"/. c #9C6B54",
"(. c #946856",
"). c #9D765E",
"_. c #88705E",
"`. c #A36244",
"'. c #AB6344",
"]. c #AC6946",
"[. c #A4644A",
"{. c #AA654A",
"}. c #A46A4D",
"|. c #AC6B4C",
" X c #A76845",
".X c #B16446",
"XX c #B26C47",
"oX c #B2654A",
"OX c #B26C4C",
"+X c #BC684B",
"@X c #B2714E",
"#X c #A26552",
"$X c #A36C52",
"%X c #AC6D53",
"&X c #B26D51",
"*X c #BE6F54",
"=X c #A77155",
"-X c #AC7355",
";X c #A3735C",
":X c #AC7559",
">X c #AE7A5B",
",X c #B37252",
"<X c #BC7354",
"1X c #B57A54",
"2X c #BB7955",
"3X c #B4755B",
"4X c #BB755A",
"5X c #B47A5B",
"6X c #BC7B5A",
"7X c #AE704D",
"8X c #897469",
"9X c #977366",
"0X c #987866",
"qX c #8D7B74",
"wX c #937C72",
"eX c #826E63",
"rX c #A17363",
"tX c #A67B66",
"yX c #B97C62",
"uX c #C07D5D",
"iX c #C37F64",
"pX c #99857C",
"aX c #8F8379",
"sX c #A3826A",
"dX c #A8896B",
"fX c #BC8263",
"gX c #BE8469",
"hX c #B9876C",
"jX c #A78773",
"kX c #AD946E",
"lX c #C28063",
"zX c #C3896B",
"xX c #C18C74",
"cX c #C89582",
"vX c None",
/* pixels */
"vXvXvXvXvXvXvXvXvXvXvXvXvXvXvXvXvXvXvXvXvXvXvXvXvXvXvXvXvXvXvXvXvXvXvXvXvXvXvXvXvXvXvXvXvXvXvXvXvXvXvXvXvXvXvXvXvXvXvXvXvXvXvXvX",
"vXvXvXvXvXvXvXvXvXvXvXvXvXvXvXvXvXvXvXvXvXvXvXvXvXvXvXvXvXvX= vXvXvXvXvXvXvXvXvXvXvXvXvXvXvXvXvXvXvXvXvXvXvXvXvXvXvXvXvXvXvXvXvX",
"vXvXvXvXvXvXvXvXvXvXvXvXvXvXvXvXvXvXvXvXvXvXvXvXvXvXvXvX- + - 9 vXvXvXvXvXvXvXvXvXvXvXvXvXvXvXvXvXvXvXvXvXvXvXvXvXvXvXvXvXvXvXvX",
"vXvXvXvXvXvXvXvXvXvXvXvXvXvXvXvXvXvXvXvXvXvXvXvXvXvXvXvX= % * 3 % 9 9 vXvXvXvXvXvXvXvXvXvXvXvXvXvXvXvXvXvXvXvXvXvXvXvXvXvXvXvXvX",
"vXvXvXvXvXvXvXvXvXvXvXvXvXvXvXvXvXvXvXvXvXvXvXvXvXvX0 = = * * & % * * = vXvXvXvXvXvXvXvXvXvXvXvXvXvXvXvXvXvXvXvXvXvXvXvXvXvXvXvX",
"vXvXvXvXvXvXvXvXvXvXvXvXvXvXvXvXvXvXvXvXvXvXvXvXvXj 3 % 3 9 * O = % # % = vXvXvXvXvXvXvXvXvXvXvXvXvXvXvXvXvXvXvXvXvXvXvXvXvXvXvX",
"vXvXvXvXvXvXvXvXvXvXvXvXvXvXvXvXvXvXvXvXvXvXvXvXq 3 = 3 0 = % o % % = % X 3 e vXvXvXvXvXvXvXvXvXvXvXvXvXvXvXvXvXvXvXvXvXvXvXvXvX",
"vXvXvXvXvXvXvXvXvXvXvXvXvXvXvXvXvXvXvXvXvXvXq p 9 , 0 = * = o X # ; + % % % = e e vXvXvXvXvXvXvXvXvXvXvXvXvXvXvXvXvXvXvXvXvXvXvX",
"vXvXvXvXvXvXvXvXvXvXvXvXvXvXvXvXvXvXvXvXf g g 0 * & * % O X X X % - - O ; ; = & , e vXvXvXvXvXvXvXvXvXvXvXvXvXvXvXvXvXvXvXvXvXvX",
"vXvXvXvXvXvXvXvXvXvXvXvXvXvXvXvXvXvXvXf J 0 # X & % , , % X O + X ; % * = % X % - % 9 d vXvXvXvXvXvXvXvXvXvXvXvXvXvXvXvXvXvXvXvX",
"vXvXvXvXvXvXvXvXvXvXvXvXvXvXvXvXvXvXp 9 w 3 3 3 : , , < 5 t = * , , O & = = , w 9 = e d f vXvXvXvXvXvXvXvXvXvXvXvXvXvXvXvXvXvXvX",
"vXvXvXvXvXvXvXvXvXvXvXvXvXvXvXvXvXg q 3 3 9 = 9 9 % $ = , q * * , 1 < o o . % 3 , = 3 = e f vXvXvXvXvXvXvXvXvXvXvXvXvXvXvXvXvXvX",
"vXvXvXvXvXvXvXvXvXvXvXvXvXvXvXvXK f , + * , % - 3 t n 6 3 # 0 = 1 B [ ..U H r   . = 3 3 3 e vXvXvXvXvXvXvXvXvXvXvXvXvXvXvXvXvXvX",
"vXvXvXvXvXvXvXvXvXvXvXvXvXvXvXvXu , , 3 , > 4 m Y 0.r.r.6.U z S @.A.A.[.W.W.w.U Z r 3 e r e w vXvXvXvXvXvXvXvXvXvXvXvXvXvXvXvXvX",
"vXvXvXvXvXvXvXvXvXvXvXvXvXvXvXp , , 3 , 4 V Y a.f.f.h.r.8.8.g.`.}.{.[.[.[.W.W.S.-.H C 3 3 9 9 vXvXvXvXvXvXvXvXvXvXvXvXvXvXvXvXvX",
"vXvXvXvXvXvXvXvXvXvXvXvXvXvXvX0 3 3 9 5 V ..j.}.b.k.z.h.h.z.'.7XOX|.[.[.[.K.W.D.n.R H r < = 3 vXvXvXvXvXvXvXvXvXvXvXvXvXvXvXvXvX",
"vXvXvXvXvXvXvXvXvXvXvXvXvXvXvX3 3 , 4 S _ s.[.}.`.b.z.b.'.].|.,X@X|.|.|.{.[.`.D.S.M.-.Z q , * , vXvXvXvXvXvXvXvXvXvXvXvXvXvXvXvX",
"vXvXvXvXvXvXvXvXvXvXvXvXvXvX5 3 : 4 7 [ d.R.`.`.x.b.'.XX&X@X&X,X,XOXOX|.{.{.K.[.S.^.S.=.t 4 3 0 vXvXvXvXvXvXvXvXvXvXvXvXvXvXvXvX",
"vXvXvXvXvXvXvXvXvXvXvXvXvXvXt 4 % 4 z a.Q.R.b.z.b.z.'.].@X1X,X1X,X,X&X|.{.L.K.A.W.S.^.N.C q 0 u vXvXvXvXvXvXvXvXvXvXvXvXvXvXvXvX",
"vXvXvXvXvXvXvXvXvXvXvXvXvXvXy 4 * > S #.Q.`.`.`.z.z.x.L.'.OX,X&X,X|.OX{.'.K.A.Z.S.S.^.N.Z 0 u u u vXvXvXvXvXvXvXvXvXvXvXvXvXvXvX",
"vXvXvXvXvXvXvXvXvXvXvXvXvXvXB 4 * > V ' Z.v.R.`.[.`.A.K.K.L.{.XXOX|.{.{.K.A.V.V.S.S.W.U./ 4 p f u vXvXvXvXvXvXvXvXvXvXvXvXvXvXvX",
"vXvXvXvXvXvXvXvXvXvXvXvXvXvXA * & 4 l I f.b.[.}.$X}.`.K.`.{.{.|.OX|.[.K.A.A.A.S.S.B.U.(.} t t p g vXvXvXvXvXvXvXvXvXvXvXvXvXvXvX",
"vXvXvXvXvXvXvXvXvXvXvXvXvXvXC * 1 : 8 I p.j.Q.$X=X|.%X|.{.[.}.%X|.|.{.{.{.{.{.[.W.(.B.U.,.t q s J vXvXvXvXvXvXvXvXvXvXvXvXvXvXvX",
"vXvXvXvXvXvXvXvXvXvXvXvXvXvXt @ : 1 8 ) q.Z.}.|.|.|.OX,X,X|.,X,X&X&X@X,X,X3X%X%X$X).(._.~.A * p ! vXvXvXvXvXvXvXvXvXvXvXvXvXvXvX",
"vXvXvXvXvXvXvXvXvXvXvXvXvXvXi : : & l ' T.;X-X-X,X,X6XfXfX6X6X6X6X6XfXfX6X6X5X5X-X$XtXwXwX;.8 t J vXvXvXvXvXvXvXvXvXvXvXvXvXvXvX",
"vXvXvXvXvXvXvXvXvXvXvXvXvXB C r : x ) E.dXtX-X-X>X-X5XgXhXhXzXgXyXgXxXhXfX5X=XE.S.T.^.9XpXqX/ 3 a vXvXvXvXvXvXvXvXvXvXvXvXvXvXvX",
"vXvXvXvXvXvXvXvXvXvXvXvXvXB C 4 S _ U.kXtXQ.W.Z.#.[ #.B.=X>XfXfX6X6XfX5X^.a.( S G o.a.a.~.pX<.y u vXvXvXvXvXvXvXvXvXvXvXvXvXvXvX",
"vXvXvXvXvXvXvXvXvXvXvXvXvXs y > { E.jX).a.a.w.0.w.w..._ 6.R. X1X2X1X7Xd._ Y _ a.j.V.p.O.R _.aX&.0 vXvXvXvXvXvXvXvXvXvXvXvXvXvXvX",
"vXvXvXvXvXvXvXvXvXvXvXvXvXn 5 t Y.sXsX6.p.j.z.!.M...R p.V.j.b.7X1X].k.X.w.q.R Y H D ' 0._ -.aX:.1 g vXvXvXvXvXvXvXvXvXvXvXvXvXvX",
"vXvXvXvXvXvXvXvXvXvXvXvXvXu y A ).sXT.p.f.j.o.V @ u F.C.[.M.h.b.,X{.` ..`.[.8X%   &.%.b a.O.qX1.  =.#XS.vXvXvXvXvXvXvXvXvXvXvXvX",
"vXvXvXvXvXvXvXvXvXvXvX.XK.[ 9 ~ ).).d.f.p.c >.*.  / tXC.[.q.0.t.|.{.R X.h.#XwX .y F.n.k ..` 8X1.8 S.K.A.vXvXvXvXvXvXvXvXvXvXvXvX",
"vXvXvXvXvXvXvXvXvXvXoXL.XXj.4 ^ dX).q.p.p.E M.B.-.S.P.C.}.g.E t.|.&Xp._ R.h.J.#XV.e.p.s.w.w.0X8Xm V.{.%XvXvXvXvXvXvXvXvXvXvXvXvX",
"vXvXvXvXvXvXvXvXvXvXoXL.,XD.7 ;.dX/.j.f.k.!.R.}.>X-X{.A.g.' R t.&X%Xy.W _ A.[.[.`.k.R.E.E.E.0XqXJ n.&X%XvXvXvXvXvXvXvXvXvXvXvXvX",
"vXvXvXvXvXvXvXvXvXvXL.x..X'.C ;.tX}. X`.k.R.'.$X-X-X}.`.8.2.2.l.oX%XS.V.5.Z.:X-X%X[.}.E.W./.0XwXK 5.&X%XvXvXvXvXvXvXvXvXvXvXvXvX",
"vXvXvXvXvXvXvXvXvXvX'..X2X@XV +././.}.=X}.}.|.-X-X7X].x.9.9.q.h.&X%XE.S.C.g.[.&X,X%X#X#X^./.9XwX/ R *X#XvXvXvXvXvXvXvXvXvXvXvXvX",
"vXvXvXvXvXvXvXvXvXvXL.uXlXlXL N E.=X=X|.|.7X,X3X@XXX.Xc.9.t.f.K.oX:X^.^.A.P.L.K.'.|.{.[.[.^.9X8Xi 3.yX#XvXvXvXvXvXvXvXvXvXvXvXvX",
"vXvXvXvXvXvXvXvXvXvX'.uX*XzXn.@ Y./.!.b.L.'.OXOX'..Xc.c.c.x.f.{.&X3XrX^.'.x.L.'.L.'.L.c.K.R.(.1.C 3.4X%XvXvXvXvXvXvXvXvXvXvXvXvX",
"vXvXvXvXvXvXvXvXvXvXJ.uXoXuXg.m #.E.k.z.x.x.'.'.'.x.x.+XoXA.V.{.4X3X).^.[.OXoX{.'.'.'.L.[.T.~.<.%.E.*XrXvXvXvXvXvXvXvXvXvXvXvXvX",
"vXvXvXvXvXvXvXvXvXvXvX.XK.[.Z.~ o.U.j.k.L.L.L.'..XoX<X6X[.C.[.|.iXyX;XrX^.4X2XOX{.'.{.L.D.M.Y.%.=.rXtXvXvXvXvXvXvXvXvXvXvXvXvXvX",
"vXvXvXvXvXvXvXvXvXvXvX&X3XhX%XU { a.j.j.k.x..XXX.X<XlX2Xh.K.K.%XcXcX%X^.^.|.iX<XXX{.{.`.S.m.;.! n.zXtXvXvXvXvXvXvXvXvXvXvXvXvXvX",
"vXvXvXvXvXvXvXvXvXvXvXvXfXhX>X{ Q $.d.j.k.b.b.'.+X6XuX<Xb.i.e.[.3XyXD.R h.{.lXuXXX|.[.R.M.B.=.A ^.tXvXvXvXvXvXvXvXvXvXvXvXvXvXvX",
"vXvXvXvXvXvXvXvXvXvXvXvXvX1X5X#.S O.d.j.j.v.`.'..XuX4XuXXXl.J.C.C.V.w.G.h.|.6X2XXXXX!.Z.M.-.^ ^ vXvXvXvXvXvXvXvXvXvXvXvXvXvXvXvX",
"vXvXvXvXvXvXvXvXvXvXvXvXvXvXvXvX~ ( +.d.k.k.b.b.XX2X6X2XXXh.0.s.W.W.V.w.g.].2X2XXX XR.M.Y.$.=.vXvXvXvXvXvXvXvXvXvXvXvXvXvXvXvXvX",
"vXvXvXvXvXvXvXvXvXvXvXvXvXvXvXvX~ ] { O.d.k.v.b.XX@X2X,Xk.R ) s.`.P.e...p.A.].@X].b.Z.M.-.} ^ vXvXvXvXvXvXvXvXvXvXvXvXvXvXvXvXvX",
"vXvXvXvXvXvXvXvXvXvXvXvXvXvXvXvX^ ] [ O.a.p.k.b.b.].7XZ...I ..a.h.g.s...( o.d.|. Xk.M.a.$. .^ vXvXvXvXvXvXvXvXvXvXvXvXvXvXvXvXvX",
"vXvXvXvXvXvXvXvXvXvXvXvXvXvXvXvXvX~ ( [ a.d.d.b.k.R.T...X.f.u.h.J.J.J.h.Z...#.Z.j.Z.d.#.| ^ vXvXvXvXvXvXvXvXvXvXvXvXvXvXvXvXvXvX",
"vXvXvXvXvXvXvXvXvXvXvXvXvXvXvXvXvX~ ( { O.#.f.j.d.Z.d.S.k.r.i.u.G.i.y.s.e.e.a.S.T.T.a.#.| } vXvXvXvXvXvXvXvXvXvXvXvXvXvXvXvXvXvX",
"vXvXvXvXvXvXvXvXvXvXvXvXvXvXvXvXvX} F Q ) #.p.k.j.T.d.e.N H ~.kXdXdX).<.x b g.Q.Y.T.a.$.=.%.vXvXvXvXvXvXvXvXvXvXvXvXvXvXvXvXvXvX",
"vXvXvXvXvXvXvXvXvXvXvXvXvXvXvXvXvX| ~ S ( O.a.j.b.!.v.2.b E 3.i.S.S.3.R E 2.R.Q.T.M.+.+./ vXvXvXvXvXvXvXvXvXvXvXvXvXvXvXvXvXvXvX",
"vXvXvXvXvXvXvXvXvXvXvXvXvXvXvXvXvX+.Q n G ..0.p.v.!.v.z.r.4.H.I.H.H.H.i.C.k.].Q.T.m.[ G a vXvXvXvXvXvXvXvXvXvXvXvXvXvXvXvXvXvXvX",
"vXvXvXvXvXvXvXvXvXvXvXvXvXvXvXvXvX+.( n V ( O.p.d.T.b.b.b.h.C.P.P.H.u.K.Q.K. XR.d.#.G s K vXvXvXvXvXvXvXvXvXvXvXvXvXvXvXvXvXvXvX",
"vXvXvXvXvXvXvXvXvXvXvXvXvXvXvXvXvX@.[ n 7 V _ 0.p.#.v.].'.'.`.`.e.y.`.`.'.`.v.d.d.| F r / vXvXvXvXvXvXvXvXvXvXvXvXvXvXvXvXvXvXvX",
"vXvXvXvXvXvXvXvXvXvXvXvXvXvXvXvXvX@...P 7 7 S ( O.O.O.j.].].@XXX|.|.|.XX|.`.#.#.$.Q p 7 | vXvXvXvXvXvXvXvXvXvXvXvXvXvXvXvXvXvXvX",
"vXvXvXvXvXvXvXvXvXvXvXvXvXvXvXvXvXvX_ I v 5 z V Q O.p.' k.}.f.k.|.[.R.A.R.a.[ { ] a 3 G @.vXvXvXvXvXvXvXvXvXvXvXvXvXvXvXvXvXvXvX",
"vXvXvXvXvXvXvXvXvXvXvXvXvXvXvXvXvXvXO.E ) 8 3 l m ) ..O.O.) X.h.[.[.s.#.+.o.F F A q x O.@.vXvXvXvXvXvXvXvXvXvXvXvXvXvXvXvXvXvXvX",
"vXvXvXvXvXvXvXvXvXvXvXvXvXvXvXvXvXvX' 5.' v : 8 8 n S Q H ( #.E.^.W.M.@.] ~ C B r + I s.-.vXvXvXvXvXvXvXvXvXvXvXvXvXvXvXvXvXvXvX",
"vXvXvXvXvXvXvXvXvXvXvXvXvXvXvXvXvXvX` 6.6.I x * > 3 B B V ] $.U./.E.U.| F Z B y . M w.s.-.vXvXvXvXvXvXvXvXvXvXvXvXvXvXvXvXvXvXvX",
"vXvXvXvXvXvXvXvXvXvXvXvXvXvXvXvXvXvX6.7.6.` T > 4 > 5 C y F +.#.m.M.+.| F A 0 . l ..p.a.m.vXvXvXvXvXvXvXvXvXvXvXvXvXvXvXvXvXvXvX",
"vXvXvXvXvXvXvXvXvXvXvXvXvXvXvXvXvXvXq.6.f.q._ z < > * 4 t V Q Z ] ] H F y y # > Y q.s.s.N.vXvXvXvXvXvXvXvXvXvXvXvXvXvXvXvXvXvXvX",
"vXvXvXvXvXvXvXvXvXvXvXvXvXvXvXvXvXvXq.5.q.q.' P z 7 7 > : 4 7 7 n y n 4 : . 8 G ..q.f.s.n.vXvXvXvXvXvXvXvXvXvXvXvXvXvXvXvXvXvXvX",
"vXvXvXvXvXvXvXvXvXvXvXvXvXvXvXvXvXvXp.7.q.f.0.) c v v S V 7 8 8 5 5 > 1 1 6 V _ w.s.g.j.-.vXvXvXvXvXvXvXvXvXvXvXvXvXvXvXvXvXvXvX",
"vXvXvXvXvXvXvXvXvXvXvXvXvXvXvXvXvXvXr.q.f.r.f.` I D v D ) O.d.+.( D v z M D U w.g.g.h.s.n.a   % 9 vXvXvXvXvXvXvXvXvXvXvXvXvXvXvX",
"vXvXvXvXvXvXvXvXvXvXvXvXvXvXvX    | 7.7.r.j.g.l.6.I T T P 6.Q.}.p._ P U U ) q.j.k.h.C.g.n.;.%.0 d d vXvXvXvXvXvXvXvXvXvXvXvXvXvX",
"vXvXvXvXvXvXvXvXvXvXvXvXvXvX= a _.E.5.q.r.k.h.z.g.' _ _ I ) T.T.0._ _ ` 5.q.k.`.K.A.A.s.-.~.9X>.d h h vXvXvXvXvXvXvXvXvXvXvXvXvX"
};
