/* XPM */
static char *result[] = {
/* columns rows colors chars-per-pixel */
"64 64 256 2 ",
"   c #020202",
".  c #0B0201",
"X  c #050905",
"o  c #0B0A04",
"O  c #02040B",
"+  c #060B0B",
"@  c #0B0C0C",
"#  c #0A030A",
"$  c #140906",
"%  c #0D120B",
"&  c #14120C",
"*  c #191509",
"=  c #050D12",
"-  c #0B0D11",
";  c #030319",
":  c #150919",
">  c #0C1114",
",  c #0B1317",
"<  c #131414",
"1  c #12151A",
"2  c #191919",
"3  c #270901",
"4  c #231B16",
"5  c #2E0D0E",
"6  c #1D211A",
"7  c #27251A",
"8  c #392B18",
"9  c #030627",
"0  c #171B24",
"q  c #040935",
"w  c #17183A",
"e  c #0B1635",
"r  c #281637",
"t  c #2F142A",
"y  c #192330",
"u  c #262727",
"i  c #362B28",
"p  c #353833",
"a  c #312D31",
"s  c #4C1617",
"d  c #6A1018",
"f  c #4C3219",
"g  c #4C1931",
"h  c #46372A",
"j  c #443736",
"k  c #58383B",
"l  c #512E2F",
"z  c #6F2E2F",
"x  c #73222F",
"c  c #3C4539",
"v  c #584738",
"b  c #4F4731",
"n  c #6C4C33",
"m  c #6E582F",
"M  c #0A1748",
"N  c #171B49",
"B  c #09134C",
"V  c #2A1D47",
"C  c #19254B",
"Z  c #192657",
"A  c #142E54",
"S  c #272849",
"D  c #342846",
"F  c #262957",
"G  c #2F3551",
"H  c #183069",
"J  c #252D66",
"K  c #293667",
"L  c #373669",
"P  c #283875",
"I  c #343870",
"U  c #2A1D62",
"Y  c #4F374C",
"T  c #6B3947",
"R  c #483C66",
"E  c #394679",
"W  c #32476F",
"Q  c #33516D",
"!  c #484945",
"~  c #594A44",
"^  c #49554D",
"/  c #5C5548",
"(  c #545A55",
")  c #4E4958",
"_  c #6A5648",
"`  c #665857",
"'  c #775858",
"]  c #714F4C",
"[  c #59685A",
"{  c #576E59",
"}  c #766449",
"|  c #776755",
" . c #6C6A56",
".. c #4E5071",
"X. c #685868",
"o. c #6D546E",
"O. c #58667A",
"+. c #697768",
"@. c #6C7A74",
"#. c #777A76",
"$. c #726C6D",
"%. c #851A1A",
"&. c #8B1A2A",
"*. c #8D2C33",
"=. c #AD3033",
"-. c #8A4F3B",
";. c #927035",
":. c #8F3444",
">. c #B53B47",
",. c #885C4B",
"<. c #8D544E",
"1. c #B04F4C",
"2. c #8A6547",
"3. c #886754",
"4. c #956A55",
"5. c #997758",
"6. c #92714F",
"7. c #A4784D",
"8. c #A77758",
"9. c #B57B59",
"0. c #AC6B56",
"q. c #895567",
"w. c #996B67",
"e. c #987867",
"r. c #977877",
"t. c #896F6F",
"y. c #A87966",
"u. c #B67A65",
"i. c #AD7773",
"p. c #BE5A64",
"a. c #C27A6C",
"s. c #C34547",
"d. c #788478",
"f. c #728370",
"g. c #7E825D",
"h. c #A58738",
"j. c #97855B",
"k. c #8A865C",
"l. c #A88659",
"z. c #B8885B",
"x. c #B99857",
"c. c #AF884A",
"v. c #998566",
"b. c #878A7B",
"n. c #988879",
"m. c #979572",
"M. c #A88668",
"N. c #B68766",
"B. c #B99766",
"V. c #A88775",
"C. c #BA8B74",
"Z. c #AA9679",
"A. c #B99778",
"S. c #A69468",
"D. c #B4A575",
"F. c #C5985D",
"G. c #C4A558",
"H. c #C3896D",
"J. c #C69978",
"K. c #C9916F",
"L. c #C8A967",
"P. c #C8A778",
"I. c #D3A679",
"U. c #D7B777",
"Y. c #D2B26D",
"T. c #E6C27A",
"R. c #DDC17A",
"E. c #283D82",
"W. c #334C87",
"Q. c #475785",
"!. c #505489",
"~. c #5A688A",
"^. c #526990",
"/. c #6D718F",
"(. c #6B77A7",
"). c #5D6197",
"_. c #8A738B",
"`. c #A97A87",
"'. c #877AAA",
"]. c #B47FAD",
"[. c #728AAE",
"{. c #7B809E",
"}. c #7A9ACB",
"|. c #8B9487",
" X c #979A8B",
".X c #9C9E93",
"XX c #979D93",
"oX c #8B8891",
"OX c #A89788",
"+X c #B79885",
"@X c #AE918E",
"#X c #9DA294",
"$X c #9DA29A",
"%X c #9FA08E",
"&X c #B7A686",
"*X c #A3A495",
"=X c #A4A599",
"-X c #ABAC9C",
";X c #A6AA99",
":X c #B7B49A",
">X c #AEAB90",
",X c #8E91B1",
"<X c #B799AA",
"1X c #AA96AD",
"2X c #A9A9A3",
"3X c #B9A6A7",
"4X c #AEB1A1",
"5X c #B5B4A6",
"6X c #B2AAB7",
"7X c #94A1BA",
"8X c #C79984",
"9X c #CD938B",
"0X c #C6A789",
"qX c #D6A988",
"wX c #D8B987",
"eX c #C7A994",
"rX c #D8AB95",
"tX c #CBB898",
"yX c #D8B595",
"uX c #CBB386",
"iX c #E7B997",
"pX c #E2AD8E",
"aX c #CDB3AE",
"sX c #EBB9A6",
"dX c #CD9BAD",
"fX c #D5C292",
"gX c #E8C988",
"hX c #E8C699",
"jX c #F3C999",
"kX c #F3D494",
"lX c #D7C7A7",
"zX c #D7C8B0",
"xX c #F9C7A8",
"cX c #FCD8B9",
"vX c #EDD0B0",
"bX c #F9E7B3",
"nX c #9AABCA",
"mX c #B3B2CB",
"MX c #9194C1",
"NX c #CCB3CA",
"BX c #DFBBCC",
"VX c #BCC4DD",
"CX c #BCC9E9",
"ZX c #D4CCD2",
"AX c #F1D3CE",
"SX c #F7EACA",
"DX c #FBE9D7",
"FX c #FDF8D8",
"GX c #EFEBCB",
"HX c #CFD2EB",
"JX c #FBDBE6",
"KX c #ECD3E9",
"LX c #FDECF8",
"PX c #FCF9FD",
"IX c #EDECEF",
"UX c #DBE7FE",
/* pixels */
"*X;X4X5X-X-X-X-X-X-X4X4X4X4X-X:X:X:X;X4X:X5X4X4X:X5X:X:X:X5X5X4X3X5X5X;X4X5X5X4X4X4X4XXXf.f.+.f.{ { { f.f.{.d.+.+.[ { ^ * X 7 f.",
" X*X-X-X-X=X=X=X;X;X=X=X;X*X=X*X;X;X4X4X4X4X4X4X;X>X:X4X;X4X5X4X-X-X5X5X;X.X.X2X4X4X;X|.f.f.f.+.{ ^ { f.f.d.f.{ [ { ^ % % 8 +. X",
" X X.X*X.X X.X#X*X#X*X*X*X#X%X%X#X#X#X#X#X#X;X#X;X X%X;X;X5X5X$X;X>X*X#X;X;X*X$X#X#X;X|.f.+.+.{ { { { f.f.f.{ ^ ( c <   7 +.b. X",
" X X.X*X*X.X.X#X*X*X*X$X$X$X*X.X X#X;X;X4X;X;X#X-X#X#X;X X$X;X#X X;X;XOX X X*X.X#X$X#X|.f.{ f.f.{ { { f.+.{ ^ ^ c + X c f.b.b. X",
"|. XXX$X$X.X.X.X.X#XXX#X.XXXXXXX#X#X;X$X.X.X.X=X;X#X-X;X*X;X;X#X;X;X>X;X*X>X X X%X X#X|.f.{ @.f.+.{ ( ^ { ^ ^ c %   p d. X|.|.b.",
"oX|.XX.X$X$X.X.X$X$X$X$X.X=X$X.X$X#X#X;X4X-X.Xb.b. X.X#X*X$X;X4X*Xm.b.m.OX X X>X%X%X#X X{.f.{.f.d.+.( c ^ ! u % X p f.|.|.#Xd.c ",
"[ [ $.+.$.+.@.@.@.#.#.d.d.d.{.b.d.b.b.n.b.$.v h / p 7 b b. Xb.m.m.>XtX:X%Xm.m.%X X XXX|.f.f.f.@.@.[ ) p c p , X p { b.|. X X/ % ",
"        + % & < < 2 6 7 u u u 7 7 p b h b | >XAXzXAXlXOX| b b m.zXGXFXSXFXSX>X_ +. .+.+.{ c ^ ^ c c p u u % X + p ^ [  .d.{ 7 7 ",
"+ % % @ + @ % + + % X   + X   X X * 8 | lXvXDXFXDXFXDXDXFX:X>XbXFXFXSXSXFXGXSXlXh X * X < % = + + $ % @ + + + + X X % 6 7 7 7 6 ",
"+ + X + + + X + X % + X % X   o o i | tXzXzXvXcXAXvXvXvXvXkXbXbXFXbXlXkXbXvXbXGXfX* X 7 X > + , @ @ @ @ @ X X + + X X o & * * 6 ",
"+ + X + X + @ +   + + + + X + 2 b ~ } +XV.yXhXsXC.4.,.m l.fXbXbXbXfXfXD.uXfXtXfXvXD.  * &   + O + @ @ O + X + + + X X X o * 7 p ",
"@ + @ + @ % @ @ @ + @ + X X < a ~ ~ b } 2.uXiXN.8.u.l.l.B.R.kXkXR.fXR.G.Y.gXD.B.&XD.8 o &   O - @ # @ @ + O + + + % % X o 4 p m ",
"+ @ @ @ @ @ @ @ @ @ @ @ X @ 6 p i v b n y.yXiXK.0.-.n 7.x.U.L.Y.Y.R.kXR.kXT.G.x.B.j.b . o & @ = @ @ # - + - + + X X o $ o 4 h _ ",
"o @ @ o @ @ @ o @ o - & @ < u a a j h v &XyXxXxXxXsXiXiXz.x.G.G.G.R.T.T.kXT.G.c.c.j.m 8 . $ #   = @ # @ - - = = + @ @ @ $ 4 h / ",
"o @ @ o o @ @ @ @ o @ @ . 2 u u u i i } yXhXxXxXxXxXcXjXG.h.h.h.h.L.Y.G.T.Y.Y.G.B.f l.k.. 4 o 2 - - # - - - - - @ @ # $ * 4 h ~ ",
"< < @ @ @ % $ @ @ # @ X . 2 i 4 i h b | eXqXpXpXK.a.pXiXgXh.h.Y.x.Y.L.Y.T.G.G.Y.Y.P.uX3.. 4 &   - - # = - - = = + @ $ $ 4 4 h k ",
"= @ % & $ & % X   ,   2 . 4 5 . 3 3 5 f S.B.9.H.a.9XsXiXiXkXY.bXY.kXY.Y.T.Y.x.G.Y.D.U.m $ $ < = # - - - > = = = % = @ o * i k h ",
", O 2   & & o @ = + , = < 3 3 w.i.w.,.f f l.u.u.a.a.9XpX9.kXgXD.uXkXY.D.bXR.c.L.Y.x.B.m . * - - - # - $ > = % = > X $ o * 8 h 8 ",
"u   % @ & o @ < > = 1 = 2 . k +X9X9X9XM.n l.H.9.0.u.qXrX6.x.gXL.bXbXU.B.T.R.x.G.L.x.B.} $ * @ @ - $ - - > = = = > X % & $ 8 h f ",
"a 1   2 @ o % @ = = O > 2 . _ +XJ.H.pXiX7.N.C.C.C.8XqXJ.z.2.P.wXkXgXR.R.R.gXR.x.G.B.P.5.. 4 O = - - $ - > = = = 1 + % o o i v k ",
"u 4 &   & & + + = = , O 2 $ 5 +XsXpXpXI.N.u.N.+X0X0X+X4.C.5.l.L.Y.Y.Y.Y.Y.kXkXL.L.U.D.v.. * - - @ $ - - - - > = 1 @ < @ . 8 ~ _ ",
" .  4 o o o , > = , ; , & & $ l 0.K.a.7.9.0.u.S.&XZ.&Xe.2.6.,.6.D.kXR.x.x.gXkXkXL.I.D.v.. 4 , - - - - & < - > = > - - $ $ 4 h / ",
"3Xi o 7 o   < , = 0 O 1 @ & 4 . 5 z -.z 1.0.4.5.v.e.Z.V.n k n ;.7.kXkXL.G.U.jXkXU.fXrXD.$ * > = - - - - - > > > + > - & $ $ 4 j ",
"5XaX. * & > + , = = 1 O - & . 7 * z -.1.0.<.-.6.} } 3.n n f b f F.kXkXU.c.F.jXkXbXvXvXeX.   o < - $ - - > - = > + > @ # 2 $ $ j ",
"eXD.8 X o 2 @ , + 0 , = & @ o * . f n 0.p.p.z -._ n f f l f l 5 7.T.z.c.F.B.Y.bXkXiXcXvXaXh   < 2 - O 2 , O , 1 + 1 O @ < : * j ",
"0X3.. 8 &   2 = 0 ,   0 2 % & $ * . ,.u.p.a.4.z z m m ,.3.v h 3 K.Y.F.I.wXK.B.pXiXwXuXvXSXn.. 7 . < > - > 1 1 + 0 + < - 2 4 #   ",
"A.8X} . 4 < + , , 1 0 + % < % * * 4 t.i.9Xa.9X0.<.,.4.,.} v v f iXI.L.U.I.jXxXjXI.iXcXcXtXaX~ . < 2 @ < 1 > , < O = 1 : u @ 0 <X",
"I.iXvX}   p , = 0 O 6 > 6 X % 2 $ . ` w.i.9Xi.0.0.8.0.4.3._ _ h I.x.qXxXhXiXqXI.7.n N.rXyXtXOX. 4 2 - < 2 > > 0 2 = u 1 O X.IXPX",
"L.J.iXcX(   a > 1 , % 2 2 & 6 X 4 t.' OX<Xw.w.9XC.u.8.5.5.] ' n K.I.iXiXK.C.J.iXsXpXI.J.rX0XaX' # < 0 < 1 2 1 > - 0 1 # #.HXPXKX",
"F.I.A.eXaX  0 0 + 2 2 & % u X / NX.XoXaXNXaX`.y.9XH.u.0.4.2.3.] N.qXqXwXyXxXxXiXiXqX9.pXxX0XyXeX* - 4 2 1 1 1 1 1 1 0 O ) ZXPXIX",
"F.I.z.6./ 7 < 1 0 > 2 2 * % 2 ZXLXKXZXmXIXGXaX+Xu.N.N.8.5.3.w.<.8.hXxXcXhXrXiXsXxXxXiXI.2.J.sXtXj # 1 u 1 - 1 6 u O - ( $./.PXHX",
"F.9.8.n   & 1 0 u u 2 u X   ZXPXaXBXLX6XIXPXJXaXC.a.u.8.4.,.i.0.N.cXcXAXsXsXrXy.8.-.0.N.4.qX0XV.i O 2 2 - u 0 9 ; ) = D G 0 HXmX",
"B.l.c.f   1 S ; O O O O /.NX1XdXKX<X<X6X6XLXLXaXi.C.8.0.4.,.w.+XiXiXxXqXqXA.m _ m.tXlXZ.5.A.eXZ.2 : 4 4 2 O ; e !.'.).o.o.F !.}.",
"B.z.j.b &   ; ) _.mX,XVXIX'._.`._.mXZX.X_.PXLXDXe.4.y.C.8.w.<.y.cXxXJ.C.0Xn Z.GXGXGXFXvXtX&X&XOXu = & $ = ^ /.).L !.MX!.R U B }.",
"7.8.N.f   [ VX'.mX'.O.7X(.9 _./.R t {.VX/.VXPXPXLXaXe.,.4.3.3.lXhXiXI.hX6.v.Z.lXGXbXGXbXlXtX0Xm.1 y , y ( /...F I I ..N K K A }.",
"H.9.uX_ #.HXHXM w q Q M H ..'.o...!.K G Q [.UXUXPXPXJXaXr.@XlXvXAXrX0XS.} k.lXzXuX:X>X:X&XfX0Xn.y = y /.~.G W W I E J Z E A A [.",
"7.K.M.V.ZXHXCXq !.!.J W.W.B '.R Q.!.W.W.W.^.CXUXoXNXLXPXAXAXlXvXrX0X:Xm  .lXk.j.m.D.:XD.D.tXyX&Xu y O.Q C K E K Q.I W.H E A M [.",
"0.7.4.| ( HXnXB ..!.Q.P !.J '.).J ).^.W.E.^.}.UXVX; o.aXJXvXwXvX+X0XZ.m  .8 m k.D.D.D.>X:XtXyXrX+.9 W A K A q !.).J P Z W.Q A [.",
"y.3.n Z.oXPX(.B P B P Q.P U 1X).E.(.E.W.W.^.^.HXLXo.t $ 9XcXcXrXrXeX} v * m k.S.D.S.m.D.fXlXqXeXr.: D J M M ..).L I J P W.H K ~.",
"e.n i.aX6XUXJ E.I H B H P V /...H W.E.W.W.W.).MXLXNXY 9XAXxXrX8XrX+Xb * b } k.k.S.m.m.&XtXtXuX0X@Xo.0 V A q !.L U L P P W.W W O.",
"~ . |.3X1XUXE A J W J B J N o.o.M W.H E.E.E.W.!.KXLX@XiXrX9XC.9Xi.<X' l f _  .k.S.k.S.&XeXsXqXl.9X`.: S q I !.V L L J E.W.H E ).",
"1   OXAX<XmX(.q M C M E F q o.o.C W H H H W.K R 6XAXC.0XJ.C.8Xr.aXAXT l g h | k.m.m.v.&XaXeXV.A.J.i.t V N ..R F R N P H E.E H ).",
"y : <XJX#.,XCXq K C N q V V Y ( e A K A E.E N R ' uXD.P.C.+X@X` ZXAXk g g Y v / k.m.n.`.`.w.v.A.C.V.h : L ..C L Z I H H H A W ^.",
"0 0 =XdX1X_.CX..F C J F Z q D D S A A M B C w   n.P.D.l.j.Z.OX` AXsXY t Y ~  .b. .h X.` l <.Z.&XA.V.] . R R M F J 9 C W W.W.M Q.",
"; R dXr.JXY UX,X; W C L J Z G y C G q ~.[./._.n.tXD.l.6.v.n.t.( DXAXg t Y : oXzX#.  a Y t t.+X0XA.M.v.: Y F N Z K ,X(.7X7X,X7X).",
"; ..BX`.JXt.NXIX..N J B J J S w F E 9 !.oX/.@XzXA.7.7.B.&Xn.) ) AXaXt D D ; #.5X#.< D a r _.n.+XA.Z.V.k a S N N Q.,X1X1X1X1X)./.",
"w # BXdXBXJX..UXZX9 I W.H B C N F F V w 1 r.aX8XB.9.N.A.@X` : X.DX@Xt D D D ..oX~ 0 S w r X.n.A.A.V.M.q.g w N B w ) ].o.g q.t Y ",
"G ; <XJXT BXNX9 HX(.q Z B P M N N V D : X.aXJ.A.9.z.H.C.i.l # #.DXeX$ t t Y $.t.` u 0 C w ) oXC.Z.M.V.e.T 3 r r o.T s T x x T q.",
"6X6 + VXNXg KX_._.NXS Q W 9 F J U t 5 ' tX&Xz.9.7.9.7.N.<.d g t.DXu.s *.*.x ' X.#.b , y A G _.`.+XV.v.V.3.3 z z *.p.1.=.s.=.=.>.",
"IX|.=   <XdX'.KXD NXmXoXKX~.N F V : t.dXZ.V.F.9.7.F.5.i.9Xd s `.DX*.%.=.%.d s T T k * 0 e 9 _.i.n.A.v.e.8.z d *.d =.=.=.>.s.=.&.",
"AXaXOXY # KX_.<X1X_.KXdX1XNX; D p @X0XA.Z.m.8.9.9.Z.n.n.sXx T 3XxXx &.=.s.=.&.x d d s l , X t.i.y.A.y.3.u.w.s z z *.:.:.*.*.=.*.",
"rXrXeXX.; ].NXZXNXdX`.dXt.NX#.` OXD.N.D.D.e.9.y.C.@X$.t.BXT a <XAXd p.=.%.=.:.&.&.d &.z 2 % | V.i.M.y.y.y.i.n s z s T g g g l Y ",
"qX9XC.t., w ) G _.<XBXsXBX6X3XOXD.6.l.B.j.S.M.y.e.r.D Y AXt.: aXdXs s x <.x :.:.=.&.&.&.5 # ] Z.y.M.y.N.w.i.3.s 5 5 : r V V V D ",
"I.8.J.t., 9 y 1 9 /.JXAXaX~ n.M.6.l.c.6.l.Z.M.M.v.$.a 1 <XNX..HX1Xt.BXJXJX9X3 g x &.&.:.g # | V.w.J.M.y.y.n.t.v : r r w V Z N V ",
"z.qX5.@X/.{.O S 9 mXAXaX| | S.C.8.z.;.c.S.j.S.8.n.v y ; o.NX7XVX'.KXLXIXKXIXD t g g g T D ; / n.e.A.M.M.S.b.t./ ; r V N N N J J ",
"7.B.C.@XZXVX/.; (.KX2XtXb Z.8.7.8.8.z.7.j.M.v.5.v o + ; Y _.,XmXY JXLX1XX.LX~.r U t t N 0 9 G oXe.v.V.v.M.6.3.( 0 9 w L I I E !.",
"5.8.i.k 1XmXnX; NXBX6XT e.5.7.9.a.u.9.7.e.V.y.5.$.#XoX) y +.6X{.; BXPXZXX.KX/.9 , 9 a r M q D t.r.V.v.M.j.6.3.| j ^ O...K Z N q ",
"<.<.r.Y t 1Xw V NX<X@XT 4.8.9.9.u.H.;.N.V.3.r.t.b./.,X7X6XZXZX7X1XBXPXZXaXUX,X^.[...9 G N 9 Y _.t.e.M.M.l.6.k.| ! u S ; 9 C q q ",
"q.k t Y : R ).q _.].o.~ 8.z.F.9.K.0.l.v.r.`.Y # O 9 9 ; j 3XGXZX|.=XPXIXh ZXVXnXnX~.; ; q q o.T 3.w.y.u.z.7.6.3.v   ; C C e e O.",
"a Y r ; $._./.D g `.T <.y.z.H.H.H.0.M.e._.X.: V G S S 0 *XDXFXFX2X[ IXIX` ZX7X9 , ../.7X(.q #.T q.w.y.u.9.7.8.6._ 0 0 y ; ; G O.",
"S C G ,XmX].R _.t ] k w.y.M.z.M.N.8.5.t.X.D D S M N E ; ZXSXFXFXGX+.IXPXAXZXmX9 K A ,X~.[.O...~ ~ q.w.0.9.9.9.5.| < ; S A ~./.9 ",
"K q ~.nX1X].:.' w.s n 8.M.u.N.N.4.4.3.b # ; 9 ; W e 9 ; ZXFXGXFXPX+.d.ZXKXLXVX9 G C = ; q q O.) j ] <.y.z.9.9.e.3._././.,X^.y A ",
"H H F r ].q.d <.dXk f <.0.9.a.a.y.] 8 p oX1X/.7XnXnX,X/.=XDXFXPXIXO.O.6X6X1X'.q B B 9 V Z q ) X.a Y ] 4.7.0.M.y.t.Y R F q q C F ",
"H B N Y t x >.&.9Xe.3 n 0.p.9.9.4.f * / '.oX7X^.Q Q ,X,XoXn.:X3X6XmXnXMX].MXMX(.(.(.,XL U B R X.t p v } 2.6.8.y.t.D ; N J B C F "
};
