/* XPM */
static char *result[] = {
/* columns rows colors chars-per-pixel */
"64 64 256 2 ",
"   c #010101",
".  c #060306",
"X  c #170302",
"o  c #141812",
"O  c #260201",
"+  c #390703",
"@  c #2B1912",
"#  c #083309",
"$  c #332810",
"%  c #372618",
"&  c #332925",
"*  c #4E0E04",
"=  c #451A06",
"-  c #6E1800",
";  c #472805",
":  c #5C2503",
">  c #442818",
",  c #473618",
"<  c #573010",
"1  c #6A2F0B",
"2  c #793B05",
"3  c #773A17",
"4  c #493727",
"5  c #4B332C",
"6  c #553928",
"7  c #573C32",
"8  c #63392C",
"9  c #114306",
"0  c #2B4A19",
"q  c #325117",
"w  c #34561C",
"e  c #0D522B",
"r  c #035B39",
"t  c #2E4E2F",
"y  c #355522",
"u  c #3B5C24",
"i  c #39542A",
"p  c #3D5D2B",
"a  c #3C5831",
"s  c #0E6238",
"d  c #3F6127",
"f  c #39603E",
"g  c #524314",
"h  c #6F490A",
"j  c #784618",
"k  c #7F671D",
"l  c #584726",
"z  c #445B2A",
"x  c #505129",
"c  c #594538",
"v  c #445D35",
"b  c #6D4F2C",
"n  c #785829",
"m  c #674839",
"M  c #744C3D",
"N  c #426526",
"B  c #42642C",
"V  c #456A2C",
"C  c #496B2E",
"Z  c #506A28",
"A  c #456433",
"S  c #476535",
"D  c #4A6C34",
"F  c #4A653A",
"G  c #4D6C3B",
"H  c #576536",
"J  c #516D3C",
"K  c #4E7234",
"L  c #4E713A",
"P  c #517336",
"I  c #52743B",
"U  c #5C763F",
"Y  c #55793C",
"T  c #597D3E",
"R  c #726836",
"E  c #016B4B",
"W  c #0E6D4E",
"Q  c #017757",
"!  c #2B6E4C",
"~  c #595145",
"^  c #784E42",
"/  c #6F574F",
"(  c #7A5548",
")  c #4D6B42",
"_  c #536E43",
"`  c #5D6E42",
"'  c #557442",
"]  c #597644",
"[  c #587746",
"{  c #5A7C43",
"}  c #5C7B4A",
"|  c #5F7E50",
" . c #736E4C",
".. c #637C4A",
"X. c #5E5C68",
"o. c #68666C",
"O. c #766B6E",
"+. c #6D756E",
"@. c #6E786F",
"#. c #6B6B73",
"$. c #736D72",
"%. c #6E7572",
"&. c #6D7872",
"*. c #737575",
"=. c #7C7374",
"-. c #737B74",
";. c #777779",
":. c #767B79",
">. c #787E7A",
",. c #84370D",
"<. c #884803",
"1. c #975903",
"2. c #874918",
"3. c #8F5311",
"4. c #90650F",
"5. c #A86A14",
"6. c #86582F",
"7. c #8B5A28",
"8. c #955827",
"9. c #97642C",
"0. c #8C6C31",
"q. c #956636",
"w. c #98753A",
"e. c #AB702D",
"r. c #A87738",
"t. c #895246",
"y. c #875A4A",
"u. c #895E51",
"i. c #965C52",
"p. c #A35958",
"a. c #966749",
"s. c #997649",
"d. c #8A6354",
"f. c #946355",
"g. c #996856",
"h. c #9C6B5A",
"j. c #8B7150",
"k. c #A77C47",
"l. c #A46C5B",
"z. c #A86A58",
"x. c #AF6E58",
"c. c #A37857",
"v. c #A4725E",
"b. c #A9725E",
"n. c #886D68",
"m. c #83736B",
"M. c #997667",
"N. c #877875",
"B. c #947C75",
"V. c #A47362",
"C. c #AC7563",
"Z. c #AB7964",
"A. c #AE726B",
"S. c #AB7A6A",
"D. c #B47564",
"F. c #B77966",
"G. c #B47B6A",
"H. c #BC7C6B",
"J. c #C17C69",
"K. c #C37977",
"L. c #59803F",
"P. c #00815F",
"I. c #02896A",
"U. c #0D8D6C",
"Y. c #009476",
"T. c #388E6F",
"R. c #5D8144",
"E. c #5F8048",
"W. c #618446",
"Q. c #62844B",
"!. c #658A4C",
"~. c #698D4D",
"^. c #648352",
"/. c #688654",
"(. c #6A8C52",
"). c #6D8C5A",
"_. c #7F8B5B",
"`. c #6E9254",
"'. c #6E9258",
"]. c #739759",
"[. c #72955A",
"{. c #46997B",
"}. c #729167",
"|. c #768175",
" X c #788378",
".X c #7B827C",
"XX c #7DA164",
"oX c #BA8236",
"OX c #CA8B36",
"+X c #97864D",
"@X c #998558",
"#X c #A78448",
"$X c #B58B4F",
"%X c #A68659",
"&X c #B8935B",
"*X c #908B69",
"=X c #988778",
"-X c #A78B6A",
";X c #B3826A",
":X c #BB826D",
">X c #B89867",
",X c #BC8472",
"<X c #B88976",
"1X c #A79778",
"2X c #B09372",
"3X c #9BA87B",
"4X c #B8A57D",
"5X c #CE9145",
"6X c #C69958",
"7X c #DEA856",
"8X c #C4826B",
"9X c #C59E65",
"0X c #C48372",
"qX c #C98975",
"wX c #D28E77",
"eX c #C8927D",
"rX c #D49177",
"tX c #D3937C",
"yX c #C7A266",
"uX c #C8A873",
"iX c #D3AF77",
"pX c #7B7B86",
"aX c #807F87",
"sX c #009B80",
"dX c #708884",
"fX c #85838B",
"gX c #88888B",
"hX c #928E8D",
"jX c #AB9A8B",
"kX c #90A990",
"lX c #B4AA8D",
"zX c #B1AEA9",
"xX c #CD8C87",
"cX c #CB9785",
"vX c #D79A86",
"bX c #DA9A85",
"nX c #D8A18D",
"mX c #D7B988",
"MX c #DAA694",
"NX c #CCB492",
"BX c #E1A38E",
"VX c #E2A693",
"CX c #E4A996",
"ZX c #E5AD9B",
"AX c #E4B09E",
"SX c #D2B9A2",
"DX c #E7B5A4",
"FX c #DAC397",
"GX c #E8CA99",
"HX c #D3C9AC",
"JX c #E7D2AB",
"KX c #DFD9C6",
"LX c #E5DCC4",
"PX c #E2DFD5",
"IX c #F5EBD0",
"UX c #FCFBF6",
/* pixels */
"d %.*.0 A L u /.} dXv F A _ [ y |.-.W.Y K W... .gX*Xw.+X+X@X@XB.N.+X0.j.s.+X@XdXZ R.R.R.d d .X-.u R.K Y L a fX[ { (.!.L R.>.&.A ",
"B %.*.C /.[ y d F gX_ B I [ [ y @.|.W.H R b n  .gX@Xb l 4 % X $.O.; > $ , $ ( fX-X@X0.@XT L.-.-.w ' D { I _ fXQ.Q.!.E.^.(. X+.C ",
"I +.*.w G d d L } fXv [ }.B p ' |.=.k y.x % o & fX. $ % , l ; *.$.O % $ $ n n aX@X>Xk.r.&XR -.-.I { Y { I ' fXI I L N D I  X&.'.",
"B %.*.A [ B ) L [ fX) J J C N x =.m.g % $ > ; 4 fXm g l 6 l g -.$.$ 6 % c s.h.gXy.9.c.j s.5.B.*.C V C K D ..fXI w D Y { R..X@.V ",
"y %.*.) [ G L u J fXF P q J w.r.hXO.; 6 , 6 % 4 fX6 g m  .R g =XO.g l ; + R 1XhX>X0.#X9.1 ,.N.N.<.x V C C E.fXL T L.L.T K .X-.T ",
"F &.*.y F G A d ' aXH ~.R n h -XlXX.; % ; = < b gX .b h 0.j.s.=X=.n  .*X1X4X-XdXyXiX%Xq.j 1 N.N.1.8.b T Y E.gXD C V R.].]..X|.!.",
"F &.*.p | | p f G fXQ.U 7.6 o b =.#.. *X4X>XHXLXfXPXPXKXlXHXHXzXm.4.4XJXJXmX4XfX4X&X>Xr.j : $.m.<.8.2.l !.^.fXW.`.P T ~.T .X|.`.",
"y %.*.a [ ' y E.| fX{ g > & n   o.*.k @Xj.*XFXlXfX1XHXIXUXUXUXzXzXHXjXHXIXSX-XfX@X&XyX$X9.,.N.O.- j j 3 H [ fXC W.L.R.R.K |.|.!.",
"F %.:.i ) /.[ } ] fX) jX+ c -Xk.m.#.X O . + < g dXj.-X0.4XLXPXzXhXHXHXJXKX4X-XfX%X#Xw.7.8.<.N.O.- 3 2 3 : v fX{ u ~.Z R.K *X&.d ",
"^.&.*.S ) ' p [ ] aX~ -X    , r.N.=.+ & . @ l b gXb h  .k w.4.N.-.0.4XFXuXyXw.fXk.7.9.9.9.<.N.O.- 7.2.3 : 7 gXC L.Z V P `. X|.C ",
"} #.-.d G S y d ] fXm >X+ 8 b 1 #.B.h . b 7.r.s.hX=X< b  .( c.M.S.2X2XNX2X$Xs.fXs.7.6.7.5.<.N.O.,.8.q.8.* 5 fXA L.L.L.K !.:.&.C ",
"G &.-.f [ /.L A F fX5 m 2.3 : - O.m.1.@ #Xk.q.y.aXlX-Xg.v.b.Z.G.G.G.C.b.l.Z.s.fXb j 2.1.oXOX<XO.- 1 1 j * 7 fXL P ~.L.P d |.@.V ",
"G &.:.d ) `.} d A fX&   3 : b r.=XhX5XOXiX6Xe.a.n.M.v.v.Z.Z.H.:X:X:XG.S.C.C.h.B.b <.e.OX7XGXjXX.5.7.* * + c fXd Y L d d K :.+.d ",
"E.&.:.d S D D A F fX& < < * jXGX2XhX7X7X5Xr.r.a.i.h.v.V.V.S.;X,X,X:X;X;XZ.C.v.l.a.x.$X5X&X6XB.jXNX2 8 = + & fXw V K L d Y :.|.C ",
"^.-.;.S L A D ' ) fX6 2 O ; * FXzXn.<.OX5Xe.y.u.h.h.V.Z.S.;X,X:X<X<X<X;XS.Z.C.v.z.z.8.e.5.k.B.=Xg X b @ ; 4 fXu d R.R.L ' >.|.L ",
"K &.*.D ' D I { a gXi m.d.X   < hXB.6.3.OXi.u.V.V.V.S.S.;X<X<X,X<XqX<X<X<X;XG.C.l.l.z.oX8.1 B.o.  @ . @ @ c fX) { R.d '.E..X+.Y ",
"} &.*.p ) d G /.A fX' v  .O 4 ; X.N.9.n q.f.l.C.S.S.;X<X<XjXjXqXcX<XjX4X<X<X8X8XF.D.b.a.6.: =.o.  @ = > , _ fXw E.R.V L K :.&.I ",
"E.-.&.y ) I Q.L S fX_ K x > % $ #.#.<.s.d.h.D.G.G.,X<X<XjXqXcXcXvXvXtXeXcXeXqXrX8X:XZ.h.k.1 $.o.X < : l B ) fXy w { R.E.{ :.@.C ",
"} &.:.[ ' A Q.' H fXv K D x 6 . +.o.= k.u.V.G.0X0XxXxXqXwXcXcXcXnXnXnXcXnXvXrXrX8X8XH.h.6.: #.O.- < a B B [ fXu d E.Y V B  X|.!.",
"F &.*.} ) d L L ^.gXv Y { i < * #.$.X j.g.C.H.xXxXcXxXvXbXnXMXNXMXNXMXBXnXnXtXrXrX8XH.V.( + #.O.* S u q Y /.fXB d L.P K T .X&.K ",
"i %.*.y a E.D y Q.fXv T !.& , + $.$.+ / l.D.0XxXxXvXvXbXMXMXSXMXMXAXAXMXZXCXtXrXrX8X8X%X( o =.o.X & , x I } fXL { R.{ { E..X+.d ",
"S &.*.y S { A L G fXa { W.j 7.2 n.aX* ( V.D.J.jXJ.J.wXbXVXZXAXAXAXAXAXAXDXDXCXrXrX8X:XC.d.* =.O.O @ @ > z [ fX{ '.R.Y D V  X-.Q.",
"D *.:.S ^.d d E.H fXJ ~.!.x 3 1 $.N.,.u.z.D.D.J.J.J.K.bXnXZXAXAXAXZXZXZXAXDXCXtXrX8XF.c.f.< #.=.O % = g G ^.fX{ Y C E.{ K .X|.R.",
"p  X*.p }.D D p A fXv T K N w 9.aXO.,.y.g.A.D.D.J.J.8XxXbXMXCXCXZXAXZXZXAXAXnXtXrXJ.Z.v.f.> $.$.O < 7 { Q.).fXz Y C !.R.K .X|.N ",
"'  X:.) S 0 p d } fX_ z C q Z T aXN.2.y.i.l.z.x.H.J.qXwXbXbXCXCXZXZXVXBXBXVXbXbXtXF.c.h.j.% $.o.+ H I R.D [ fX/.Y D K I Y dX|.q ",
"^.|.:.) F w D ^.} dX(.L.W.P W.~.N.B.,.y.y.g.z.x.F.J.K.wXbXVXVXCXCXCXVXVXCXCXbXbXtX:Xb.l.u.% =.O.J !.!.`.Q.' fXQ.P E.I L [..X@.K ",
"E.:.:.L ) [ !.} ] fX).T P P W.W.-.-.~ y.u.f.z.D.0X0X0XwXbXVXBXVXCXVXCXZXZXBXbXbXtX8Xb.h.f.6 B.|.U !.`.{ W./.fX!.L.!.Y R.[..X@.~.",
"' -.:.L E.[.^.w ] fX..C w Z T T -.-.../ u.g.z.G.:X:XK.0XvXbXbXVXVXCXCXCXVXnXxXeXeX8X;Xh.f.4 $.-.P ..W.B L } fX{ R.D L R.L  X@.`.",
"' &.-.' ^.} V y ^.fX[ U C P W.!.*.S.v.d.d.l.l.i.( ^ y.g.D.0XtXtXbXbXvX0XC.d.y.y.g.Z.S.h.h.b.<X-.T V B N Y ) fX..T V C I N :.&.{ ",
") -.:.S ) L A L /.fX` ~.I P Y Y *.V.J.A.u.l.f.( ^ M 7 > 7 t.b.8XqXH.l.^ > 6 ( h.Z.c.Z.h.Z.tXG.|.K D K I { [ fXQ.K Y K L !. X+.I ",
"S |.:.0 F ' d R.^.fXG W.N V P K *.S.G.G.f.l.h.h.( m 5 ~ 7 8 8 i.8Xb.y.8 7 ~ / y.g.;X;Xx.b.wX<X-.R.].!.Y D Q.fXG I C C E.!..X@.K ",
") &.*.y } D 0 ' ^.fXv P q C !.`.:.B.b.z.g.z.Z.g.f.d./ f.i.C.h.z.tXtXcX<XG.S.S.<X;X0XeXD.a.F.<X&.T !.I K N } fXW.Y 9 d (.L -.|.d ",
"S %.;.G ' [ [ D K gXf f d d !.L.&.B.8X0Xg.b.:X:X<X;X<X<Xv.C.x.F.vXtXrXvXcXcXnXnXnXtXtX:Xc.x.<X-.R.R.B !.'.).fX{ Y T XXR.N :.&.R.",
"[ %.*.S ' I D p A dXL.Y L.L.~.!.-.=XtXtXC.V.H.0XcXvXnXcXG.D.J.J.wXrXwXBXnXVXMXAXBXnXtX:XF.D.<X-.R.R.C !.!.^.fXL P Y E.{ R..X|.T ",
"} *.*.S [ ' D B I fXR.R.~.R.R.R.&.*XwXwXG.l.D.0XqXcXbXcXqXK.K.K.tXtXqXbXCXZXAXAXnXnXrXF.Z.x.*X-.~.E.Y E.L _ fXw Y R.B K L .X+.w ",
"..-.:.G [ L D I ).fXR.R.~.R.L.L.:.;.;XK.G.l.D.H.K.vXvXtX0XJ.J.K.bXbXK.tXCXZXZXZXnXtXqXx.D.x.N.+.R.L R.L.L [ fXB !.(.D L L  X@.C ",
"} -.:.I ' D S { E.fX) L.`.R.R.L.:.:.@XqXG.g.D.H.qXtXtXwXK.D.D.K.bXBX0X0XvXCXZXCXtXrXF.a.H.b.;.|.P V I K C } fXD L.{ V L !.:.-.'.",
"G -.:.F _ D A E.S fXG R.!.R.R.R.-.-._.,XH.u.z.D.J.J.J.F.J.A.D.xXVXBXqXqXqX8XbXnXrX8Xx.y.J.z.;.|.!.L R.K I } fXB L d d L `.-.|.E.",
"A -.*.p _ ' L { S fX' !.R.K L.L.-.-.[. .c.^ u.z.x.x.x.x.F.A.l.H.xXbXJ.0XwX:X8XtXqXD.y.M x.b .X X(.L E.Y ].}.fXR.E.R.C !.~. X|.C ",
"J -.:.y [ E.D L G fX[ !.d w L.R.*.:.{ S ..l M i.i.i.z.x.A.A.^ t.i.g.f.Z.eXeX8XqX:Xl.M < 8 P .X|.!.C Y N '.).fXD L.!.K (.R..X XY ",
").;.*...F I p D Q.fX^.!.I L.R.L.*.-.R.T B x 5 ^ i.i.z.l.D.V.i.( M ^ f.V.Z.0XqX,Xc.( m < P L.*X X!.A Q.R.`.^.fX^.!.'.R.{ E.dX X!.",
"A *.*.J A G A [ L fX[ (.P I Y V .X.XL A V H 4 7 ^ i.t.t.i.i.t.i.g.i.V.S.V.v.;XqXh.M m l !.!. X|.R.V R.{ (...fXQ.R.!.Y R.!..X@.u ",
"[ -..XI ) D L I } fX[ ~.Y L.Y L.-..XY Y } z 6 5 ^ u.^ m ( t.i.D.G.G.H.A.h.y.V.:Xt.m 7 W.*X]..X-.d u V K { [ fXY I { K R.W.>.@.V ",
"} -..XJ [ [ !.R.} fX} R.L.V K L.-..XI P T g l 5 m t.M ^ t.t.t.i.l.p.p.p.G.v.h.Z.^ m , U ~.T  X-.V D Y R.!.[ fX[ L.!.R.E.R.>.|.].",
"G -.:.p ' [ !.' { fX/.E.`.d K K .X-.C L { , 0.4 7 / M t.A.A.A.A.A.K.xXxXxXG.g.d.7 7 3 H P N :.-.L E.`.!.'.^.fX{ R.!.{ Q.~..X|.XX",
"[ -.:.z _ [ { B [ fX/.T ~.V P L. X-.{ T R.j 7.4 & 7 m u.i.V.K.xXxXxXxXH.H.S./ ^ m 8 9.n T D -.@.Y !.(.R.(.| fXD d K C R.`..X-.T ",
"G -.:.F } !.!.D [ fXY K V d K R..X-.{ I C j 9.b & 5 c ( y.^ ^ ^ u.i.d.V.S.h./ 7 7 < 9.n Y P :.-.R.R.E.C ].).fX' d D K R.`..X-.N ",
"p *.:.G _ } I p I dX' W.d R.K !..X-.{ W.{ , 3.6.~ c / ~ ^ i.y.^ ^ t.A.G.V.( / 7 7 6 5.n I I >.-.R.I P w ].[.fX!.I '.[.'.~..X&.K ",
"D  X:.{ G I W.E.Y fX} Q.p D ) /.>.*.U U w , h 6.o.~ / n.y.h.S.G.A.G.0XG.h.u./ ~ > <.9.3.D ~.-.-.~.Y E.E.].} fX] T W.I { { -.+.{ ",
"D -.:.L ' { !.R.{ fX^.D A } [ ' -.*...P y b - 6.aX8 / B.M.n.h.A.V.V.S.A.n.n.~ ~ ;XNX1.6.P !.-.-.E.C W.!.{ _ fX] V U XXB ..*.+.P ",
"' |.:.' { I P w ' fXG u P I ) E.-.*.T L p 3.5.r.fX0.d.B.B.d.f.M.u.n.V.B.B.n.m :.NXSX5.0.U !.:.-.{ B R.Q.I [ fXD I !...D Y -.-.T ",
"y &.:.{ [ (.T C G fX) p E.f F /.;.-...] +X6Xe.q.fX&XiX-Xn. ./ / / / (  ./ h.M.aXr.e.k.2.5.0.-.|.P I (.!.U ..fXB !.`.w !.P gX|.(.",
"y %.*.[ S [.] Q.) fX^.D ^.E.| E.-..XA ..s.q.e.r.fX$X&XFXKXzX*X/ / N.m.a.mXFXr.fX#Xe.e.9.q.0..X&.D (.].!.} } fXJ !.{ D (.W..X-.!.",
"[ -.:.[ p } B Y [ fX_ D !.).[ [ .X:.w ! ! v /.@.dX*X%XlXHXHXKXzXzXKXNXHXlXlXj.dXR ..! f E r  X-.{ '.T D ..).fX' } U { ).~.>.-.{ ",
"} &.:.' ) { d D [ fXa [ E.E.) | |.%.# r r E E I.fXY.sXI.I.Y.Y.dX XY.I.P.Q Q Q fXQ Q Q Q W e ;.o.J { B z ] ).fX] !.{ D ).{ .X-.T ",
"' &.;.[ ).' p B ..fX} ^.' /.} |  Xo.7.k.0.H W t fX| T.T.T.{.Y.dX XU.{.{.T.}.|.gX`  . .0 o   $.=.* x I I d } fX..(...Y [ C >.-.I ",
"i -.>.G } H C B G fXF J D ] ] ..=.=X5.OX6Xn w.k.hXNX0.JXJX$X4XhX1XLXIXHX4.#XHXfX>XuX7X-X  X #.m.: 8  .' [ } fX} [.{ { [ G :.-.Y ",
"a *.;.F _ S S /...fX_ ] A D i 1.N.=X6XiX#X&X7XiXhX&X6XIXIX9XGXjXzXIXLX+X6XyXs.fXmXyXyXuX#X1.N.$.* > l H /.} fX/.).' ' Q.{ :.&.I ",
"0 %.*.) v A z ..} fXF D A ' f Z -.=X#XuX6X5XiXSX&.c.iXGXIXFXGXzXzXUXFXFXIXFXFXgXJX%X3.a.6Xe.-.&.q t r t G /.fX[ (.I ] ^.Q..X-.D ",
"0 %.*.a i S v S _ fXv H A ) t 9 +.|.e  ...U 1X_.pXlX3X@XFX4XHXhXzXPX%XlXlXSX*XgXlX}.}./.) Q  X&.r s e W a | gX[ } Y I [ } >.@.S ",
") #.;.0 i v [ G _ fX_ Q...l e # &.&.E Q r Q E W dXE Q W Q U.I.|. XU.U.P.Y.P.Q fXE P.Y.Q E E dX#.e s e x 2.~ gX..' D S G L >.%.I ",
") #.;.t v v [ J [ fX` ..J 2.2.h =.&.r W Q Q E Q fXQ Q Q Q Q I.|.dXI.Q Y.Y.I.Q fXU.U.Y.W ! s |.O.h j 3 2.H _ fX[ D I D G ' .X-.^.",
"v %.;.v ) v J S ` fX_ H w x n 2.m.B.1.e.#X#X#X@XdX@X1X3XkXkXkXgXdXkXkXkXkX3X*XfX@X+X#Xr.9.1.N.=.n  ./.' L }.fX[ ' ' I ' ^.dX-.!.",
") *.;.v 0 G J v v fX] Q.J J D ] |.-.l R 7.w.#Xk.fX$X9XuXFXFXJXjXlXLXFXFXiXyX&XfX+X+Xk R H D .X-.U I } D S ^.fX} L [ J I /..X-.[ "
};
