/* XPM */
static char *result[] = {
/* columns rows colors chars-per-pixel */
"64 64 236 2 ",
"   c #190000",
".  c #1E1816",
"X  c #260300",
"o  c #281C18",
"O  c #391C17",
"+  c #380000",
"@  c #35231D",
"#  c #39251C",
"$  c #28201F",
"%  c #2F2624",
"&  c #332521",
"*  c #3C2922",
"=  c #382A27",
"-  c #3C3330",
";  c #481B12",
":  c #47261B",
">  c #512D1E",
",  c #432D24",
"<  c #4B2D23",
"1  c #442F29",
"2  c #562D23",
"3  c #45332B",
"4  c #4C352C",
"5  c #4B352A",
"6  c #52352B",
"7  c #59352B",
"8  c #4C3A33",
"9  c #483B38",
"0  c #553C32",
"q  c #5A3E33",
"w  c #503631",
"e  c #62392D",
"r  c #653E33",
"t  c #75312E",
"y  c #641518",
"u  c #4E403B",
"i  c #5D4136",
"p  c #53423C",
"a  c #5C433A",
"s  c #5F483E",
"d  c #634235",
"f  c #64443B",
"g  c #6B4539",
"h  c #6D493D",
"j  c #694539",
"k  c #734B3D",
"l  c #77483B",
"z  c #5C4A44",
"x  c #574945",
"c  c #5E504C",
"v  c #644C45",
"b  c #6A4C42",
"n  c #684743",
"m  c #734E41",
"M  c #7C4F43",
"N  c #754740",
"B  c #6B5149",
"V  c #7D5245",
"C  c #75554A",
"Z  c #7B564B",
"A  c #78574B",
"S  c #695955",
"D  c #735B53",
"F  c #7B5D53",
"G  c #7A635B",
"H  c #75605A",
"J  c #786763",
"K  c #8B2709",
"L  c #823A3A",
"P  c #84433A",
"I  c #954632",
"U  c #864C44",
"Y  c #835445",
"T  c #83564B",
"R  c #835A4C",
"E  c #8C5C4D",
"W  c #8A5746",
"Q  c #935D4C",
"!  c #9A564E",
"~  c #845D52",
"^  c #8B5D52",
"/  c #955A53",
"(  c #A15854",
")  c #A05343",
"_  c #8D614D",
"`  c #94614D",
"'  c #9B614E",
"]  c #846154",
"[  c #8C6255",
"{  c #836359",
"}  c #8C645A",
"|  c #8B695C",
" . c #946353",
".. c #9B6554",
"X. c #956956",
"o. c #9C6955",
"O. c #936559",
"+. c #9B6559",
"@. c #956C5B",
"#. c #9B6B5B",
"$. c #9C715D",
"%. c #A6644D",
"&. c #A26553",
"*. c #A46A56",
"=. c #AB6A56",
"-. c #A2665A",
";. c #A36C5B",
":. c #AB6D5B",
">. c #AA6555",
",. c #B36E5C",
"<. c #B46A57",
"1. c #A3725D",
"2. c #AB715D",
"3. c #B3745E",
"4. c #BA735E",
"5. c #BA795F",
"6. c #B45D66",
"7. c #886C64",
"8. c #9B6E61",
"9. c #936D62",
"0. c #8D746D",
"q. c #9B7264",
"w. c #967469",
"e. c #997C74",
"r. c #897771",
"t. c #A36E62",
"y. c #AD6E62",
"u. c #B26E64",
"i. c #A47463",
"p. c #AC7463",
"a. c #AC7964",
"s. c #AB7669",
"d. c #A67869",
"f. c #AC7C6B",
"g. c #A7776A",
"h. c #B47564",
"j. c #BB7664",
"k. c #B37A65",
"l. c #BB7B64",
"z. c #B4766A",
"x. c #BC766A",
"c. c #B47C6A",
"v. c #BB7C6B",
"b. c #A57E70",
"n. c #BB7D70",
"m. c #B47D70",
"M. c #BF6B72",
"N. c #C1785C",
"B. c #C37B65",
"V. c #C27D6C",
"C. c #C37966",
"Z. c #C67977",
"A. c #9A8079",
"S. c #AF806B",
"D. c #B4826C",
"F. c #BC826C",
"G. c #B98067",
"H. c #AD8272",
"J. c #B48473",
"K. c #BC8472",
"L. c #BC8A74",
"P. c #B58979",
"I. c #BC8D7B",
"U. c #B78877",
"Y. c #BE907D",
"T. c #C4826C",
"R. c #CA846D",
"E. c #CD886E",
"W. c #C68167",
"Q. c #D3886D",
"!. c #C38373",
"~. c #CA8574",
"^. c #C38A75",
"/. c #CC8A74",
"(. c #C3857A",
"). c #C38B7B",
"_. c #CB8B7A",
"`. c #CA857C",
"'. c #D28D74",
"]. c #D28D7A",
"[. c #DC8D75",
"{. c #C4927D",
"}. c #CC927C",
"|. c #CC947B",
" X c #D39177",
".X c #D4937C",
"XX c #D9947D",
"oX c #D6987D",
"OX c #E79A7E",
"+X c #D07D83",
"@X c #BF9382",
"#X c #A18A86",
"$X c #9E8985",
"%X c #C58B82",
"&X c #CA8F86",
"*X c #CB8182",
"=X c #C29481",
"-X c #CC9382",
";X c #CB9A84",
":X c #CB938A",
">X c #CC9E8B",
",X c #D39582",
"<X c #D99682",
"1X c #D59A84",
"2X c #DB9B84",
"3X c #D29E89",
"4X c #DB9D8A",
"5X c #D4948D",
"6X c #D99894",
"7X c #D98C8C",
"8X c #E59E87",
"9X c #E29697",
"0X c #CEA18F",
"qX c #D4A18D",
"wX c #DDA28D",
"eX c #D9A187",
"rX c #CEA291",
"tX c #D3A493",
"yX c #DEA491",
"uX c #DCA995",
"iX c #D4A999",
"pX c #DBAD9B",
"aX c #DEA09B",
"sX c #DFB09D",
"dX c #E1A28D",
"fX c #E5A186",
"gX c #E2A592",
"hX c #E3A996",
"jX c #E5AD9A",
"kX c #E6AB9C",
"lX c #E5B19E",
"zX c #E8B19E",
"xX c #E5B3A1",
"cX c #E8B8A7",
"vX c #DBB1A2",
"bX c None",
/* pixels */
"bXbXbXbXbXbXbXbXbXbXbXbXbXbXbXbXbXbXbXbXbXbXbXbXbXbXbXbXbX} O.X.+.o.#.bXbXbXbXbXbXbXbXbXbXbXbXbXbXbXbXbXbXbXbXbXbXbXbXbXbXbXbXbX",
"bXbXbXbXbXbXbXbXbXbXbXbXbXbXbXbXbXbXbXbXbXbXbXbX} O.O.i.p.a.p.z.p.a.a.a.p.;.#.#.+.bXbXbXbXbXbXbXbXbXbXbXbXbXbXbXbXbXbXbXbXbXbXbX",
"bXbXbXbXbXbXbXbXbXbXbXbXbXbXbXbXbXbXbXbX~ ~ +.;.:.2.p.h.k.c.c.c.k.c.D.c.D.c.k.k.z.p.#.#.#.bXbXbXbXbXbXbXbXbXbXbXbXbXbXbXbXbXbXbX",
"bXbXbXbXbXbXbXbXbXbXbXbXbXbXbXbXbX~ ~ #.i.i.1.p.a.c.h.5.G.F.G.F.F.v.F.v.D.c.G.z.k.a.p.2.p.1.+.;.bXbXbXbXbXbXbXbXbXbXbXbXbXbXbXbX",
"bXbXbXbXbXbXbXbXbXbXbXbXbXbXT T [ O.#.1.p.i.a.a.i.a.S.a.c.G.J.^.T.K.K.D.v.k.s.z.a.a.a.h.p.;.1.p.;.-.bXbXbXbXbXbXbXbXbXbXbXbXbXbX",
"bXbXbXbXbXbXbXbXbXbXbXbXT V R ^ X.+.1.1.#.1.$.i.$.a.S.S.D.D.L.L.L.L.L.F.S.J.S.S.S.a.1.a.p.p.1.;.;.p.*.bXbXbXbXbXbXbXbXbXbXbXbXbX",
"bXbXbXbXbXbXbXbXbXbXbXT R T ^ +.#.+.#.#.1.i.a.i.a.S.f.D.D.L.F.D.L.Y.K.L.P.U.J.S.f.f.a.a.p.h.p.2.;...;.2.+.bXbXbXbXbXbXbXbXbXbXbX",
"bXbXbXbXbXbXbXbXbXb T T T O.;.8.i.1.i.d.d.a.f.b.f.J.J.D.L.L.D.D.L.L.L.J.I.P.J.J.S.J.H.f.k.p.k.2.2.*.o.o.2.+.bXbXbXbXbXbXbXbXbXbX",
"bXbXbXbXbXbXbXbXf R T ^ +.i.i.g.g.g.i.d.f.b.H.P.J.P.P.J.L.F.F.K.L.L.L.L.Y.Y.P.P.P.P.P.S.D.D.a.k.a.3.1.*.*.1.$.bXbXbXbXbXbXbXbXbX",
"bXbXbXbXbXbXbXa ~ R ^ ;.p.p.p.z.f.d.s.f.H.H.H.P.P.P.L.Y.Y.Y.Y.{.{.{.Y.{.Y.Y.@XI.Y.P.P.P.L.^.!.G.5.l.3.2.3.2.$.@.bXbXbXbXbXbXbXbX",
"bXbXbXbXbXbXbXC ~ ^ t.p.z.z.z.c.m.m.m.m.U.J.J.I.Y.Y.Y.{.{.{.{.;X;X;X;X;XY.{.Y.@X@XY.{.Y.^.^.^.R.T.W.l.l.l.3.1.$.{ bXbXbXbXbXbXbX",
"bXbXbXbXbXbXn { [ +.z.h.z.c.n.v.n.n.K.I.).).).Y.Y.Y.Y.;X;X;X;X;XqXeX;X0X0X0X{.{.@X;X;X|..X}.|././.E.W.W.G.G.3.$.q.G bXbXbXbXbXbX",
"bXbXbXbXbXbXF [  .:.z.z.n.K.(.n.(.%X(._._.)._.{.{.;X;X;X>X0X3XeXqXqXwXqXqX0X0XoX>XqX3X2XoX}. X X X'.E.W.W.5.F.1.| { bXbXbXbXbXbX",
"bXbXbXbXbXb O.[ ..y.z.n.K.(.%X%X&X&X&X,X}..X5X,X;X;X;X0XrXtX0X0XtXtXtXtXtXqXtXqXyXeXeX2X2XXX X X X'.'.E.W.F.F.S.q.9.A bXbXbXbXbX",
"bXbXbXbXbXA O...;.y.h.n.%X&X&X&X:XrX5X5X,X2X2X2X3XqXrXiXtXrXrXrXtXtXiXiXuXsXuXhXgXgXdXfX4XXXoX X X X'.E.W.W.F.G.1.@.F bXbXbXbXbX",
"bXbXbXbXbX~ +.#.:.h.u.I.&X:X:X&X:X6X:X,X<X<X2X4XyXyXpXpXiXiXiXiXvXpXsXlXlXlXlXhXgXgXkXgX4XXX X X X X XE.T.T.F.S.a.$.] bXbXbXbXbX",
"bXbXbXbXbX} 8.;.h.h.z.n.).%X&X).(.%X].].]..X2X8XhXhXhXpXjXpXvXvXsXjXxXjXjXlXjXhXjXxXxXcXhXdX.X[. X X XE.5.W.G.G.a.$.| bXbXbXbXbX",
"bXbXbXbXbXO.@.;.h.h.k.h.n.(.v.v.j.j.V.~.'.XX4XyXuXhXjXxXxXxXxXvXlXlXjXxXlXjXzXzXjXcXcXcXcXjXwXoX X X XE.W.G.G.S.S.1.@.bXbXbXbXbX",
"bXbXbXbXB }  .;.h.l.j.h.l.K.j.j.x.j.C.R.V.XX5X4XyXyXhXzXxXzXlXlXlXlXjXzXzXjXjXzXjXxXcXcXcXhXdXoX X|.'.W.4.l.S.1.1.$.$.] bXbXbXbX",
"bXbXbXbXC ^  .#.p.k.v.2.k.v.n.x.j.j.j.C.C.~.XX4X4XhXyXuXpXjXhXlXlXjXjXxXjXhXjXzXjXlXcXxXxXhX4XoXoXeX XT.5.G.G.S.1.$.@.F bXbXbXbX",
"bXbXbXbXC ^ } O.#.2.a.k.:.,.x.V.x.V.V.T.Q.~.].<XeXgXyXgXdXhXhXkXjXjXjXxXkXkXkXhXjXjXjXxXjXdX4X1X1XeX XB.5.5.3.i.$.@.X.] bXbXbXbX",
"bXbXbXbXA { ^  .....2.*.&.>.3.V.V.v.T.~._.].].].2XeXwXwXhXhXhXkXxXjXjXhXhXhXfXdXgX8XdXhXdX4X2XoX4X1X.XB.3.3.1.1.o.X.@._ bXbXbXbX",
"bXbXbXbXC ~ Z E O...&.%.&.>.,.l.C.x.V.Z.~.'.'.[.2XdXgXdXgXgXgXkXjXhXhXgXhXdXdXdX8XdXgXhXgX4X1X2X2X1X XB.3.3.2.$.o.X.X.] bXbXbXbX",
"bXbXbXbXv ~ Z Z ^ ..o.' >.<.l.l.v.v.V.~.V.~.`.,XoXgXgXdXgXgXhXhXkXhXhXjXgXhXgXgXgXhXjXjXeX1X2X2X1X2X.XR.3.5.1.$.X.@.X.] bXbXbXbX",
"bXbXbXbXv [ ~ Z T  .*.&.*.3.v.!.T.K.F.V.!.~.}.,X2XgXhXgXdXdXgXgXgXhXgXkXdXhXhXkXzXzXjXyX4X2X4XeXwX1XoX/.l.G.3.1.X.@._ ] bXbXbXbX",
"bXbXbXbXv ~ ~ ^ ^ +.-.*.:.z.!.!._._._.~.T.T././.,X4X4XwXdXdXgXhXhXhXhXhXhXkXxXjXhXkXjXgXyXwX4X4X4X4X1X}.G.S.D.2.o.X.X.[ bXbXbXbX",
"bXbXbXbXC ^ R ^  .#.*.-.y.z.F.z.p.z.D.n.K.Z.~.~.].,X2X4X4X4X4XgXgX8XgXhXhXhXhXgXgXgX1X1X;X).^.v.F.!.^.|.G.S.S.1.*.` $.$.bXbXbXbX",
"bXR.B.bXR [ ~ ~ +.;.;.;.;.+.Q V g g k Y E  .o.:.x.T.^._.,XXX<XoXXX8X<X4XwX,X].!.D.p.+.T Z k h k Z W ` $.S.S.S.S.o.X.$.X.=.oX XbX",
"=.Q.Q.[.V.O.^ E +.*.o.i. .g 2 < < 6 , , O # 1 6 g Y o.3.F./..X~.oXXX X/./.k.2.W e : < < 6 i h V _ #.X.E X.S.S.2.o.` #.a.fX8XOX%.",
"bX( =.C.].n.~ ^ ..;.#.+.U Y X.#.o.[ ] m h <     X : r P W ' 2.5.T.^.k.' ` ` P g 2 O X ; h ] q.f.c.F.^.S.1.1.1.3.=.` $.1X X XW.bX",
"bXV.!.h.v.-X#.T ..;.i.i.+.a.$.Y g i w , * @ S s : 2 : O : 2 k ` l.!.k.W T Y ; +   ; B 3 < , - f k Z _ a.D.L.S.G.3.` 1.R.V. X[.bX",
"bXl.T.:.P 2.p.E ..*.i.s.d.[ e j R { 9 8 0 w 7.[ Y W o.+.P V ` 2.T.4XwX^.D.L.a.i.8.#.S.w.w.9.e.H.S.$. ...G.{.^.G.3.&.o.>.l.oXfXbX",
"bXk.5.%.-.y... ...;.a.a.a.1.i.p.d.i.#.w.q.i.i...;.p.c.L.D.*.! V.'.wXdX X|.iXpX;X/.R.^.L.D.D.L.{.^.{.0X|.{.1X|.^.5.;...t I 4.OXbX",
"bXT.Q.C.].-Xp./ ..2.c.K.D.G.I.L.S.s.i.f.J.I.I.D.*...i.p.*.=.:._.XX4X2X'.R.oX0X;X;XqX0X;X0X0X0XtXtXuXuXeX1XoX1X|.5.1.1.+.I N.oXbX",
"bXbXdXE.6X].~.O. .2.l.K.K.F.).{.;X3X3XtXtXtX>XI.2.*.*.*.3.j.x.V.]. X2X XW.Q. XwXqXqXtXhXpXuXzXzXlXlXuXqXeX1X.X|.T.o.*.|.I N.2XbX",
"bXbX,X/.1X.X,X9.E :.z.l.F.(._._.,X,X3XtX4X1X|.(.D.v.v.T._.~.x.x./.Q.XX[.E.E.oXwXhXgXwXdXyXuXjXlXjXhXuXwX1XoXoX/.G.o.3.oX) B.eXbX",
"bXbXB.XXQ./.4Xs.W p.z.h.z.T.~._._..X2X4XqX3X-X-X_./.!.V.*X!.u.V.].<X2X].R.Q.].2XhXkXhXhXjXhXhXzXlXhXeX4X2X1X.XT.3.` !.l.K '.bXbX",
"bXbX~.XXC.C.!.^.E *.2.3.l.x.V.V.~.].,X4X4X,X,X~.V.Z.V.C.n.n.x.`.].8XdXXXB./.[.<XgXhXkXzXlXjXjXjXlXwX2X,X1X.XT.G.3.o.^.<.K !.bXbX",
"bXbXbXz.].~.V.^.+...p.h.k.x.v.B.].<X5X4X4X,X-X~.V.V.x.n.m.z.n.`.,X8XgX9XV.V.T./.4XzXzXhXlXzXjXzXlXuXoX.X.X/.F.l.*.$.l.<.4.5.bXbX",
"bXbXbXi._._./.v.+. .:.:.v.v.V.V./.,X,X].,X-X~.Z.V.C.u.u.z.u.n.].4XaXgXyX].C.V.v./.oXdXhXzXzXjXjXgXyXoX'.E.T.5.3.W ` R.^..X;.bXbX",
"bXbXbXbX!.V.v.T.E W ;.;.h.z.j.C.R.R.~.R.~.Z.x.l.h.:.u.z.m.y.`.4XhXgXhXyX].x.~.`.,X/.C..X2XwXdXdX4XoX XE.W.5.3.*.q =.B.B.!.bXbXbX",
"bXbXbXbXbX(.V.<Xz.i  .o.:.2.j.j.l.C.j.3.4.<.4.j.x.u.z.Z.z.u.Z.4XyX6XjXhX_.!.].~.!.-Xl.>.R. XoX2X2X X XW.5.3.2.k 5 l.C.Q.l.bXbXbX",
"bXbXbXbXbXbXbX_.a.@ k  .^ ;.:.:.:.,.=.<.,.=.=.j.v.x.z.Z.y.-.u.~..X,X4X4XV.v.Z.v.F.,X,X:.=.T. X X.X'.^.G.2.*.W < e 5.C.4.bXbXbXbX",
"bXbXbXbXbXbXbXbXbX@ 3 V T Q  ...' &.' *.*.&.=.:.j.n.t.L e 7 N &.u.,.j.y.Y V 2.c.K.3XwX1Xk.5.!./.|.L.G.3.2.o.d 7 d bXbXbXbXbXbXbX",
"bXbXbXbXbXbXbXbXbX$ * 0 m Y Y ` ` Q ' *.&.=.:.h.V.n.n.t.^ U N 7 7 r M T T +.i.z.z.^.|.eX;XT.F.F.l.G.S.o.` m q d bXbXbXbXbXbXbXbX",
"bXbXbXbXbXbXbXbXbXbX* , a k l _ ` ' &.%.&...:.z.h.j.y.8.+.T R m l g r k M  .8.i.c.;.k.L.^.!.|.|.F.3.S.P k f d 0 bXbXbXbXbXbXbXbX",
"bXbXbXbXbXbXbXbXbXbX@ 4 * 0 h l W +.&.Q E Y W X./ -./ T M T +.;.;.;.^ #.8.i.} g.J.#.#.a.a.3.L.oXF.G.X.k i j k 7 bXbXbXbXbXbXbXbX",
"bXbXbXbXbXbXbXbXbXbXo 5 # @ d d Y o.' Y l M Y Y T / ^ T E E +.;.+.T Y  .p.p.p.K.K.p.X.[ $.2.3.oXF.` _ h i k j bXbXbXbXbXbXbXbXbX",
"bXbXbXbXbXbXbXbXbXbXbX# i , 0 j P ` _ k k k g g R W W / u.u.x.x.(.n.x.Z.~.^.!.k.2.*.W l R o.k. XG._ g i h k 4 bXbXbXbXbXbXbXbXbX",
"bXbXbXbXbXbXbXbXbXbXbX# q 5 4 q k E _ h g d 7 j g l P P U ! ( x.v.n.x.6.( ! P t P / 8._ ` ` $.L.S._ i k g q 3 bXbXbXbXbXbXbXbXbX",
"bXbXbXbXbXbXbXbXbXbXbXo # 5 1 6 h F V j k k _ o./ / W L t y t t t t L U ! 6.6.M.+X:XuXJ.o. .$.G.X.h 5 j r 0 bXbXbXbXbXbXbXbXbXbX",
"bXbXbXbXbXbXbXbXbXbXbXbX$ 4 4 , v f j m h k _ *.y.n.n.`.+XZ.Z.+XM.M.+X+X7X9XaX6X5X_.|.P.@._ @.$.k i i d 0 3 bXbXbXbXbXbXbXbXbXbX",
"bXbXbXbXbXbXbXbXbXbXbXbX. @ 5 , * 4 a j j ^ E t.-./ -.n.&X6XaXaX6X9X9X6X5X5X,X~.k.c.K.J.d.R C Z f i d d 0 @ bXbXbXbXbXbXbXbXbXbX",
"bXbXbXbXbXbXbXbXbXbXbXbXbXo 4 , * 3 4 8 0 m Z ^ .. .M Y Q ;.g.c.I.%X%XZ.v.a.2.1.k.G.D.2.$.R h v i 5 i i @ bXbXbXbXbXbXbXbXbXbXbX",
"bXbXbXbXbXbXbXbXbXbXbXbXbX$ @ * 0 & @ 8 z D m M E T l q 0 q < r > 7 n b m ] _ 2.p.k.a.$.{ F a i , i i 8 bXbXbXbXbXbXbXbXbXbXbXbX",
"bXbXbXbXbXbXbXbXbXbXbXbXbXbX& u 3 3 9 c J H q f k V ' M g r < > 1 & 0 g l ..k.c.K.i._ | A D z 8 i a i @ bXbXbXbXbXbXbXbXbXbXbXbX",
"bXbXbXbXbXbXbXbXbXbXbXbXbXbXbXu x x 0 S J S B B m ~ #.;.;.t.y.y.p.+.+.v.!.(.^.{.J.#.[ A f v v 8 s q & bXbXbXbXbXbXbXbXbXbXbXbXbX",
"bXbXbXbXbXbXbXbXbXbXbXbXbXbXbXbX- c x x S 7.7.J A [ 8.s.i.K.I.z.m.v.m.n.^.^.K.D.8.| | F 7.D D 8 4 * bXbXbXbXbXbXbXbXbXbXbXbXbXbX",
"bXbXbXbXbXbXbXbXbXbXbXbXbXbXbXbXbX9 z x J r.$Xe.w.7.} } #.s.y.m.z.t.8.g.t.t.i.s.O.| 7.{ 0.c z 9 o bXbXbXbXbXbXbXbXbXbXbXbXbXbXbX",
"bXbXbXbXbXbXbXbXbXbXbXbXbXbXbXbXbXbXO 9 S r.$Xe.w.7.G ^ 8.t.t.f.8.} ^ g.f.f.f.P.w.w.e.b.0.x = % bXbXbXbXbXbXbXbXbXbXbXbXbXbXbXbX",
"bXbXbXbXbXbXbXbXbXbXbXbXbXbXbXbXbXbXbXbX= J e.A.e.7.7.Z R O.8.q.A A ] O.g.@.8.g.9.e.e.0.S = bXbXbXbXbXbXbXbXbXbXbXbXbXbXbXbXbXbX",
"bXbXbXbXbXbXbXbXbXbXbXbXbXbXbXbXbXbXbXbXbXbXc G r.G G F D C F ~ C v F ] Z b A { 7.H S c o bXbXbXbXbXbXbXbXbXbXbXbXbXbXbXbXbXbXbX",
"bXbXbXbXbXbXbXbXbXbXbXbXbXbXbXbXbXbXbXbXbXbXbXbXx p 9 S H p s B v a 8 p a z z c v 9 bXbXbXbXbXbXbXbXbXbXbXbXbXbXbXbXbXbXbXbXbXbX",
"bXbXbXbXbXbXbXbXbXbXbXbXbXbXbXbXbXbXbXbXbXbXbXbXbXbXbXbX= 3 - u & % % $ % = bXbXbXbXbXbXbXbXbXbXbXbXbXbXbXbXbXbXbXbXbXbXbXbXbXbX"
};
