/* XPM */
static char *result[] = {
/* columns rows colors chars-per-pixel */
"64 64 254 2 ",
"   c #130000",
".  c #36150D",
"X  c #1A3B04",
"o  c #39261D",
"O  c #35321E",
"+  c #3C2B24",
"@  c #393328",
"#  c #4E291F",
"$  c #472C23",
"%  c #552F25",
"&  c #463429",
"*  c #4C342B",
"=  c #55372C",
"-  c #483831",
";  c #553C32",
":  c #5C3D33",
">  c #523F38",
",  c #6D362F",
"<  c #1D4104",
"1  c #2B4E15",
"2  c #2B4A19",
"3  c #33531E",
"4  c #36591C",
"5  c #365A1D",
"6  c #3A4A2C",
"7  c #345423",
"8  c #385427",
"9  c #3B5D24",
"0  c #3B562C",
"q  c #3D5C2A",
"w  c #3E5A32",
"e  c #3E6125",
"r  c #3F602A",
"t  c #4B4A2D",
"y  c #43542D",
"u  c #415D2B",
"i  c #4A433A",
"p  c #594338",
"a  c #425D33",
"s  c #475937",
"d  c #634236",
"f  c #6B4537",
"g  c #64453A",
"h  c #6B463A",
"j  c #6D493C",
"k  c #76483B",
"l  c #734B3D",
"z  c #6E583C",
"x  c #416427",
"c  c #42642B",
"v  c #466629",
"b  c #466A2C",
"n  c #496C2E",
"m  c #4B712F",
"M  c #456432",
"N  c #496634",
"B  c #476932",
"V  c #4B6C34",
"C  c #47643A",
"Z  c #4D6C3A",
"A  c #566938",
"S  c #516D3C",
"D  c #4E7134",
"F  c #4F713A",
"G  c #517436",
"H  c #53743B",
"J  c #57763C",
"K  c #55793C",
"L  c #597C3E",
"P  c #636A3B",
"I  c #61773F",
"U  c #5A4A44",
"Y  c #5B564A",
"T  c #674D45",
"R  c #764E41",
"E  c #695347",
"W  c #7D5244",
"Q  c #78564A",
"!  c #755D4B",
"~  c #6F5F5C",
"^  c #765C53",
"/  c #566B44",
"(  c #526C47",
")  c #557542",
"_  c #597543",
"`  c #577842",
"'  c #5B7C43",
"]  c #577448",
"[  c #5D7C4A",
"{  c #696947",
"}  c #77664B",
"|  c #637A45",
" . c #617E4B",
".. c #77744C",
"X. c #786358",
"o. c #7B6761",
"O. c #883E36",
"+. c #924D3D",
"@. c #A54F3A",
"#. c #854F43",
"$. c #934F48",
"%. c #835546",
"&. c #84564A",
"*. c #825A4C",
"=. c #885849",
"-. c #8C5B4C",
";. c #935E4D",
":. c #985A4B",
">. c #885D52",
",. c #945D52",
"<. c #AC5C5E",
"1. c #876F4D",
"2. c #95634E",
"3. c #83744D",
"4. c #856654",
"5. c #8B6354",
"6. c #85655B",
"7. c #8B655A",
"8. c #946454",
"9. c #9C6553",
"0. c #9C6A55",
"q. c #9D665A",
"w. c #936858",
"e. c #956B5A",
"r. c #9C6B5B",
"t. c #9B745A",
"y. c #A36652",
"u. c #A86757",
"i. c #A36955",
"p. c #A36C5A",
"a. c #AB6D5B",
"s. c #B36C5A",
"d. c #A4725E",
"f. c #A87658",
"g. c #AB715D",
"h. c #B3745D",
"j. c #BA745E",
"k. c #996E61",
"l. c #8E746C",
"z. c #9A7465",
"x. c #A76E62",
"c. c #A47463",
"v. c #AB7462",
"b. c #AC7965",
"n. c #A87768",
"m. c #AD7C6B",
"M. c #B47564",
"N. c #BB7664",
"B. c #B37A65",
"V. c #BC7B64",
"C. c #B5756A",
"Z. c #B2736E",
"A. c #BB736C",
"S. c #B37C6A",
"D. c #BC7C6B",
"F. c #BB7C71",
"G. c #C17A65",
"H. c #C27D6B",
"J. c #C77B7A",
"K. c #D0757E",
"L. c #5B803D",
"P. c #5D8144",
"I. c #5F814A",
"U. c #618446",
"Y. c #648946",
"T. c #62844B",
"R. c #668A4C",
"E. c #698C4E",
"W. c #658552",
"Q. c #688451",
"!. c #678951",
"~. c #6A8C52",
"^. c #6C8C59",
"/. c #798A57",
"(. c #6E9154",
"). c #6F905B",
"_. c #709556",
"`. c #72955A",
"'. c #769A5D",
"]. c #7A9E61",
"[. c #7DA164",
"{. c #8A875A",
"}. c #A1845B",
"|. c #9A837D",
" X c #AC8669",
".X c #B98166",
"XX c #B4816C",
"oX c #BC836D",
"OX c #A8956C",
"+X c #AC8172",
"@X c #B38473",
"#X c #BC8472",
"$X c #BB8974",
"%X c #B58978",
"&X c #BC8D7B",
"*X c #BD907D",
"=X c #83A569",
"-X c #C7876B",
";X c #C4826C",
":X c #CA846D",
">X c #D4896E",
",X c #C38473",
"<X c #CB8573",
"1X c #C48A74",
"2X c #CB8A74",
"3X c #C6867A",
"4X c #C48B7B",
"5X c #CA8B7A",
"6X c #D28C75",
"7X c #D28D7A",
"8X c #C39177",
"9X c #C3917C",
"0X c #CC937C",
"qX c #D39076",
"wX c #D4937C",
"eX c #DA957D",
"rX c #E19379",
"tX c #BE9181",
"yX c #C98B83",
"uX c #DB848C",
"iX c #C39481",
"pX c #CB9A84",
"aX c #CC9887",
"sX c #D49482",
"dX c #DA9682",
"fX c #D59A84",
"gX c #DA9B84",
"hX c #D3958C",
"jX c #D39E89",
"kX c #DB9D8A",
"lX c #DA9894",
"zX c #E09E88",
"xX c #E19998",
"cX c #CFA18F",
"vX c #D5A28D",
"bX c #DCA18D",
"nX c #CFA291",
"mX c #D3A593",
"MX c #DEA491",
"NX c #D9A897",
"BX c #DCAD9B",
"VX c #DEB09E",
"CX c #E6A487",
"ZX c #E1A38D",
"AX c #F5A689",
"SX c #E2A692",
"DX c #E3A996",
"FX c #E5AD9B",
"GX c #E8AF9D",
"HX c #E5B09D",
"JX c #E8B19E",
"KX c #DAB0A1",
"LX c #E5B3A2",
"PX c #E9BAA9",
/* pixels */
"e c 9 1 r V r !.I.r r w r ( ) 7 P.L P.H D P.P.P.H P.Y.' ....3.1.5.3...J 5 e P.x n | P.L e n E.D 9 ' D K D 4 B P.` ~.I.K P.P.V B ",
"c q 9 B W.P.3 r Z r ) r P.[ ) 7 b G P.D V E.T.J ' ..4.8.d.b.m.b.v.b.b.q.e.3./.H x L m b K K G K 5 G D ` H V P.!.I.~.I.I.!.H e b ",
"J 9 X 3 Z r r Z I.r r I.[.r 7 ) D b D D m V { } 7.p.v.v.B.B.B.B.B.XXS. XB.S.v.e...I n x L L x m H ' K ' G G U.K H D r m K G P.(.",
"c q 2 V ) r F F I.) r ) F r r r I.H H D { } 8.c.d.g.S.B.B.oXoXoXoXD.D.D.S.b.v.d.g.w.3.G n U.K x D b b D D P.E.K 5 m K L.P.P.G r ",
"7 w 8 ( ` Z ) e H Z c H 1 F F r q _ | Q >.0.r.c.c.b.d.b.XXB.oX$X$XoXS.B.B.b.b.B.d.p.c.w.A (.R.V D x n n n L.Y.K L.P.L.L.D L.P.L.",
"C C 7 7 r Z w r J c v !.r P.P.P.X P &.>.w.r.d.x.d.d.d.m.XXXX$X$X$X$X@X+Xm.m.d.v.M.d.p.g.y./.J G P.K L.K G U.L.G m r L.]._.R.P.I.",
"C C w r I.I.w r Z ' R.H G E._.G P &.&.8.r.r.k.c.c.c. XS.XX$XXX$X1X#X$X@X+Xm.m.b.v.M.f.0.f.i.P x G G Y.Y.Y.Y.L Y.(.G L.Y.L.G Y._.",
"7 q w r ] ) 7 W.!.' U.v E.D L.J &.&.8.k.x.c.z.n.m.m.+X@X@X$XoX@X$X$X%X%X@X@XXXm.B.v.v.p.9.a.y.N m L.E.Y.Y.L.4 m P.L.P.L.m L.E.E.",
"C 0 C w C ^.) ` J Z E.B v G V R &.8.c.c.n.n.n.m.+X@X%X%X$X$X$X$X$X$X&X*X%X%X@X@XXXS.b.h.f.i.g.5.Y._.G b m e G P.5 E.m L.m _.L.e ",
"W.r w r Z ) r ` ` H L 9 v ' E >.8.x.v.Z.m.n.n.m.+X%X%X%X&X8X&X8X9X*X*XtXtX&X%X%X$X1XV.V.h.g.g.c...E.Y.K G m m m L.L.r G _.L.G m ",
"I.7 7 w Z C 7 M ` ' V 9 G  .! 5.p.M.C.S.S.S.m.F.%X%X&X*X*XiX9XpXpXpXiXiXtXtX*X*X8X1X-X;XV.V.B.t.4.L G L.m m L.m L.L.L.m P.m G m ",
"C w Z B ) W.F c B ` v B ' { 6.9.C.C.S.S.F.#XyXtX1X&X*X*XpXpXpXpXvXcXpXpXiXiXpX0XwX2X2X2X-XV.V.b.z.{ m G m K R.L.m E.L.m b e m m ",
"( ) r r Z ^.[ M q H 9 H ' } 8.p.C.F.#XF.#XyX5X5X8X9XpXpXpXcXcXcXvXvXvXpXcXpXvXfXwXwXqX6X>X;XG..Xc.} D L K ` P.r H H e e m x x x ",
"P.V r r c V B M V _ N ) / >.8.a.C.F.yXyXyXyXsX5XfXsXpXaXnXmXcXnXmXvXmXnXvXbXbXgXgXqXqXqX>X-X;X.Xd.6.Z P.P.P.G 1 b D m e K b L.D ",
"!.) r F F b V ` Z I.[ ) / w.q.a.Z.yXyXyXaXlXhXsXgXgXvXcXmXnXnXmXmXNXBXVXFXSXCXzXgXwXqXqX2X-X-XoXc.e.A H P.F B e e I.P.F ` K I.H ",
"m r e V H Z H ` q ) T.] } r.p.v.Z.tXhXyXaXnXsXdXdXkXSXNXKXmXNXKXBXHXVXHXFXSXFXDXgXeXqXqXqX-X;X.Xb.c.{ N F r D K P.P.9 (.I.P.b K ",
"[ q r q ( r r ).x ~.J n ! p.d.M.C.3XyXyX&X5X5X7XeXZXDXDXFXBXKXVXHXHXHXFXDXFXHXLXDXgXqXqXqX-X;XoX Xn.} P.D G L.5 I.P.r L.m r L.L.",
"I.) 7 7 r P.I.) B T.G G ^ r.g.C.C.C.3XD.N.N.<X6XgXlXMXFXLXLXVXHXHXHXHXBXJXFXPXPXLXSXwXqXqX-Xj.XXb.c.} Y.m r n 5 5 P.P.P.P.r m r ",
"[ ` 3 ( ` r I.P.V ' x V } 9.c.V.M.M.D.B.N.N.H.>XdXkXMXDXLXLXHXVXHXFXFXFXFXGXPXPXLXbXeXqX6XG.B.B.d.z.4.c r K D e e P.K r r r P.R.",
"C w 2 I.( r ) r E. .x J ! 8.p.C.V.M.D.D.N.G.G.H.7XgXMXMXMXFXFXHXFXHXGXGXFXGXLXPXLXbXeXgXqX.XV. Xd.t.4.4 K E.P.b e P.G n P.P.K G ",
"q 7 2 q r I.r q Q.` 5 I ^ w.8.c.B.g.s.H.H.H.H.<X<XdXlXSXSXDXDXDXFXGXHXFXGXFXFXFXDXgXgXgXqXG.j.b.d.r.5.m P.U.F H P.P.P.L.Y.P.e e ",
"r q 3 7 r I.r ( H V 5 U.} ,.8.0.a.y.u.N.D.D.<X<X6XeXgXbXSXSXGXGXFXFXDXMXZXZXCXSXSXdXfXgXwXj.h.f.0.e.2.V H H K Y.~.P.L.r r L.L.R.",
"Z ( r C W.r e I.V J B E.! >.5.q.9.y.u.j.G.D.H.<X2X7XkXZXkXSXDXGXDXDXSXZXCXgXZXDXZXeXfXgXqXj.g.g.r.e.5.v D Y.Y.P.P.r P.P.r R.R.P.",
"r W.r q ).) r e c D c ` ^ *.*.8.y.y.s.N.D.D.,X<X6XwXkXSXSXSXDXDXDXDXDXDXSXDXFXHXgXgXvXfXqX;Xh.d.w.e.5.I Y.`.T.c P.r R.P.L._.(.r ",
") W.F Z r 3 9 r W.L.r r ! >.Q -.y.u.g.;X#X,XD.,X5XsXkXDXZXZXSXSXSXSXSXDXGXJXJXSXkXgXbXkXfX-XB.b.r.w.5.| m K P.(.L.r P.D P._.R.1 ",
"W.] r ( C 2 r !.I.W.(.P.! >.>.8.i.a.C.,X5X4X<XH.<X2XdXMXSXbXSXDXDXDXDXFXFXDXFXMXMXkXkXkXfX1XS.B.i.2.w./.U.H H E.L.Y.r L.(.R.G r ",
"I.I.F ( F P.!.I.' E.'.P.} >.5.q.u.p.S.F.M.C.D.H.<X<X7XdXkXkXZXSXxXDXGXDXSXMXbXjX0X$XD.oX4X1XXXS.p.2.t.' P.(.'.(.L.R.P.P._.P.r _.",
"( F F ) I.).W.7 ' {..X{ *.5.-.p.p.p.q.=.h h W -.8.x.D.1XwXwXdXsXrXgXzXsX5X#Xa.=.Q j R =.2.c. Xb.0.e.t.2.8X}.(.P.P.r r P.G r P._.",
"( r r P.W.I.r 9 ~.i.rX>Xa.>.,.i.r.q.h # % * + o $ * k 2.N.<X7XqXwX2X2XB.2.% # $ = j &.w.8.;.c. Xi.2.d.eXAXf.K Y.P.r m D r r K P.",
"Z F C w Z Z r F E.} s.G.5X,.-.q.r.=.=.q.0.5.R T .   . = +.;.f.G.2Xa.;.:.k % . . E e.m.XX1Xb.c.b.f.2.$XwX>X1.U.E.K ` m D Y.K r G ",
"C I.F 3 w ) r I.E...6XM.3Xn.-.p.c.r.n.0.h : & . U g # # . % k a.1Xd.#.R .   : ; $ - p R -.XX#XXXh.2..X;XeX}.Y.K D r r Y.R.P.G m ",
"F w 7 7 I.Z 1 F ~...-Xy.:.c.,.p.n.m.-.= *.^ - * ^ 6.%.9.7.l 2.j.fXfXXXF.a.r.c.n.l.z.+Xn.2.d.8X8Xh.i.y.B.MX=XP.R.K < e (.m G Y.r ",
"N q c Z ) _ ' V D P j.u.x.q.,.p.b.n.d.c.n.r.k.z.c.0.p.S.$Xc.u.:XCXgX8XNXnXqX1X$XXX$X&X8XvX0X0X0X.Xd.+.+.qXOXL Y.H ' ].P.b e P.P.",
"_ a q N ) H V q b A ;XH.7XS.-.p.XXoXoX$X@Xn.m.@X&XXXy.c.v.y.s.7XgXdX2XfXpX0XcXpXcXcXmXmXvXvXvXeX-Xf.2.+.6XOXG H G L P.' L (.Y.H ",
"[ M 8 N ) H B c K Y.8XgXfX,X,.p.oX,X#X4XpXjXnXmXmX#Xp.y.a.j.D.<XeXeX:X>XvXvXvXBXBXFXHXHXMXvXeXwX2X9.oXu.-X{.e 1 K P.x m D R.m 4 ",
" .S M Z ] F Z H ).]. XgXsXsX8.i.B.D.,X5XsXfXbXbXpX4X.XD.3X<XN.H.6XeX<X>XzXDXZXbXMXDXHXDXMXvXeX0X;X0.-Xs..X/.K B R.(.V D H H B m ",
"[  .S S _ B B ' Y.!.t.eX<XfXk.i.B.M.;X5X5XsXkXkXsX0X5XH.,X3XA.3XdXdX<X>XeXDXFXFXDXDXHXFXvXfXgXqXh.p.-X@.XXU.P.m L.L.r D I.m P.(.",
"C ] S N S B B [ B F 3.6XG.<XS.,.h.M.A.H.:X7XkXhXsX4XJ.H.A.D.A.5XdXzX<X<XqXZXDXGXHXFXHXDXgXfXwX-Xh.f.V.@. X' D B F m e G (.m P.P.",
"u / N q H ) F ' b D L S.6X,XS.8.a.C.D.V.<XdXhXjXsX<XH.H.J.M.J.yXzXDX<XH.<XzXGXGXJXHXHXDXgXqX0X.Xf.d.j.j.{.'.P.Y.I.P.n I.E.K I.G ",
"Z [ B 8 ) I.Z F D G P.z.dX2Xv.2.a.M.D.H.6XsXwXsX5XJ.G.M.x.Z.H.dXSXDXsXG.H.2XgXDXJXHXDXDXwX6X-Xj.:.0.2X2X{.(.b D L.I.m (.P.I._.K ",
"^.[ u  .M H 9 Z I.I.~./.3XoXM.*.i.x.C.V.H.2X:X,XH.N.s.x.A.C.3XMXSXSXsXH.<XsXH.6XgXZXZXgX2X-XV.g.k y.-X.X`.P.r (.R._.P.P.P.R.(.I.",
"N M 7 Z a Z B ` V ) P.(.XX7X2XW ;.a.a.N.G.G.N.s.s.N.A.C.F.x.<XlXSXFXsXJ.5X<X4Xs.:XsXgXeXqX.Xj.9.d M.>Xf.~.R.P.R.P.R.K P.I.P.G e ",
"] [ _ _ Z C F H P.P.P.R.H 3. Xg R 8.q.a.a.s.s.s.a.N.D.A.F.u.M.7XdXkX,XA.H.,XfXB.h.2X7X0X2Xj.f.l % h.d.J P.L.P.P.K P.G P.P.D m r ",
"[  .Q.Z ` ` E. .P.L.P.P.K b G u : &.2.8.2.9.y.y.y.s.D.Z.k = k s.N.C.-.=.C.,XvXfXj.;X2X1X.Xh.y.d t P P.P.I.P._.P.P.P.P.P.P.L.R.'.",
"Z S _ q H _ ~.) ) F (.P.E.b m r @ g %.=.;.:.y.i.u.N.D.A.x.&.k * , Q -.q.n.S.8XvX0X;XoX.Xb.9.z f A L.(.E._.Y._.R.P.U.P.R.R.P.(.[.",
"_ ] [ q S _ ' r P.P.(.P.R.m G H o ; j =.2.2.y.y.y.Z.C.x.q.>.%.R h , R 8.c.v.g.oX1X1X0X.Xf.l j p A | ~.L R.P.P.r e L.r P._.R.P.P.",
"Z / _ V _ !.!.V P.P.L.m m r b P.t $ = l %.y.2.:.&.,.,.q.W W 8.a.r.8.z.k.c.m.k.c.b..X0XoX0.l g f L P.T.n _._.D P.5 r r R.(.P.P.e ",
"q V H C ) [ H q F (.G P.r P.m E.y $ $ p W y.=.k W W ,.,.&.,.q.i.=.&.c.v.S.#Xx.7.t.j.0Xv.%.d l p K G G 4 '.].D R.P.]._.(.~.P.P.r ",
"Z I.B ` V K I.P.K ` I.I.r C Z W.y = * ; W 2.%.R f l =.-.,.s.A.,XF.D.3XK.F.v.2.k =.b.1Xf.j g l t !.G U.U.`.L G ' L U.G L U.x v ' ",
"V ) B ) K ' R.P.P.E.~.B r I.[ ` Z * = = l -.l h : d f k $.$.<.C.F.A.<.$., O.q.w.;.t.$X0.p l f s U.v T.U.' G | U.v L '.u ' X v G ",
") I.` ` K H D 5 ` F F 9 r ) w I.9 O & $ j ! l h %.9.:.$., , , , , O.,.<.G.K.MX&X2.0.B.*.= h * Z | 9  .U.G J U.G H T.U.V L v ' ' ",
"8 C B P.K ~.' V D b D r I.F w ^.V y = & p g l h %.u.C.F.K.K.K.J.A.K.uXxXlXhX8X%Xw.w.e.d p d t ) G V ~.E.L ' H b E._.4 R.H =XE.(.",
"3 w r P.r ).` I.K I.(.r W.W.I.I.' A o & + - T R >.q.y.i.F.lXNXxXxXlXuXhX5XD.XX#Xt.W W p g p t J n ~.'.T. .L N K T.U.V E.U. .T.T.",
"] P.w ` 8 I.r K P.H H Z ^.^.( ) Q.T.@ * + & * p Q -.8.&.%.q.v.#XJ.yXF.n.p.B.oXb.7.T g ; d * 7 ) ' (.` B T._.V ' [ J ' (.!.H | ' ",
"[ w ( ) F ) r F P.r r ` I.I.w W.H S @ + - o @ T Q W =.k ; > * = = T R Q p.v.m.r.4.T p = p & w [  .' v c J `.J _ T.' V ^.' T.Y.K ",
"] 7 ) ` ).` r r P.` I.I.( ^.I.I.[ Z q - - * U o.T p R ,.#., % $ $ d l p.S.@X0.4.^ E = p > 0 B [ c V G H u L H R.!.T.J J B Z R.H ",
"w (  .Z [ Z N c F F N A Z _ _  .) Z  ./ U > Y ~ Q T Q w.a.k.x.v.q.a.#X,X9X@Xw.Q T U p p @ 7 C [ r P.!.) ' ` B I.`.' ) ' Z V ` J ",
"w s C C A M N Q.R.W.J J c Z q q A _  . .i T U X.l.^ ^ k.c.F.,XC.S.F.3X3XXXk.7.6.6.^ i $ 7 ) C W.I.I.I.I.!.[ V (.^._ ) U.` ` ` H ",
"2 0 6 Z q M u  .[ _ B V B _ A ) Z ' | M 0 U U ~ |.l.k.>.e.x.Z.C.k.x.x.x.m.z.6.6.o.U - M F W.C ' ' T.` c ) T.` [ !.) ` T.T.I.` V ",
"2 w a w 8 N M N H A u B N _ S S A _ N 8 q a @ ~ |.tXl.6.7.k.c.Z.7.k.m.m.+Xz.l.+X6.@ 6 ^.I.H ` [ [ [ ` r ) ^.I.[ U.) H _ [ _ Z V ",
"( w w 2 8 a _ A _ _ J R.| Q._ S _ S q 0 C Z a i o.|.l.l.Q >.c.7.Q 5.k.q.n.l.l.l.T a c ` V B [ ~.I.M M ) I.) B W.F F B Z F F F ) ",
"( 6 w 6 N a _ S _ | J | J Q.Q.^.Q.A u N _ / M 0 ( o.l.~ ~ R ^ ^ E 4.Q T ^ 6.o.Y A R.E.H r T.` ^.` V F ) ) ) F I.F F Z Z ` _ ` W.",
"w 6 w s s C A M J | Z V 5 c N _  .N a Z Z _ ) a ( s i i ~ T T E p > U T U Y / /.E.E._.' V ~.' ~.' W.).) F ).).I.F ' ) F W.W.I.!.",
"( ( ( w 2 C ) a u J _ Q.A A Z _ _ a c u q ] ^.( a  .( ( / s s i 6 6 6 s / T.!.^.`.'.n ' D D W.(.` H [ B B I.^.I.( ' Z F !.W.` ' "
};
