/* XPM */
static char *result[] = {
/* columns rows colors chars-per-pixel */
"64 64 237 2 ",
"   c #100000",
".  c #280301",
"X  c #3A0204",
"o  c #1A3B04",
"O  c #2C3617",
"+  c #470A11",
"@  c #4F3017",
"#  c #4A1D22",
"$  c #4D2E2B",
"%  c #483427",
"&  c #25480E",
"*  c #294816",
"=  c #2E4E1C",
"-  c #2F5118",
";  c #325418",
":  c #33541D",
">  c #365A1C",
",  c #395D1E",
"<  c #344926",
"1  c #2F5021",
"2  c #355423",
"3  c #395623",
"4  c #3B5D23",
"5  c #365428",
"6  c #3A542B",
"7  c #3D5C2A",
"8  c #3E5A32",
"9  c #3E6124",
"0  c #3F612B",
"q  c #464519",
"w  c #415D2B",
"e  c #49592B",
"r  c #504D30",
"t  c #425D33",
"y  c #455C38",
"u  c #565636",
"i  c #654D37",
"p  c #416526",
"a  c #42642B",
"s  c #46672A",
"d  c #466A2C",
"f  c #496C2E",
"g  c #4B712F",
"h  c #456432",
"j  c #496634",
"k  c #476932",
"l  c #4A6D33",
"z  c #47653A",
"x  c #4D6C3A",
"c  c #566A3A",
"v  c #516E3C",
"b  c #4E7134",
"n  c #4F713A",
"m  c #517436",
"M  c #52743B",
"N  c #57763A",
"B  c #55793C",
"V  c #597C3E",
"C  c #646A3D",
"Z  c #313E57",
"A  c #1B2E78",
"S  c #412F57",
"D  c #375658",
"F  c #365268",
"G  c #2C487D",
"H  c #6F5446",
"J  c #4A6643",
"K  c #576C45",
"L  c #4E7046",
"P  c #557442",
"I  c #597543",
"U  c #577942",
"Y  c #5B7C43",
"T  c #55734A",
"R  c #5D7C4A",
"E  c #486859",
"W  c #5F7C50",
"Q  c #657945",
"!  c #617E4C",
"~  c #707545",
"^  c #627955",
"/  c #455473",
"(  c #48676A",
")  c #597567",
"_  c #4A6777",
"`  c #537075",
"'  c #6D7064",
"]  c #8A7754",
"[  c #5A803E",
"{  c #5D8144",
"}  c #5F814A",
"|  c #618546",
" . c #62844B",
".. c #658848",
"X. c #668A4C",
"o. c #698C4D",
"O. c #75864F",
"+. c #6C914E",
"@. c #658552",
"#. c #688553",
"$. c #678952",
"%. c #6A8D52",
"&. c #6D8D59",
"*. c #778855",
"=. c #6D9153",
"-. c #6E905A",
";. c #719455",
":. c #72955A",
">. c #76995C",
",. c #799A5A",
"<. c #65876B",
"1. c #6F9163",
"2. c #799566",
"3. c #7B9E61",
"4. c #748B74",
"5. c #7CA061",
"6. c #88895A",
"7. c #8E945C",
"8. c #9C8F6E",
"9. c #8A9863",
"0. c #979467",
"q. c #819578",
"w. c #A4956A",
"e. c #AB926E",
"r. c #B79C79",
"t. c #89A966",
"y. c #95A868",
"u. c #95B56D",
"i. c #9DA072",
"p. c #9DBD72",
"a. c #AFA777",
"s. c #C39B7D",
"d. c #C8A57A",
"f. c #A7C77A",
"g. c #AED07F",
"h. c #001095",
"j. c #19378A",
"k. c #012797",
"l. c #063D9B",
"z. c #193A95",
"x. c #2B3C90",
"c. c #002DA6",
"v. c #023CA4",
"b. c #0E409C",
"n. c #1D459C",
"m. c #395B88",
"M. c #26459A",
"N. c #2C5090",
"B. c #2B5199",
"V. c #3E669A",
"C. c #0348A5",
"Z. c #1745A6",
"A. c #1C45A2",
"S. c #1E4AA3",
"D. c #0952B1",
"F. c #234BA3",
"G. c #254CA6",
"H. c #2956A9",
"J. c #3152A9",
"K. c #3857A8",
"L. c #2656B5",
"P. c #565792",
"I. c #565693",
"U. c #58708C",
"Y. c #6D6893",
"T. c #4C65A5",
"R. c #8C7391",
"E. c #A27F8C",
"W. c #7786BA",
"Q. c #91908B",
"!. c #AD8F93",
"~. c #96A68F",
"^. c #A8A79C",
"/. c #B4A890",
"(. c #918DAE",
"). c #AAAAAB",
"_. c #AAB2A7",
"`. c #ADB5B2",
"'. c #B8BCB9",
"]. c #C79E87",
"[. c #C7A885",
"{. c #D4A987",
"}. c #CBB28D",
"|. c #DAB38D",
" X c #CBA694",
".X c #D9AC94",
"XX c #C9B293",
"oX c #DCBA96",
"OX c #E2B68F",
"+X c #E3BE9A",
"@X c #E8BB99",
"#X c #CDB0B0",
"$X c #CDBBB8",
"%X c #E9BBA4",
"&X c #F0BEAB",
"*X c #AED081",
"=X c #B4D784",
"-X c #BBDE89",
";X c #BEE28C",
":X c #B3C1AB",
">X c #BCC1B9",
",X c #E7C29B",
"<X c #EBC39C",
"1X c #C1E58E",
"2X c #C3E98F",
"3X c #C7EC92",
"4X c #CCC7BB",
"5X c #EBC7A8",
"6X c #F3CBA3",
"7X c #F7C6AB",
"8X c #FBD4AD",
"9X c #E8C4B8",
"0X c #F8C5B1",
"qX c #FCCCB3",
"wX c #FED0B5",
"eX c #FFD8BA",
"rX c #939DC5",
"tX c #9AA5CA",
"yX c #B5B4D2",
"uX c #C2BCC4",
"iX c #C9C7C8",
"pX c #CFCDCE",
"aX c #D3CBD8",
"sX c #DBD7DC",
"dX c #FDDBC4",
"fX c #E2D4D9",
"gX c #C7CBE2",
"hX c #D9D6E3",
"jX c #E1DCE4",
"kX c #E2DCE9",
"lX c #E9E7EC",
"zX c #FFECE1",
"xX c #ECEBF3",
"cX c #F1ECF5",
"vX c #F6F5F9",
"bX c #F6F6FA",
"nX c #FEFDFE",
/* pixels */
"9 a 4 & 0 n 4 X.R 7 0 x 0 M U 2 X.{ { [ g { { { b { { { [ [ +.[ g g [ m > 9 [ 9 f Y { V 9 f +.b 4 U b B b : k { U %.} B { Y l k ",
"a 7 7 l $.Y 2 h k l x h P T P 2 0 B { 0 0 X.X.[ [ { X.g > [ [ , [ , ; g [ X.:.b 9 V g d B M m M 4 b b U B l { $.X.$.} } $.B 9 k ",
"M 7 o : x 0 0 x R a 0 Y 2.a 4 L B 0 n B b b g { 0 { +.[ 9 [ +.9 > ; ; [ [ [ { 0 m B f p V V p b b { B U m m { B m l 0 g B m U =.",
"w 7 = l P 0 n x U U l x l k 7 d X.0 { 0 [ 0 0 +.g 0 X.{ 9 [ | > 9 g [ | B 0 [ [ =.f N m d | B p b d f b b { +.[ > g [ B { { m d ",
": h 7 n T x n 4 N n a N - v b a 9 { { 4 9 | { { g 9 [ [ 9 [ { 9 +.} m [ m B +.} Y f N e s ;...m b p d d g { ..m [ { [ [ b [ { [ ",
"z z 1 1 k x z 4 M w a o.9 V | V & b { 4 g { 0 0 [ , 9 0 9 [ +.[ B { m B [ [ { { 9 z X @ @ c m g { B [ [ m { [ g g p [ ,.:.} { X.",
"z z 0 0 R R 0 k x Y #.m b +.:.m 0 } X.X.X.n 9 { X.{ { [ [ | +.[ d [ [ } X.B B B d e.[.i X @ e s m m ....X...B ..=.b [ +.[ g ..;.",
"2 6 8 8 T P 5 } #.Y  .s o.g V V 0 } X.0 n b 9 { 0 | { [ [ =.:.X.g 0 9 m { f b { O.oX5XoX[.i O 4 g [ +.[ ..[ > g | [ [ [ g [ +.X.",
"J 5 z 7 z &.P U B v o.f f b m f { 0 L { L 0 0 0 9 l g } m { , b > B m +.V d o.X.w.6X5XoX{.] O m ..+.[ p g p m { , +.g [ g ;.[ p ",
"@.7 8 h x P 7 P U M I 4 s V m p } 0 4 4 0 { { 0 B B g { { ;.d 0 9 { B { [ 9 b b r.6X+XoX].i < O.[ +.[ B g f g g [ g p m ;.V B s ",
"R 1 5 0 x z 2 h B R k 4 m X.f , @.{ 0 0 0 0 0 9 U { B f m } m { 9 m 9 f b 9 d C |.+XoX,Xe.H Q =.m [ B [ m g [ f [ [ V g ..d m g ",
"x 8 z h P $.n a l U a s R O.a p 0 L } { { 0 0 > n { X.b b [ b b { +.9 9 m d p O.oX+X,X+X{.r.Y ..N g d m g B X.[ m +.V b p s g s ",
"x x n 0 x &.R h 7 n 7 M Y Y a P 0 { 0 { } U 0 l :.%.{ 4 9 m b b { [ > , [ b d *.oX[.oX{.w.Q M ..B m b B m { { 0 B n 9 9 g p p p ",
"} n 0 0 a l l h l P k P M w 4 x L L 0 0 @.$.{ n -.} n : - l g } f 9 > 9 [ M f o.+X}.OXw.N m m [ 9 f f { } B b ; d b g 9 [ d V g ",
"$.n 0 l n d l U x } Y P n 7 h 2 0 { 0 0 @.} n l 0 n n B l B 9 M } [ B { { B d ) oX<Xd.O.| M m B - 0 d B { n k 9 0 { } b U n } B ",
"b 0 4 l M x M U 7 P } R R x R 2 0 { 0 0 M L 0 } %.{ 9 0 9  .d B B 9 0 m [ U m.H.}.OXR.G Y V o.{ 9 B l l b k l U { { 9 =.} } d B ",
"T 0 7 7 L 0 l $.a %.B l p Q ..[ m ..{ { B 9 9 d =.b 9 -.n n h Q p l 8.+X9X#XK.v.!.E.c.J.B.L X.d U 9 g { b M [ 2 { { d m b 0 [ B ",
"} P 4 2 x n  .M s  .m m b { N f 9 +.M b o.b 9 { -.{ 9 l a X.| | m XXeXqXdXdX#Xk.T.v.F.F.L.H.) N m { %.} d p g > > { { } [ 0 g f ",
"R T 1 P P a  .P v Y p b m N s > , V B m b f m B { b h q.iXlX>Xr.5XdX0X%X5XqX%Xz.n.A.C.F.F.H.b.) { { Y p p B m 9 9 { B 0 0 0 { } ",
"z 0 * } x a x x X. .4 B { Y g s 9 g m b 9 d { b V Q.sXnXnXnXzX8XeX0X%X@X7X0X&XJ.v.K.T.A.F.l.P..X}.*.9 > B %.{ p 9 { m g [ { m B ",
"7 2 * 2 7 R l 2 #.V , V ..V g g ; { l 4 M M V { 8.kXyXcXnXbX9X5XwXqX7XqX0X0X&XY.n.(.(.h.l.x.s.OX6X5Xa.l {  .n M B { { B } { 0 9 ",
"h 7 2 2 h U d n v l , Q | m 9 f n  .B l M { X.*.&X'.rXcXnXkX'.@XqXqXqXqX%X%X.XE.E.D.I.F ( F ~ r.+X5X8Xd.M M B X.=.{ [ g g m [ X.",
"x x a j ! a 7  .b N f O...m g [ $.B B Y a N %.6.fXrXW.yXvXjXxX X].%X0X&X.XE.E.!.R.v.z.( M 4 m | O.}.<X6X6.X...{ { 0 } [ g } +.{ ",
"8 &.a w <.x l 4 a m a V b p s [ U U 7 7 l v N K (.tXrXgXkXkXlXm #.9.i. X!.C.D.T.K.Z.M.) | M +.l s [.6X{.6.;...p B g X.{ b ;.=.0 ",
"L @.x x h = 3 4  .M m p f ; s ..R 0 0 x 0 } n :XgXrXyXxXsXnX:X} &.:.=._ c.D.K.D.S.F.M.@.{ U f V a.5X<X0.0 n { =.B l b b { =.X.- ",
"@.U h P l ; z X.Y $.=.V V m | O.} 0 T @.R k W.zXsXW.bXxXsXjX2.-.Y =...N.(.R.D.G.G.A.G [ m b V }.5X<Xa.=.X.[ [ $.b } b n =.$.l g ",
"R R x n L P $.R U %.>.V g m [ | L x @.L 8 ' lXnXbXbXnXjXcXpXM } :. .! #XdX Xc.G.G.F._ %.=.9.oXeX|.w.=.{ X.+.>.=.[ X.{ { :.{ 0 =.",
"P P x L R :.X.: Q  . .s p s [ [ k L } = 2 pXnXvXnXnXxX4XsX^.g { 3.8.0XeX%XY.v.G.F.z.` | 9.<X6Xd.O.{ +.0 0 { =.{ { b l [ m 0 [ =.",
"P 7 0 P @.} k : $.Y V V f m | ..x x T J ) lXvXvXnXnXlX XqX[.X.9. XqXqX XR.l.S.G.n.M.( B [.@X0.b N f a a b 0 { X.{ 0 0 b 0 9 [ { ",
"L x z h x n h M %.M B o.N m m N 8 L T 0 (.hXvXnXnXbXxX$X&XqX%X0XdX%X!.l.c.M.S.S.n.x.E { a.0...X.m f b m { { { +.g [ [ m | [ 0 g ",
"z P x = h U a Y $.n f Q w s f g 8 L T 1 4XlXjXvXlXbXxX~.{.dXqX0X X*.N.G.J.F.S.F.z.z.( M Q N g M { ;.o.B 0 X.{ [ b 0 0 X.X.{ m g ",
"n h 2 2 T n & P %.m a m - f ..;.L L L 0 sXnXhXaXlXnXpX$.6.].r.i.+.( M.M.n.S.A.n.z.z.( ;.[ Q l b V | M b 9 { { | [ & 9 %.g m | 0 ",
"z 8 0 x L { { { L k d g 9 d X.[ l P %.4.lXnXnXxXuXjX>X[ o.+.+.d n T.H.n.j.b.n.j.j.j.F M M R $.b { { 9 X.:.=.[ } [ { 5.{ 0 9 { { ",
"P 0 8 x L { 0 0 p k g [ [ [ +.X.k @. ._.nXvXnXnXsXxXbX~.,.#.| Y W.L.F.F.S.n.j.A A j.( $.%.Y X.{ { U l X.X.} b m b B { { { =.X.B ",
"R h 4 0 L n 0 0 [ { [ [ X.[ [ [ h } B $XnXjXcXnXxXsXnX4X+.B V <.B.S.n.b.S.S.S.n.j.( %.>.:.{ { { X.{ B { b b 9 ; B { 0 g b X.0 9 ",
"! v 8 x { n 0 { >.1.[ [ <.[ [ [ } U q.lXnXlXhXbXbXpXnXcX2.V V Q.C.N.z.A ( B.n.z.k.<.-.}  .M { M { b { { b [ B 0 } =.g b m [ 0 g ",
"R R v v { 0 0 } X.X.g [ +.{ [ [ R n Q.jXnXcXaXcXbXlXhXnX_.X.0.,XY.k.x.J <.L.F.V.U. .X.M { g [ m m 0 B g g { [ b { { 0 g } m { ;.",
"x T v j L 0 0 $.g L d [ X.[ [ { d n +.^.nXbXaXuXnXcXsXhX`.Y }.6X[./ D N ` D.v.T.Q.+.X.B ;.f [ X.X.b { g b { b g [ 0 9 m =.0 { { ",
"w P j 7 L B L [ d g L X.[ d [ [ d Y :.e.9XcX'.$.cXnXhXhX/.6.6X<Xr.+...o.^ Y.P.Y.<.;...g ;.m ..+.%.g } B :.5.{ } { { g X.$.[ X.g ",
"v R h 3 L } g g L [ [ X.d > [ { w P #..XwX Xz b ).4X#X%X@X}.<Xd.C ,.,.[ 9.OX|.e.+.,.[ , ..[ ;.+.} d [ 0 -.=.k b { X.0 $.{ { ;.{ ",
"&.W w ! h M 3 x $.} %.X.[ { { [ 3 Y 8.7XeX/.m Q %.| s.qXqX5X<Xa.+...[ g 0.5X<Xa.+.+.| [ [ [ +.+.+.0 X.{ =.{ 0 =.X.=.{ { } X.=.} ",
"h t 2 x h x k Y 0 n { %.[ 0 B 0  .;.s.eX5X*.V |  .V w.qXqX%X|.0...B +.[ 6.6X@X7.[ N N [ ..X.{ [ { 9 { { +.X.{ X.{ X.n { X.{ g 9 ",
"R R I P x x x M { { { X.[ [ b { B q.pXdX[.{ b { m V *..XqX+X{.=.| N o.V ~ <X<X0...V V +.5.>.+.{ 0 > 0 0 { n { { n { g { +.0 0 0 ",
"T Q #.v U Y X.R { { { { [ 0 b { B '.bXpX<.b b o.V X.:.[.dX9Xd.~ [ [ N m O./.].4.V m m ..X.{ B { g 0 { { X.{ :.{ { X.{ { { [ +.5.",
"x v T 7 v U $.P U n %.{ =.g b g q.lXnX`.[ v p V Y  .=.).cX$X{.e.O.[ l z | m.D.V.f l m { b 0 0 m B { +.+.-.X.=.X.{ X.{ X.X.{ =.5.",
"T I R 7 v I R a { { =.{ X.0 m B >XnXlX@.| M b Y  . .{ ).nXiX@ ] Y.T B n m <.G.F.E V $.$.[ f b U [ { X.{ +.{ { 0 0 g 0 { :.X.{ { ",
"j I I x Y @. .l { } [ g 9 b f ~.nXnX^.m P 9  .,...X.V ).nX'.q / D.B.( B { 3.` L.m. .%.} B b B B { { } 0 =.=.0 { 9 g 0 X.=.{ { 0 ",
"w j x l K R B 7 m =.m { 0 { b sXnX`.Y $.{ b { M { ! Y ~.nX_.m ( m.S.Z.N.K :.n B.F.<.$.U b U P b { b B > >.3.[ X.[ >.:.=.+.{ { 0 ",
"x } k Y l B  .{ B U  . .7 h ).nXpX: Q Y : c  .P U 2.n ~.nX:Xo.| v ( G A $ e ..E Z.P.[ | b +.f N X.[ { } :.V m Q V | m V Y p d Y ",
"l P z M B P X.Y { %.$.l h < aXiXN s ! c 3 l R Q P #.I ).nX~.[ Y I ;.c % % ..,.;.` j.E | N o.f m { 0 { X.Y m Y | f B 3.p Q o f b ",
"U } U V B B m , B M l 4 l % ' r 3 s B c w v U I P W  .`.nX~.m M w  .I $ u  ...[ | Z S u | | l V { 9 { X.M N  .l M  .| f B d Y V ",
"2 l z Y I %.B f l k n 7 Y w + u j Q  .U U ! ! #.Y P } $XnX2.g V M } K # k l ..[ m ; $ % +.[ m Y [ 0 =.X.V Y N d X.%., #.M t.%.%.",
"1 0 4 T k -.V  .M  .$.d  .@.r X u { h 3 a z M R R z U aXsXB m V  .t.u u ;.N ....C r $ u =.x d P 0 =.>.} } Y h B  . .l #.! |  . .",
"U T h R 4 Y w M R M B c $.t.*X2.i 9.t.B v v ! @.P h x ).!.6 Y 5.p.-X*X*X-Xf.,.O.u # e N Y a a P { -.U g } -.l Y Q V I %.X.M Y R ",
"R z z P n P a n I p w B #.,.u.=X-X2X2X=Xy.I  .*. .#.c . X $ u y.-X-X;X1X1X3Xy.+ X ~ u.| n 0 h R { { 0 0 U >.M Y  .Y v %.I  . .B ",
"T 5 P P &.P 7 a | Q !  .v ^ W 1.t.p.p.*Xf.f.-X=X=X-X*X*.u $ +   9.2X-X1X1X1Xp.6.t.-X-Xu.t.=.h R 0 n n B 9 U B X.$. .B B f v  .N ",
"6 K ^ z Q v h a l v h c l I I ! I c ! #.K #.t.,.u.*X*X=Xg.f.f.p.-X3X;X1X;X;X2X;X=X=Xf.f.p.,.l W 7 R @.B Y U l } :.Y Y Y l l P P ",
"8 z y x x h s #.#. .N B j l w w v I  .Q x M K 3 P P v Y u.*X*X=X*Xp.t.t.t.t.t.t.;.+.;.c 3 Y z @.}  . .R $.Y l -.-.P P R Y P Y M ",
"* 8 < v t h e ! Q U h c h N K P x I Q h w x z 6 R P P R $.o.$.5.Q n { V p p V [ Y V ..I l #.x R Y X.Y a P @.U Y $.P P  . .R B l ",
"* 8 t 8 5 j h j B v w s j U v v v P j 3 w x z t K R P  .:.$.{ B U P $. .l m | m Y | f ;. .M P T R R P a P $.} R } B M Y R P M j ",
"y y J < 5 t T n I I N  .! O.I v I v w 6 x x z t R T 7 x } Y Y B @.Y } x ; w V m | ..a I x h R $.R h h M R P l @.n x z x M x x P ",
"J 6 8 < h t I c I Q N ! N ^  .&.! c w j P K h 7 ! x = M $.b B { R T P x w M X. .o. .#.m p X.Y &.Y h M U U P x } n n b x P Y Y @.",
"y 6 8 y h z v j I I c l 3 t j I ! j t x x K P 8 z z 2  .&.k n B T } @.R $.:.9.5.%.o.;.Y k %.Y $.Y @.&.P n -.2.} M U P n @.$.} $.",
"J J J 8 O x K h w B N o.c v j Q I h h w w T &.P h ^ P @.@.n } Y T T T P R $.X.$.:.,.g Y m l X.%.U P { z h  .@.} P U x x $.$.P U "
};
